<?xml version="1.0" standalone="no"?>
<!DOCTYPE svg PUBLIC "-//W3C//DTD SVG 1.1//EN" "http://www.w3.org/Graphics/SVG/1.1/DTD/svg11.dtd" >
<svg xmlns="http://www.w3.org/2000/svg">
<metadata>
Created by FontPrep 20130207 at Tue Aug 25 16:10:23 2015
 By Michael Karrer
URW Software, Copyright 1993 by URW
</metadata>
<defs>
<font id="69510119d5cf9f44a6e8062f82935351" horiz-adv-x='1024' >
  <font-face 
    font-family="CorporateA-Regular"
    font-weight="500"
    font-stretch="normal"
    units-per-em="2048"
    panose-1="0 0 0 0 0 0 0 0 0 0"
    ascent="1638"
    descent="-410"
    x-height="967"
    cap-height="1372"
    bbox="-383 -541 1810 1800"
    underline-thickness="77"
    underline-position="-181"
    unicode-range="U+0020-FB02"
  />
<missing-glyph horiz-adv-x="512" 
 />
    <glyph glyph-name=".notdef" horiz-adv-x="512" 
 />
    <glyph glyph-name=".null" horiz-adv-x="0" 
 />
    <glyph glyph-name="nonmarkingreturn" horiz-adv-x="681" 
 />
    <glyph glyph-name="space" unicode=" " horiz-adv-x="512" 
 />
    <glyph glyph-name="exclam" unicode="!" horiz-adv-x="507" 
d="M255 223q50 0 85 -36t35 -86t-35 -85q-35 -34 -85 -34t-86 36t-36 85q0 50 36 85t86 35zM203 410l-35 929h172l-35 -929h-102z" />
    <glyph glyph-name="quotedbl" unicode="&#x22;" horiz-adv-x="772" 
d="M584 817h-109l-22 549h155zM299 817h-111l-22 549h156z" />
    <glyph glyph-name="numbersign" unicode="#" horiz-adv-x="1243" 
d="M793 846h-295l-47 -301h297zM1106 545l-19 -111h-231l-68 -434h-129l70 434h-297l-67 -434h-129l69 434h-231l18 111h230l47 301h-230l17 110h231l66 410h127l-66 -410h297l66 410h127l-64 -410h229l-16 -110h-231l-48 -301h232z" />
    <glyph glyph-name="dollar" unicode="$" 
d="M264 1061q0 -135 111 -193q35 -20 127 -57v512q-106 -12 -172 -84t-66 -178zM565 598v-559q125 16 191 87t66 182t-55 172t-202 118zM117 1016q0 158 105 260t280 113v161h63v-161q141 -8 246 -111l63 115h29v-379h-43q-63 293 -295 311v-539q168 -68 226 -100
q182 -106 182 -313q0 -166 -113 -276t-295 -120v-161h-63v161q-166 12 -293 123l-80 -131h-29v445h45q23 -170 116 -268q94 -97 241 -107v586q-152 59 -195 84q-100 53 -145 126t-45 181z" />
    <glyph glyph-name="percent" unicode="%" horiz-adv-x="1243" 
d="M911 594q-149 0 -149 -279t145 -278q147 1 147 279t-143 278zM908 -12q-120 0 -194 91t-75 236q1 145 77 237t195 91q119 0 193 -91q74 -92 74 -236t-75 -236t-195 -92zM178 0l801 1366h86l-801 -1366h-86zM336 1329q-72 0 -110 -72t-38 -204q0 -281 146 -281t145 278
q0 278 -143 279zM337 1378q117 0 191 -91t74 -235t-75 -236t-195 -93q-120 0 -193 91q-73 90 -73 236t76 237q77 91 195 91z" />
    <glyph glyph-name="ampersand" unicode="&#x26;" horiz-adv-x="1208" 
d="M229 322q0 -108 80 -190q80 -81 207 -81q74 -1 132 23t143 90l-353 481q-115 -75 -162 -145t-47 -178zM662 1123q0 71 -42 118t-110 47t-115 -50t-47 -116t20 -109q20 -42 109 -169q100 84 143 146q42 62 42 133zM971 504q0 35 -23 50t-86 17v60q80 -10 149 -10t150 10
v-60q-72 -4 -91 -19t-30 -77q-27 -168 -96 -266l53 -78q45 -63 72 -77t102 -19v-41q-72 8 -126 8t-130 -8l-75 110q-92 -72 -167 -100t-171 -27q-188 -1 -310 103t-122 266q0 117 63 205t227 201q-41 61 -75 110q-72 108 -72 216t86 187t209 79t197 -72q73 -70 73 -170
t-48 -178q-48 -76 -173 -191l336 -457q78 111 78 228z" />
    <glyph glyph-name="quotesingle" unicode="'" horiz-adv-x="487" 
d="M299 817h-111l-22 549h156z" />
    <glyph glyph-name="parenleft" unicode="(" horiz-adv-x="632" 
d="M311 486q0 -540 205 -918h-67q-301 358 -301 918t301 913h67q-205 -373 -205 -913z" />
    <glyph glyph-name="parenright" unicode=")" horiz-adv-x="632" 
d="M322 486q0 544 -205 913h67q301 -357 301 -915t-301 -916h-67q205 374 205 918z" />
    <glyph glyph-name="asterisk" unicode="*" 
d="M492 1085l-11 246h107l-8 -246l231 84l33 -100l-236 -68l150 -192l-86 -64l-137 203l-138 -203l-86 64l152 192l-236 68l33 100z" />
    <glyph glyph-name="plus" unicode="+" 
d="M111 631v121h362v358h125v-358h365v-121h-365v-359h-125v359h-362z" />
    <glyph glyph-name="comma" unicode="," horiz-adv-x="479" 
d="M229 -12q-47 0 -75 28t-29 75q0 48 34 80t89 32t87 -37t32 -105q-1 -172 -189 -403h-102q66 68 119 167t59 167h-8q-8 -4 -17 -4z" />
    <glyph glyph-name="hyphen" unicode="-" horiz-adv-x="526" 
d="M0 502v92h526v-92h-526z" />
    <glyph glyph-name="period" unicode="." horiz-adv-x="471" 
d="M236 215q48 0 82 -35t34 -83t-34 -82q-34 -33 -82 -33t-82 34q-35 34 -35 83q0 48 34 82t83 34z" />
    <glyph glyph-name="slash" unicode="/" horiz-adv-x="825" 
d="M-176 -397l868 1763h113l-868 -1763h-113z" />
    <glyph glyph-name="zero" unicode="0" 
d="M791 670q1 304 -65 464t-189 160t-190 -160t-67 -465q0 -306 66 -467t193 -161q252 0 252 629zM106 668q0 324 115 504q115 182 319 182t304 -168q121 -201 121 -503q-1 -302 -103 -502q-102 -199 -316 -199t-327 181t-113 505z" />
    <glyph glyph-name="one" unicode="1" 
d="M633 1399v-1219q1 -82 27 -104t141 -33v-49q-123 12 -252 12t-254 -12v49q115 8 143 31t27 106v940h-229v49q125 7 217 69t125 161h55z" />
    <glyph glyph-name="two" unicode="2" 
d="M131 0v115q223 260 361 442q133 181 184 283t51 190t-62 148q-63 60 -147 61q-163 0 -242 -121q-35 -59 -53 -164h-65q16 188 84 271q102 129 303 129q156 0 257 -88t101 -218t-105 -286q-105 -154 -509 -619h626l-18 -143h-766z" />
    <glyph glyph-name="three" unicode="3" 
d="M465 86q133 0 213 81t80 216q0 213 -162 270q-70 25 -178 25h-25v72h25q137 0 213 68t76 187q-1 118 -61 181t-163 63q-145 0 -217 -106q-35 -53 -55 -146h-61q37 356 374 357q156 0 254 -89t99 -233q0 -231 -252 -305q113 -27 176 -72q133 -92 133 -269t-121 -291
q-121 -113 -307 -113t-286 101q-99 101 -105 296h69q12 -153 80 -223t201 -70z" />
    <glyph glyph-name="four" unicode="4" 
d="M594 483l4 770l-416 -770h412zM592 -31v385h-553l555 1014h166v-885h227v-129h-227v-385h-168z" />
    <glyph glyph-name="five" unicode="5" 
d="M207 322q28 -236 246 -236q139 0 221 103t82 269t-76 261q-76 94 -203 94q-168 0 -256 -154l-61 5l116 671h592l-20 -143h-524l-70 -395q112 115 284 115t283 -124q111 -122 111 -328t-123 -342t-315 -136q-326 0 -355 340h68z" />
    <glyph glyph-name="six" unicode="6" 
d="M533 854q-117 0 -181 -101t-63 -296q-1 -416 241 -416t242 408q0 199 -61 302t-178 103zM565 922q170 0 280 -130q109 -130 109 -336t-118 -340t-303 -134q-186 0 -305 132q-118 132 -117 343q1 161 79 319t254 348q134 148 306 295h104q-129 -121 -249 -266t-183 -258
q82 27 143 27z" />
    <glyph glyph-name="seven" unicode="7" 
d="M111 1186v149h845l-602 -1335h-153l592 1186h-682z" />
    <glyph glyph-name="eight" unicode="8" 
d="M733 1011q0 135 -50 209t-143 74t-149 -74q-55 -75 -55 -204q0 -289 199 -289q92 0 145 75t53 209zM540 668q-105 0 -170 -84t-65 -228q-1 -144 61 -230t168 -85q106 0 169 87t63 231t-60 227q-61 82 -166 82zM936 371q0 -177 -111 -283t-291 -106t-290 104
q-109 104 -109 281q0 121 55 201t177 132q-201 86 -201 299q0 158 104 256q104 99 270 99t265 -96q98 -96 98 -254q0 -210 -203 -304q236 -82 236 -329z" />
    <glyph glyph-name="nine" unicode="9" 
d="M770 870q0 424 -228 424t-229 -397q1 -203 59 -309t169 -107q229 0 229 389zM539 1354q179 0 291 -133t112 -347q0 -158 -74 -316t-234 -342q-160 -185 -290 -302h-104q118 114 234 264t177 264q-76 -29 -141 -28q-164 0 -268 130t-104 337t111 340q112 133 290 133z" />
    <glyph glyph-name="colon" unicode=":" horiz-adv-x="471" 
d="M236 893q48 0 82 -35t34 -83t-34 -82t-82 -34t-82 35q-35 35 -35 83t34 82t83 34zM236 215q48 0 82 -35t34 -83t-34 -82q-34 -33 -82 -33t-82 34q-35 34 -35 83q0 48 34 82t83 34z" />
    <glyph glyph-name="semicolon" unicode=";" horiz-adv-x="479" 
d="M229 -12q-47 0 -75 28t-29 75q0 48 34 80t89 32t87 -37t32 -105q-1 -172 -189 -403h-102q66 68 119 167t59 167h-8q-8 -4 -17 -4zM244 893q49 0 83 -35q33 -35 33 -83t-34 -82t-81 -34q-48 0 -83 35t-35 83t34 82t83 34z" />
    <glyph glyph-name="less" unicode="&#x3c;" horiz-adv-x="1024" 
d="M936 1249v-69l-655 -428l655 -439v-186l-846 565v13z" />
    <glyph glyph-name="equal" unicode="=" 
d="M111 496v120h852v-120h-852zM111 764v121h852v-121h-852z" />
    <glyph glyph-name="greater" unicode="&#x3e;" horiz-adv-x="1024" 
d="M90 127v72l655 428l-655 436v186l846 -563v-12z" />
    <glyph glyph-name="question" unicode="?" horiz-adv-x="784" 
d="M349 223q50 0 85 -36t35 -85t-35 -85q-35 -35 -85 -35t-86 36t-36 85q0 50 36 85t86 35zM279 498q0 154 78 241q17 20 96 101q117 117 116 219q0 80 -51 129t-145 49t-160 -63t-78 -179h-55q0 104 31 176q41 83 127 133t208 50t207 -81q84 -81 84 -212q0 -92 -41 -159
t-153 -154q-98 -80 -135 -146t-37 -166q0 -25 2 -45h-86q-8 63 -8 107z" />
    <glyph glyph-name="at" unicode="@" horiz-adv-x="1447" 
d="M455 526q0 -82 39 -134t102 -52q123 0 209 205q63 145 63 285t-115 147q-116 6 -207 -151t-91 -300zM774 -20q-307 0 -514 198t-207 497q0 298 206 505q205 206 491 206t468 -163q181 -165 181 -397q1 -232 -145 -388t-298 -155q-72 1 -106 35t-47 118q-61 -80 -111 -110
t-119 -31q-113 0 -187 80t-73 200q0 175 128 311t292 136q135 0 170 -154l37 136h141l-145 -537q-12 -43 -12 -69t18 -46t57 -20t103 46q63 46 110 116q102 150 102 337t-159 328q-160 141 -389 141q-266 0 -444 -178t-178 -444t182 -440t460 -175q172 0 320 101
q59 38 97 78t89 114h94q-49 -88 -91 -137t-109 -100q-188 -139 -412 -139z" />
    <glyph glyph-name="A" unicode="A" horiz-adv-x="1316" 
d="M391 459h434l-200 626zM274 101q0 -28 29 -41t107 -17v-49q-106 10 -194 10t-196 -10v49q94 6 130 32q35 26 67 113l467 1221l422 -1243q26 -70 60 -92t130 -31v-49q-142 16 -250 16t-249 -16v49q73 6 103 20t29 41t-14 70l-69 221h-479l-68 -192q-25 -74 -25 -102z" />
    <glyph glyph-name="B" unicode="B" horiz-adv-x="1171" 
d="M406 682v-514q0 -66 22 -85t102 -20h76q137 0 211 83t74 237q0 155 -70 227t-221 72h-194zM406 745h139q153 0 217 71t64 213t-59 208q-58 66 -187 66h-174v-558zM66 1366h538q186 0 283 -74q121 -98 121 -260q0 -217 -224 -303q137 -27 213 -116t76 -203t-46 -202
q-46 -87 -124 -136q-111 -72 -321 -72h-516v49q112 8 140 31t27 106v994q-1 82 -29 106t-138 31v49z" />
    <glyph glyph-name="C" unicode="C" horiz-adv-x="1228" 
d="M649 -27q-243 0 -393 195q-150 196 -150 516t150 514t399 193q188 0 322 -121l72 116h36v-401h-47q-84 340 -358 340q-188 0 -288 -165t-101 -468q0 -303 100 -465t285 -161q156 0 249 104t103 291h74q-8 -229 -129 -359t-324 -129z" />
    <glyph glyph-name="D" unicode="D" horiz-adv-x="1300" 
d="M399 1303v-1137q0 -70 24 -88t112 -19q225 0 337 115q150 162 150 500t-133 502q-102 127 -326 127h-164zM225 186v994q-1 82 -29 106t-139 31v49h502q147 0 245 -31t177 -102q107 -95 165 -241t58 -310t-60 -312t-165 -239q-156 -131 -422 -131h-500v49q113 9 141 31
t27 106z" />
    <glyph glyph-name="E" unicode="E" horiz-adv-x="1112" 
d="M66 0v49q112 8 140 31t27 106v994q-1 82 -29 106t-138 31v49h890l37 -307h-47q-39 145 -87 194t-154 50h-297v-562h292q70 0 94 33t27 135h51v-401h-51q-2 100 -29 135q-28 35 -102 35h-282v-494q0 -72 28 -96t109 -25h145q121 -1 180 55t99 212h47l-47 -330h-903z" />
    <glyph glyph-name="F" unicode="F" horiz-adv-x="1067" 
d="M416 678v-498q0 -84 28 -106t142 -31v-49q-162 16 -258 16t-254 -16v49q116 10 142 33t26 104v1000q0 82 -29 106t-139 31v49h891l36 -307h-47q-39 145 -87 194t-154 50h-297v-562h293q69 0 93 33t27 135h52v-401h-52q-2 100 -29 135q-28 35 -102 35h-282z" />
    <glyph glyph-name="G" unicode="G" horiz-adv-x="1300" 
d="M1098 1391v-406h-47q-35 117 -76 184q-98 160 -294 160t-297 -163t-101 -476q0 -653 393 -653q131 0 274 78v346q0 57 -29 77q-30 19 -128 25v49q127 -12 232 -12t232 12v-49q-101 -8 -123 -24t-22 -82v-332q-240 -147 -457 -148q-257 0 -407 193q-150 194 -150 518
t151 512t406 189q184 0 324 -117l82 119h37z" />
    <glyph glyph-name="H" unicode="H" horiz-adv-x="1388" 
d="M406 743h575v443q0 84 -28 106t-140 31v49q170 -14 257 -14t251 14v-49q-113 -8 -141 -31t-27 -106v-1006q0 -82 27 -104t141 -33v-49q-158 16 -251 16t-257 -16v49q115 10 141 33t27 104v500h-575v-500q0 -82 26 -104t141 -33v-49q-164 16 -257 16t-250 -16v49
q116 10 142 33t25 104v1006q1 84 -27 106t-140 31v49q164 -14 250 -14t257 14v-49q-113 -8 -141 -31t-26 -106v-443z" />
    <glyph glyph-name="I" unicode="I" horiz-adv-x="643" 
d="M233 180v1006q1 84 -27 106t-140 31v49q170 -14 254 -14t258 14v-49q-113 -8 -142 -32t-28 -105v-1006q0 -84 28 -106t142 -31v-49q-166 16 -258 16t-254 -16v49q115 11 141 33t26 104z" />
    <glyph glyph-name="J" unicode="J" horiz-adv-x="638" 
d="M31 -82q98 0 140 37t53 82t12 137v1012q0 82 -28 104t-140 33v49q170 -14 255 -14t255 14v-49q-113 -10 -141 -33t-27 -104v-940q0 -135 -29 -209t-98 -121q-92 -59 -230 -59q-34 0 -65 2v61q20 -2 43 -2z" />
    <glyph glyph-name="K" unicode="K" horiz-adv-x="1304" 
d="M897 1280q0 20 -24 30q-24 9 -103 13v49q113 -10 209 -10t211 10v-49q-92 -4 -140 -26t-106 -83l-352 -389l455 -649q53 -74 100 -102t133 -31v-49q-156 16 -266 16t-269 -16v49q86 8 114 18q28 11 28 33t-35 76l-367 547l-84 -90v-447q0 -82 28 -106t136 -31v-49
q-139 16 -240 16t-259 -16v49q114 10 142 33t28 104v1006q0 82 -29 106t-141 31v49q174 -14 261 -14t244 14v-49q-113 -8 -141 -31t-27 -106v-471l465 514q29 31 29 51z" />
    <glyph glyph-name="L" unicode="L" horiz-adv-x="1034" 
d="M66 0v49q112 8 140 31t27 106v1000q1 84 -27 106t-140 31v49q170 -14 254 -14t258 14v-49q-113 -8 -142 -32t-28 -105v-996q0 -72 28 -96t109 -24h145q121 0 179 55t98 205h47l-47 -330h-901z" />
    <glyph glyph-name="M" unicode="M" horiz-adv-x="1681" 
d="M305 162q0 -68 31 -90t137 -29v-49q-123 10 -202 10t-205 -10v49q106 8 136 31t34 104l40 1008l3 12q6 80 -52 102q-41 18 -118 21v51q103 -8 183 -8t179 10l381 -1036l385 1036q113 -10 185 -10t173 8v-49q-102 -8 -140 -34t-28 -103l21 -1008q0 -80 31 -104t139 -31
v-49q-174 14 -257 14t-257 -14v49q104 6 137 31t33 96v10l-17 1061l-339 -913q-6 -18 -33 -92t-70 -197h-31l-49 145q-18 49 -55 152l-334 909l-41 -1067v-16z" />
    <glyph glyph-name="N" unicode="N" horiz-adv-x="1378" 
d="M1149 -41h-31q-53 82 -213 326l-602 909v-1014q0 -82 28 -104t142 -33v-49q-143 10 -210 10t-197 -10v49q114 10 142 33t28 104v1082q-45 53 -173 61v49q109 -6 171 -6t151 6l694 -1038v852q1 82 -27 104t-141 33v49q133 -10 208 -10t198 10v-49q-113 -10 -141 -33
t-27 -104v-1227z" />
    <glyph glyph-name="O" unicode="O" horiz-adv-x="1294" 
d="M649 1335q-174 0 -270 -170t-96 -477t97 -481t270 -174t268 170q94 170 94 481t-94 481q-95 170 -269 170zM648 1393q252 0 400 -194t148 -516t-150 -515t-399 -193t-399 194t-150 515t150 515t400 194z" />
    <glyph glyph-name="P" unicode="P" horiz-adv-x="1116" 
d="M408 680h163q143 0 213 61q100 82 100 244t-71 240q-72 78 -229 78h-176v-623zM408 616v-436q0 -84 28 -106t142 -31v-49q-166 16 -257 16t-255 -16v49q116 10 142 33t25 104v1000q-1 82 -29 106t-138 31v49h538q201 0 305 -74q70 -49 110 -131t40 -174q0 -188 -152 -295
q-104 -76 -282 -76h-217z" />
    <glyph glyph-name="Q" unicode="Q" horiz-adv-x="1288" 
d="M646 1335q-173 0 -269 -169t-96 -477t97 -482t269 -174t266 170q95 170 95 480t-94 481t-268 171zM1319 -23h-68q-82 0 -135 24t-137 97q-135 -123 -330 -123q-251 0 -401 194t-150 516t148 515t398 193q249 0 397 -194t149 -517q0 -258 -105 -449q75 -113 125 -155
t109 -47v-54z" />
    <glyph glyph-name="R" unicode="R" horiz-adv-x="1220" 
d="M408 713h170q147 0 224 77t77 224q0 289 -289 289h-182v-590zM406 649v-469q0 -82 26 -104t141 -33v-49q-157 16 -251 16t-256 -16v49q116 10 142 33t25 104v1000q-1 82 -29 106t-138 31v49h548q182 0 283 -68q72 -44 114 -124t42 -170t-48 -170q-49 -80 -119 -116
t-169 -56q63 -18 100 -56t74 -121l141 -323q35 -74 64 -96t104 -23v-49q-92 6 -134 6t-136 -6q-8 18 -18 36t-20 44q-11 25 -20 45l-157 366q-41 98 -88 131t-144 33h-77z" />
    <glyph glyph-name="S" unicode="S" horiz-adv-x="1062" 
d="M848 1016q-68 307 -296 307q-114 0 -188 -72q-74 -71 -75 -183q0 -112 117 -183q58 -35 214 -114t218 -128q125 -94 125 -269t-114 -284q-114 -108 -297 -108t-323 118l-73 -131h-37v445h47q61 -369 362 -369q125 0 204 76q79 77 79 197t-92 190q-43 32 -237 132
t-255 159q-86 87 -86 237t109 249q108 99 274 99t275 -106l61 115h37v-377h-49z" />
    <glyph glyph-name="T" unicode="T" horiz-adv-x="1083" 
d="M625 1303v-1123q-1 -82 27 -104t143 -33v-49q-162 16 -258 16t-254 -16v49q115 10 141 32t27 105v1123h-111q-106 1 -156 -49t-96 -201h-51l55 313h897l58 -313h-50q-41 153 -89 201t-154 49h-129z" />
    <glyph glyph-name="U" unicode="U" horiz-adv-x="1361" 
d="M1137 1186v-750q0 -186 -70 -286q-123 -172 -373 -172t-377 139q-96 104 -96 303v766q1 84 -27 106t-141 31v49q170 -14 255 -14t257 14v-49q-113 -8 -141 -32t-29 -105v-783q1 -96 15 -147t51 -92q86 -96 258 -96q215 0 301 135q47 76 47 223v760q0 84 -28 106t-140 31
v49q133 -10 208 -10t198 10v-49q-113 -9 -141 -31t-27 -106z" />
    <glyph glyph-name="V" unicode="V" horiz-adv-x="1312" 
d="M266 1358q106 0 248 14v-49q-137 -10 -137 -63q0 -14 16 -64l314 -934l317 912q23 60 23 88t-30 42t-108 19v49q93 -12 185 -12t198 12v-49q-84 -8 -123 -31t-57 -73l-436 -1244h-51l-418 1217q-29 78 -61 100t-126 31v49q140 -14 246 -14z" />
    <glyph glyph-name="W" unicode="W" horiz-adv-x="1796" 
d="M274 1358q102 0 238 14v-49q-80 -8 -109 -21t-29 -36t13 -66l229 -850l314 1047h47l307 -1049l234 846q14 51 14 75q0 47 -129 54v49q94 -10 179 -10t179 10v-49q-81 -4 -115 -27t-51 -82l-348 -1237h-39l-311 1104l-322 -1106h-40l-332 1227q-18 66 -52 92t-114 29v49
q135 -14 237 -14z" />
    <glyph glyph-name="X" unicode="X" horiz-adv-x="1271" 
d="M339 1358q110 0 253 14v-49q-82 -8 -110 -19q-50 -20 -5 -100l193 -360l215 338q41 66 41 90t-27 36q-27 11 -102 15v49q96 -10 198 -10t199 10v-49q-88 -9 -128 -29t-79 -77l-280 -443l319 -596q45 -82 81 -106t132 -29v-49q-160 14 -258 14t-262 -14v49q88 8 115 19
q26 11 26 38t-37 99l-221 413l-266 -430q-39 -59 -39 -86t25 -38t104 -15v-49q-112 10 -202 10t-201 -10v49q82 2 132 35t107 121l303 483l-276 516q-35 70 -74 94t-129 31v49q143 -14 253 -14z" />
    <glyph glyph-name="Y" unicode="Y" horiz-adv-x="1212" 
d="M279 1358q102 0 251 14v-49q-84 -6 -114 -18q-30 -11 -29 -35q0 -24 21 -66l262 -520l260 522q20 39 20 64t-28 36q-29 11 -111 17v49q106 -10 188 -10t191 10v-49q-86 -8 -120 -30t-66 -81l-308 -616v-416q0 -84 27 -106t141 -31v-49q-164 16 -255 16t-257 -16v49
q115 10 143 33t27 104v416l-303 604q-35 70 -71 92t-121 31v49q150 -14 252 -14z" />
    <glyph glyph-name="Z" unicode="Z" horiz-adv-x="1101" 
d="M461 1303q-115 1 -171 -51t-93 -189h-52l54 303h833l-739 -1303h387q96 1 140 19q91 38 167 250h49l-59 -332h-914l740 1303h-342z" />
    <glyph glyph-name="bracketleft" unicode="[" horiz-adv-x="632" 
d="M575 1305h-208v-1641h208v-61h-354v1763h354v-61z" />
    <glyph glyph-name="backslash" unicode="\" horiz-adv-x="825" 
d="M1001 -397h-112l-869 1763h113z" />
    <glyph glyph-name="bracketright" unicode="]" horiz-adv-x="632" 
d="M57 -336h209v1641h-209v61h355v-1763h-355v61z" />
    <glyph glyph-name="asciicircum" unicode="^" horiz-adv-x="1024" 
d="M1073 588h-69l-431 655l-436 -655h-186l563 846h12z" />
    <glyph glyph-name="underscore" unicode="_" horiz-adv-x="1024" 
d="M51 -180h924v-78h-924v78z" />
    <glyph glyph-name="grave" unicode="`" horiz-adv-x="1024" 
d="M637 1128h-92l-336 302h227z" />
    <glyph glyph-name="a" unicode="a" horiz-adv-x="954" 
d="M616 549q-370 -66 -370 -278q0 -103 45 -152t138 -49t140 72t47 231v176zM784 -14q-124 0 -143 174q-55 -98 -117 -138t-172 -40q-112 0 -192 74t-80 190q0 184 233 280q135 55 303 76v123q0 106 -38 155q-38 50 -124 50q-84 0 -130 -34t-48 -87v-16q2 -14 3 -33
q0 -88 -84 -88q-68 0 -68 69q0 98 100 171t236 73q86 0 160 -33q73 -32 115 -94t42 -211v-418q0 -104 18 -143t62 -39q14 0 51 6v-53q-66 -14 -127 -14z" />
    <glyph glyph-name="b" unicode="b" horiz-adv-x="1042" 
d="M565 928q-115 0 -175 -116t-60 -335q0 -438 227 -438q233 1 233 445t-225 444zM168 -23v1203q0 80 -25 99t-120 19v37q152 10 309 54v-564q57 90 111 125t141 35q168 0 273 -140q105 -139 105 -361t-108 -362q-109 -140 -285 -140t-262 178l-88 -183h-51z" />
    <glyph glyph-name="c" unicode="c" horiz-adv-x="892" 
d="M788 1010v-338h-45q-23 96 -49 145q-63 119 -184 119t-184 -120t-64 -339q0 -432 238 -432q190 0 227 270h82q-18 -165 -102 -251t-224 -87q-179 -1 -289 137t-110 364t113 370t292 143q117 0 209 -86l54 105h36z" />
    <glyph glyph-name="d" unicode="d" horiz-adv-x="1048" 
d="M473 922q-219 0 -219 -444t227 -445q221 0 221 428q0 461 -229 461zM463 -25q-169 1 -275 141t-106 361t104 361t269 141q84 0 136 -34t109 -126v361q0 78 -24 98q-25 20 -121 20v37q150 10 309 54v-1182q0 -93 24 -115t126 -24v-35q-172 -23 -271 -53q-20 82 -26 163
q-86 -168 -254 -168z" />
    <glyph glyph-name="e" unicode="e" horiz-adv-x="937" 
d="M480 934q-198 0 -228 -354h440q-14 354 -212 354zM494 -20q-188 0 -300 136t-112 365t111 367t287 139q176 0 274 -126t102 -355h-608q6 -203 39 -293q66 -166 231 -166q110 1 176 69t84 199h80q-18 -159 -114 -247t-250 -88z" />
    <glyph glyph-name="f" unicode="f" horiz-adv-x="606" 
d="M369 967h233v-76h-233v-746q1 -66 27 -86t120 -24v-41q-131 12 -229 12t-230 -12v41q94 4 121 24t27 86v746h-142v63q100 4 126 26t31 138t54 180q80 96 224 97q88 0 144 -43t56 -111q0 -76 -75 -76q-33 -1 -53 17t-21 32q0 14 4 39l2 29q0 29 -17 45t-44 16
q-78 0 -109 -86q-16 -39 -16 -153v-137z" />
    <glyph glyph-name="g" unicode="g" horiz-adv-x="1007" 
d="M470 35q-159 0 -242 -46t-83 -131q1 -84 97 -142t244 -58t234 53q87 53 87 143t-89 135q-89 46 -248 46zM678 681q0 121 -50 187t-141 66q-92 0 -144 -68t-52 -188t51 -189q51 -67 142 -67t143 68q51 69 51 191zM979 932v-82l-197 6q51 -78 52 -172q0 -168 -142 -256
q-58 -35 -202 -71t-182 -55t-38 -53t33 -45q33 -10 209 -24t256 -46t123 -91t43 -133q0 -141 -123 -228q-123 -88 -319 -88t-314 78t-117 205q0 152 197 219q-59 27 -84 54t-24 65q0 113 221 168q-235 71 -235 313q0 126 95 207q96 82 265 82q121 0 211 -53h272z" />
    <glyph glyph-name="h" unicode="h" horiz-adv-x="1105" 
d="M621 985q167 0 249 -133q45 -72 45 -215v-492q0 -66 27 -86t121 -24v-41q-125 12 -225 12t-222 -12v41q82 4 109 24t27 82v502q0 127 -33 178q-47 72 -155 72t-169 -88q-39 -53 -39 -170v-494q0 -61 27 -81t106 -25v-41q-121 12 -220 12t-224 -12v41q94 4 121 24t27 86
v1035q0 78 -25 98t-121 20v37q145 11 309 54v-541q98 137 265 137z" />
    <glyph glyph-name="i" unicode="i" horiz-adv-x="571" 
d="M284 1366q46 0 78 -32t33 -79q0 -47 -33 -79q-32 -32 -78 -33q-46 0 -79 33q-33 34 -33 80t33 78t79 32zM373 145q1 -66 27 -86t120 -24v-41q-133 12 -229 12t-230 -12v41q94 4 121 24t27 86v648q0 80 -24 99t-122 21v35q163 12 310 53v-856z" />
    <glyph glyph-name="j" unicode="j" horiz-adv-x="555" 
d="M276 1366q47 0 80 -32t33 -79t-33 -79t-79 -33q-47 0 -79 33q-32 32 -32 78t32 79t78 33zM367 27q0 -252 -138 -361q-102 -78 -270 -82v54q98 16 160 63q47 39 65 92t19 150v850q0 80 -24 99t-122 21v35q156 12 310 53v-974z" />
    <glyph glyph-name="k" unicode="k" horiz-adv-x="1093" 
d="M717 883q0 43 -111 49v41q102 -10 192 -10t203 10v-41q-79 -6 -115 -24t-89 -72l-197 -207l289 -484q41 -66 75 -86t109 -24v-41q-90 8 -140 8t-134 -8l-303 536l-144 -147v-238q0 -66 27 -86t121 -24v-41q-132 12 -228 12t-227 -12v41q94 4 121 24t27 86v1035
q0 78 -25 98t-121 20v37q154 12 307 54v-914l330 350q33 37 33 58z" />
    <glyph glyph-name="l" unicode="l" horiz-adv-x="559" 
d="M369 145q1 -66 27 -86t120 -24v-41q-133 12 -229 12t-230 -12v41q94 4 121 24t27 86v1035q0 78 -25 98t-121 20v37q154 13 310 54v-1244z" />
    <glyph glyph-name="m" unicode="m" horiz-adv-x="1632" 
d="M578 891q-209 0 -207 -264v-486q0 -61 26 -82q27 -20 109 -24v-41q-121 12 -222 12t-225 -12v41q94 4 121 24t27 86v633q-1 94 -19 110t-127 17v37q178 25 273 62q18 -96 18 -175q57 84 122 120t155 36q178 0 250 -160q57 88 119 124t159 36q182 0 248 -127
q33 -70 33 -194v-519q0 -66 26 -86t121 -24v-41q-123 12 -224 12t-222 -12v41q83 4 109 24t26 82v527q0 121 -38 172t-128 51q-203 0 -203 -242v-508q0 -61 27 -81t108 -25v-41q-121 12 -217 12t-215 -12v41q80 4 107 24t26 82v525q0 115 -28 159q-41 66 -135 66z" />
    <glyph glyph-name="n" unicode="n" horiz-adv-x="1122" 
d="M63 905v37q180 27 271 62q16 -53 22 -179q109 160 279 160t252 -133q45 -72 45 -215v-492q0 -66 26 -86t121 -24v-41q-123 12 -224 12t-222 -12v41q83 4 109 24t26 82v502q0 127 -33 178q-47 72 -155 72t-168 -88q-39 -53 -39 -170v-494q0 -61 26 -82q27 -20 107 -24v-41
q-121 12 -221 12t-224 -12v41q94 4 121 24t27 86v633q1 88 -17 106t-102 21h-27z" />
    <glyph glyph-name="o" unicode="o" horiz-adv-x="960" 
d="M485 938q-231 0 -231 -454t225 -453q229 -1 229 453t-223 454zM82 482q0 224 114 366t291 143q178 0 286 -141q108 -140 108 -364t-113 -366t-288 -142q-174 0 -286 140t-112 364z" />
    <glyph glyph-name="p" unicode="p" horiz-adv-x="1067" 
d="M582 928q-227 0 -228 -428q0 -461 236 -461q225 1 225 445t-233 444zM602 985q168 0 277 -141q109 -142 109 -362t-106 -360q-105 -140 -274 -140q-86 0 -139 34t-113 125v-399q0 -68 26 -87t120 -24v-41q-234 22 -457 0v41q96 3 122 23t26 88v1051q0 84 -30 102t-118 20
v37q143 10 268 37q20 -70 27 -172q94 168 262 168z" />
    <glyph glyph-name="q" unicode="q" horiz-adv-x="1067" 
d="M487 928q-115 0 -174 -115t-59 -334q0 -440 225 -440q115 0 175 116t61 334q-1 439 -228 439zM713 -258v399q-57 -90 -113 -125t-139 -34q-168 0 -274 140q-105 140 -105 360t108 362q109 141 280 141t259 -168q8 109 27 172q119 -25 266 -37v-37h-27q-73 -3 -97 -27
t-24 -95v-1051q0 -68 26 -87t122 -24v-41q-234 22 -455 0v41q94 3 120 23t26 88z" />
    <glyph glyph-name="r" unicode="r" horiz-adv-x="776" 
d="M547 905q-82 0 -129 -90t-47 -242v-428q1 -66 27 -86t120 -24v-41q-131 12 -231 12t-228 -12v41q94 4 121 24t27 86v637q0 96 -20 114t-126 19v35q158 14 271 49q16 -104 18 -194q74 186 240 186q78 0 128 -47q50 -48 50 -106t-24 -84t-60 -27q-36 0 -62 19
q-24 19 -24 49l10 61q0 20 -17 34t-44 15z" />
    <glyph glyph-name="s" unicode="s" horiz-adv-x="872" 
d="M154 317q48 -274 275 -274q81 0 141 53q60 54 60 116t-25 96q-26 34 -89 67l-197 92q-113 51 -155 103t-41 158q0 106 85 182t208 75q123 0 223 -65l35 84h35v-318h-45q-27 242 -215 242q-81 0 -137 -48t-56 -108t26 -93t62 -51t184 -84q146 -66 193 -121q47 -56 47 -147
q0 -130 -92 -212t-230 -82t-253 84l-50 -91h-34v342h45z" />
    <glyph glyph-name="t" unicode="t" horiz-adv-x="632" 
d="M408 -18q-154 0 -205 120q-23 57 -23 179v36l10 574h-133v63q96 4 157 78q60 74 89 228h51v-293h238v-76h-240v-596q0 -133 27 -183t88 -50t141 42v-59q-100 -63 -200 -63z" />
    <glyph glyph-name="u" unicode="u" horiz-adv-x="1101" 
d="M342 319q0 -131 43 -187t141 -56q211 0 211 272v445q0 80 -23 99q-24 19 -122 21v35q162 12 309 53v-831q0 -70 23 -84t129 -16v-37q-160 -14 -283 -53q-10 90 -12 186q-51 -96 -117 -139t-162 -43q-170 0 -252 120q-49 70 -49 218v471q0 80 -23 99q-24 19 -122 21v35
q159 12 309 53v-682z" />
    <glyph glyph-name="v" unicode="v" horiz-adv-x="993" 
d="M426 932q-111 -2 -111 -40q0 -18 13 -54l217 -623l223 616q16 39 16 61t-19 30t-83 10v41q139 -8 163 -8t148 8v-41q-71 -2 -101 -22t-52 -79l-236 -634q-14 -43 -43 -115l-12 -31q-11 -31 -27 -76h-53q-13 37 -33 91t-26 69l-258 705q-23 55 -51 72t-103 20v41
q145 -12 220 -12t208 12v-41z" />
    <glyph glyph-name="w" unicode="w" horiz-adv-x="1449" 
d="M224 963q95 0 208 10v-41q-117 -6 -117 -47q0 -12 13 -49l174 -586l248 743h57l240 -747l178 588q10 34 10 56t-22 30t-89 12v41q104 -8 168 -8t148 8v-41q-68 -4 -100 -24t-50 -74l-209 -666q-4 -14 -15 -53t-26 -86l-14 -54h-55q-41 139 -56 177l-184 585l-196 -581
l-58 -181h-55q-43 147 -55 191l-207 661q-23 66 -47 84q-25 18 -97 21v41q113 -10 208 -10z" />
    <glyph glyph-name="x" unicode="x" horiz-adv-x="1044" 
d="M287 963q88 0 209 10v-41q-94 -6 -95 -41q0 -14 21 -49l129 -226l156 220q27 37 26 55q0 39 -102 41v41q105 -8 165 -8t167 8v-41q-72 -4 -106 -22t-69 -66l-202 -283l243 -420q39 -66 73 -85t112 -21v-41q-126 12 -226 12t-223 -12v41q61 4 84 13q23 10 23 28t-23 55
l-166 289l-190 -270q-33 -47 -33 -70t23 -33t86 -12v-41q-137 8 -168 8t-168 -8v41q71 5 107 27t83 92l226 323l-213 369q-29 47 -64 65t-102 21v41q129 -10 217 -10z" />
    <glyph glyph-name="y" unicode="y" horiz-adv-x="1021" 
d="M229 963q94 0 209 10v-41q-106 -6 -106 -38q0 -16 14 -60l215 -592l225 585q16 43 17 58q0 45 -117 47v41q82 -8 152 -8t176 8v-41q-70 -8 -104 -30t-52 -71l-387 -1001q-88 -231 -297 -231q-14 0 -29 2v102h21q92 0 150 42t98 136l63 152l-301 803q-20 55 -50 73
t-106 23v41q115 -10 209 -10z" />
    <glyph glyph-name="z" unicode="z" horiz-adv-x="915" 
d="M397 913q-100 1 -142 -37t-95 -176h-43l47 267h680l-557 -914h239q80 -1 118 19t77 80q37 66 63 143h43l-53 -295h-704l555 913h-228z" />
    <glyph glyph-name="braceleft" unicode="{" horiz-adv-x="632" 
d="M391 1217v-500q1 -88 -25 -129t-102 -80q76 -39 102 -81t25 -128v-549q1 -78 33 -121t104 -61h-41q-133 0 -187 51t-54 180v539q0 72 -27 108t-100 62q75 28 101 62t26 108v491q0 127 53 179t188 51h41q-137 -34 -137 -182z" />
    <glyph glyph-name="bar" unicode="|" horiz-adv-x="1024" 
d="M463 1366h96v-1708h-96v1708z" />
    <glyph glyph-name="braceright" unicode="}" horiz-adv-x="632" 
d="M145 1399q135 0 189 -51t53 -179v-491q0 -74 27 -110t100 -60q-72 -25 -100 -62t-27 -108v-539q0 -129 -54 -180t-188 -51h-41q72 18 105 61t33 121v549q0 86 25 128q26 42 102 81q-76 39 -102 80t-25 129v500q0 78 -33 121t-105 61h41z" />
    <glyph glyph-name="asciitilde" unicode="~" horiz-adv-x="1366" 
d="M467 1380q-57 0 -93 -24t-100 -96l-26 16q121 195 284 194q56 0 178 -41t173 -40q113 -1 207 114l26 -18q-47 -82 -127 -136q-80 -55 -136 -55q-57 0 -193 43t-193 43z" />
    <glyph glyph-name="exclamdown" unicode="&#xa1;" horiz-adv-x="507" 
d="M253 985q50 0 86 -36t36 -86t-36 -85t-86 -35t-85 36t-35 86t35 85t85 35zM305 557l35 -930h-172l35 930h102z" />
    <glyph glyph-name="cent" unicode="&#xa2;" 
d="M342 690q0 -214 49 -318t158 -122v874q-207 -39 -207 -434zM612 25h-63v155q-175 14 -277 150t-102 351q0 214 102 350t277 151v157h63v-159q90 -8 164 -82l55 102h35v-334h-45q-43 235 -209 260v-876q166 29 195 264h78q-12 -137 -85 -225t-188 -105v-159z" />
    <glyph glyph-name="sterling" unicode="&#xa3;" 
d="M690 739v-75h-270l-31 -234q-31 -221 -147 -362q125 61 217 61q43 0 122 -17t130 -18q145 0 180 203h72q-23 -169 -92 -233t-230 -64h-530q45 53 67 126q23 73 41 220l39 318h-147v75h157l21 168q27 231 133 357t276 125q225 0 252 -256h-82q-12 96 -51 140t-110 44
q-137 0 -201 -141q-33 -74 -49 -224l-27 -213h260z" />
    <glyph glyph-name="currency" unicode="&#xa4;" horiz-adv-x="1366" 
d="M684 1071q-148 0 -252 -103q-104 -102 -104 -252t104 -254t250 -106q146 0 252 104q104 104 104 252t-103 254q-103 105 -251 105zM209 713q0 156 106 293l-194 190l74 74l190 -191q141 107 297 107t295 -107l192 189l72 -72l-190 -190q106 -137 106 -292t-104 -292
l192 -193l-74 -71l-192 190q-137 -106 -290 -106t-300 106l-190 -190l-72 71l186 193q-104 135 -104 291z" />
    <glyph glyph-name="yen" unicode="&#xa5;" 
d="M109 823v76h225l-121 301q-25 66 -63 92t-109 31v49q151 -14 231 -14t230 14v-49q-72 -8 -100 -20q-28 -13 -28 -35t17 -64l201 -514l205 516q18 43 18 67t-25 35q-26 11 -98 15v49q106 -10 168 -10t176 10v-49q-78 -10 -112 -32t-56 -79l-125 -313h215v-76h-245
l-60 -153h305v-76h-335v-414q1 -82 29 -106t141 -31v-49q-164 16 -257 16t-255 -16v49q113 10 141 33t27 104v414h-340v76h315l-62 153h-253z" />
    <glyph glyph-name="brokenbar" unicode="&#xa6;" horiz-adv-x="1024" 
d="M463 313h96v-655h-96v655zM463 1366h96v-680h-96v680z" />
    <glyph glyph-name="section" unicode="&#xa7;" 
d="M651 307q156 71 156 183q1 58 -29 96q-30 39 -100 78l-221 129q-105 -23 -149 -62t-44 -97t28 -95t95 -76zM508 -219q106 0 172 56t65 147q0 59 -32 104q-33 45 -113 90l-285 166q-162 96 -161 250q0 98 51 154t176 88q-113 74 -152 127t-39 133q0 127 96 210t250 83
q154 -1 249 -89t102 -239h-72q-10 117 -76 179t-172 62q-107 0 -169 -50t-62 -118t34 -111q34 -42 126 -93l243 -139q94 -53 135 -111t41 -143q0 -174 -202 -265q100 -66 140 -122t40 -140q0 -135 -103 -223q-102 -88 -264 -88t-260 87t-108 243h73q33 -248 277 -248z" />
    <glyph glyph-name="dieresis" unicode="&#xa8;" horiz-adv-x="1024" 
d="M700 1378q45 0 77 -32t32 -76q0 -45 -32 -78t-77 -33q-46 0 -78 32t-32 78q0 45 32 77t78 32zM328 1378q44 0 76 -32t32 -76q0 -45 -32 -78t-76 -33t-78 32q-33 32 -33 78q0 45 33 77t78 32z" />
    <glyph glyph-name="copyright" unicode="&#xa9;" horiz-adv-x="1593" 
d="M790 258q-144 0 -240 117q-95 117 -95 309t96 308t256 116q119 0 197 -70l43 68h32v-252h-41q-27 104 -79 152t-138 49q-115 0 -176 -94q-61 -95 -61 -271t60 -270t164 -94q209 0 222 233h60q-6 -143 -81 -222t-219 -79zM796 1319q-264 0 -450 -186q-186 -187 -186 -449
t185 -450t448 -187q263 0 451 185q188 186 188 450t-186 450t-450 187zM797 1389q293 0 499 -207t205 -501q0 -294 -208 -499t-501 -205q-294 0 -498 208t-204 500t207 498t500 206z" />
    <glyph glyph-name="ordfeminine" unicode="&#xaa;" horiz-adv-x="714" 
d="M74 653h590v-78h-590v78zM217 938q1 -109 109 -109q54 0 83 42q27 43 27 137v102q-219 -39 -219 -172zM553 922q-1 -107 35 -107q18 0 49 6v-47q-49 -10 -87 -10t-62 20t-33 74q-61 -96 -170 -96q-82 0 -134 47t-53 121q0 180 338 227v68q0 63 -22 92q-23 29 -72 29
t-77 -20t-27 -48v-31q0 -61 -60 -61q-49 0 -49 56t65 104t152 47q121 0 178 -78q29 -43 29 -137v-256z" />
    <glyph glyph-name="guillemotleft" unicode="&#xab;" horiz-adv-x="817" 
d="M637 967h59l-168 -478l168 -489h-59l-248 489zM358 967h62l-170 -478l170 -489h-62l-247 489z" />
    <glyph glyph-name="logicalnot" unicode="&#xac;" horiz-adv-x="1024" 
d="M774 0v471h-700v76h874v-547h-174z" />
    <glyph glyph-name="registered" unicode="&#xae;" horiz-adv-x="1593" 
d="M680 707h100q178 0 178 170q0 164 -172 163h-106v-333zM680 655v-290q0 -29 18 -39t86 -15v-43q-171 18 -329 0v43q74 5 89 17t15 57v590q0 47 -16 58t-88 16v43h346q117 0 180 -41q98 -63 98 -179q0 -78 -50 -131t-138 -73q31 -14 49 -34t39 -67l88 -190q19 -43 37 -53
t67 -13v-43q-47 4 -91 4t-87 -4q-14 29 -37 78l-98 217q-25 57 -51 75q-27 17 -86 17h-41zM796 1319q-264 0 -450 -186q-186 -187 -186 -449t185 -450t448 -187q263 0 451 185q188 186 188 450t-186 450t-450 187zM797 1389q293 0 499 -207t205 -501q0 -294 -208 -499
t-501 -205q-294 0 -498 208t-204 500t207 498t500 206z" />
    <glyph glyph-name="macron" unicode="&#xaf;" horiz-adv-x="1024" 
d="M199 1235v104h624v-104h-624z" />
    <glyph glyph-name="degree" unicode="&#xb0;" horiz-adv-x="1024" 
d="M512 1303q-80 -1 -137 -57t-57 -136t56 -136t137 -56t138 56t58 136t-57 136t-138 57zM513 1393q120 0 204 -82t84 -200t-85 -201t-205 -83t-204 83t-84 201t85 200t205 82z" />
    <glyph glyph-name="plusminus" unicode="&#xb1;" 
d="M111 53v123h852v-123h-852zM111 631v121h362v358h125v-358h365v-121h-365v-346h-125v346h-362z" />
    <glyph glyph-name="twosuperior" unicode="&#xb2;" horiz-adv-x="698" 
d="M92 532v78q369 406 369 535q0 53 -37 88t-94 35q-141 0 -168 -170h-53q10 121 53 172q68 78 180 78t177 -54t65 -134q0 -79 -64 -169t-309 -360h381l-12 -99h-488z" />
    <glyph glyph-name="threesuperior" unicode="&#xb3;" horiz-adv-x="698" 
d="M306 598q81 0 128 46t47 124q0 166 -205 166h-20v55h20q174 0 175 150q0 61 -35 97t-97 36q-131 0 -163 -150h-52q20 225 240 226q100 0 162 -54t63 -143q0 -127 -137 -180q172 -49 172 -205q0 -104 -77 -173t-195 -69q-238 0 -250 248h57q10 -92 48 -133t119 -41z" />
    <glyph glyph-name="acute" unicode="&#xb4;" horiz-adv-x="1024" 
d="M442 1128l201 302h227l-335 -302h-93z" />
    <glyph glyph-name="mu" unicode="&#xb5;" horiz-adv-x="901" 
d="M328 -31q-168 0 -224 183v-62q0 -92 16 -223t15 -165q0 -34 -19 -62t-49 -27q-30 0 -51 27q-20 28 -20 64t14 122q55 336 56 754v356h129v-586q0 -102 11 -151t52 -93t122 -44t142 38q61 39 123 129v707h129v-700q0 -92 16 -124t55 -32q38 0 73 24v-30l-156 -94l-8 -3
q-33 0 -58 29q-31 31 -39 111l-6 37q-115 -111 -178 -148t-145 -37z" />
    <glyph glyph-name="paragraph" unicode="&#xb6;" 
d="M727 -68v1233q0 90 -16 114q-15 24 -77 24t-80 -25t-19 -113v-1235q0 -86 18 -112q17 -26 79 -25t78 25t17 114zM424 -96v766q-328 47 -328 358q0 215 160 293q88 45 291 45h461v-49q-111 -8 -141 -32t-29 -105v-1276q0 -82 27 -105q28 -22 141 -30v-52q-386 32 -750 0
v52q112 9 140 31t28 104z" />
    <glyph glyph-name="periodcentered" unicode="&#xb7;" horiz-adv-x="471" 
d="M119 503q0 47 34 81t83 34q48 0 82 -34t34 -83q0 -48 -34 -82t-82 -34t-82 35q-35 35 -35 83z" />
    <glyph glyph-name="cedilla" unicode="&#xb8;" horiz-adv-x="1024" 
d="M698 -262q0 -66 -52 -108t-130 -42t-160 33v62q68 -19 111 -19t72 24t28 64q0 86 -155 88l88 160h88l-64 -121q92 -10 133 -43q41 -32 41 -98z" />
    <glyph glyph-name="onesuperior" unicode="&#xb9;" horiz-adv-x="698" 
d="M418 1372v-725q0 -47 16 -58t88 -16v-43q-178 10 -327 0v43q72 3 88 15t16 59v547h-143v43q82 2 138 39t77 96h47z" />
    <glyph glyph-name="ordmasculine" unicode="&#xba;" horiz-adv-x="714" 
d="M63 653h590v-78h-590v78zM358 1348q-135 0 -135 -270t135 -271q135 1 135 271t-135 270zM362 1393q115 0 185 -87q69 -88 69 -228t-72 -228t-187 -88q-113 0 -185 88t-72 226t74 228t188 89z" />
    <glyph glyph-name="guillemotright" unicode="&#xbb;" horiz-adv-x="817" 
d="M178 967l250 -478l-250 -489h-59l170 489l-170 478h59zM457 967l248 -478l-248 -489h-60l168 489l-168 478h60z" />
    <glyph glyph-name="onequarter" unicode="&#xbc;" horiz-adv-x="1497" 
d="M1194 299v420l-236 -420h236zM1192 -18v227h-348l352 614h115v-524h141v-90h-141v-227h-119zM315 0l783 1335h86l-783 -1335h-86zM418 1372v-725q0 -47 16 -58t88 -16v-43q-172 15 -327 0v43q74 3 90 15t16 59v549h-143v41q174 12 215 135h45z" />
    <glyph glyph-name="onehalf" unicode="&#xbd;" horiz-adv-x="1497" 
d="M891 0v78q201 223 285 344t84 181t-37 94t-95 34q-141 0 -167 -168h-54q10 123 54 170q66 78 179 78t178 -53q64 -54 64 -124t-34 -130t-112 -152q-78 -90 -226 -254h381l-13 -98h-487zM315 0l783 1335h86l-783 -1335h-86zM418 1372v-725q0 -47 16 -58t88 -16v-43
q-172 15 -327 0v43q74 3 90 15t16 59v549h-143v41q174 12 215 135h45z" />
    <glyph glyph-name="threequarters" unicode="&#xbe;" horiz-adv-x="1497" 
d="M1194 299v420l-236 -420h236zM1192 -18v227h-348l352 614h115v-524h141v-90h-141v-227h-119zM313 0l785 1335h86l-785 -1335h-86zM306 596q81 0 128 46t47 124q0 168 -200 168h-25v55h27q77 0 121 40q44 41 44 107t-34 102q-35 36 -97 36q-131 0 -161 -150h-52
q25 223 238 224q100 0 162 -54t63 -143q0 -121 -137 -180q172 -53 172 -205q0 -106 -77 -175t-193 -69q-238 0 -250 248h55q10 -92 49 -133t120 -41z" />
    <glyph glyph-name="questiondown" unicode="&#xbf;" horiz-adv-x="784" 
d="M436 985q49 0 85 -36t36 -86t-36 -85t-86 -35t-85 36t-35 85t36 85t85 36zM506 469q0 -111 -41 -184q-19 -35 -35 -53t-98 -103q-117 -117 -117 -208t51 -140t145 -49t160 63t78 178h56q0 -109 -36 -185t-122 -125q-86 -50 -209 -50t-207 82t-84 213q0 92 41 158
q40 66 146 150t143 150q37 67 37 166q0 23 -4 43h88q8 -63 8 -106z" />
    <glyph glyph-name="Agrave" unicode="&#xc0;" horiz-adv-x="1316" 
d="M801 1483h-103l-403 280h248zM391 459h434l-200 626zM274 101q0 -28 29 -41t107 -17v-49q-106 10 -194 10t-196 -10v49q94 6 130 32q35 26 67 113l467 1221l422 -1243q26 -70 60 -92t130 -31v-49q-142 16 -250 16t-249 -16v49q73 6 103 20t29 41t-14 70l-69 221h-479
l-68 -192q-25 -74 -25 -102z" />
    <glyph glyph-name="Aacute" unicode="&#xc1;" horiz-adv-x="1316" 
d="M571 1483l258 280h248l-403 -280h-103zM391 459h434l-200 626zM274 101q0 -28 29 -41t107 -17v-49q-106 10 -194 10t-196 -10v49q94 6 130 32q35 26 67 113l467 1221l422 -1243q26 -70 60 -92t130 -31v-49q-142 16 -250 16t-249 -16v49q73 6 103 20t29 41t-14 70l-69 221
h-479l-68 -192q-25 -74 -25 -102z" />
    <glyph glyph-name="Acircumflex" unicode="&#xc2;" horiz-adv-x="1316" 
d="M334 1485l291 276h114l291 -276h-102l-246 170l-246 -170h-102zM391 459h434l-200 626zM274 101q0 -28 29 -41t107 -17v-49q-106 10 -194 10t-196 -10v49q94 6 130 32q35 26 67 113l467 1221l422 -1243q26 -70 60 -92t130 -31v-49q-142 16 -250 16t-249 -16v49
q73 6 103 20t29 41t-14 70l-69 221h-479l-68 -192q-25 -74 -25 -102z" />
    <glyph glyph-name="Atilde" unicode="&#xc3;" horiz-adv-x="1316" 
d="M536 1739q62 -1 93 -15t96 -59t113 -45t74 24q28 24 49 82l59 -12q-18 -109 -74 -158q-56 -53 -114 -53q-58 1 -91 15t-98 59t-108 45q-82 0 -125 -100l-60 16q55 201 186 201zM391 459h434l-200 626zM274 101q0 -28 29 -41t107 -17v-49q-106 10 -194 10t-196 -10v49
q94 6 130 32q35 26 67 113l467 1221l422 -1243q26 -70 60 -92t130 -31v-49q-142 16 -250 16t-249 -16v49q73 6 103 20t29 41t-14 70l-69 221h-479l-68 -192q-25 -74 -25 -102z" />
    <glyph glyph-name="Adieresis" unicode="&#xc4;" horiz-adv-x="1316" 
d="M865 1739q48 0 82 -34t34 -82t-34 -82t-82 -34t-82 34q-33 34 -33 82t33 82q34 34 82 34zM501 1739q48 0 82 -34q33 -34 33 -82t-34 -82t-81 -34q-48 0 -82 34t-34 82t34 82t82 34zM391 459h434l-200 626zM274 101q0 -28 29 -41t107 -17v-49q-106 10 -194 10t-196 -10v49
q94 6 130 32q35 26 67 113l467 1221l422 -1243q26 -70 60 -92t130 -31v-49q-142 16 -250 16t-249 -16v49q73 6 103 20t29 41t-14 70l-69 221h-479l-68 -192q-25 -74 -25 -102z" />
    <glyph glyph-name="Aring" unicode="&#xc5;" horiz-adv-x="1316" 
d="M686 1729q-41 0 -71 -30q-29 -30 -29 -71q0 -40 30 -70t70 -30q41 0 70 30q28 30 28 70t-28 71q-29 30 -70 30zM686 1800q72 0 121 -50t49 -122t-50 -122t-121 -50t-121 50t-50 122t50 122t122 50zM391 459h434l-200 626zM274 101q0 -28 29 -41t107 -17v-49
q-106 10 -194 10t-196 -10v49q94 6 130 32q35 26 67 113l467 1221l422 -1243q26 -70 60 -92t130 -31v-49q-142 16 -250 16t-249 -16v49q73 6 103 20t29 41t-14 70l-69 221h-479l-68 -192q-25 -74 -25 -102z" />
    <glyph glyph-name="AE" unicode="&#xc6;" horiz-adv-x="1835" 
d="M965 526v781l-445 -781h445zM1139 1303v-562h293q68 0 92 33t26 135h52v-401h-52q-2 100 -29 135q-28 35 -100 35h-282v-494q-1 -72 27 -96t110 -25h143q90 0 135 22q92 45 144 245h47l-47 -330h-903v49q113 8 141 32t29 105v277h-484l-170 -305q-49 -79 7 -100
q30 -11 112 -13v-51q-162 10 -205 10t-205 -10v51q92 4 136 33q43 29 92 115l676 1173h762l36 -307h-47q-39 145 -87 194t-154 50h-295z" />
    <glyph glyph-name="Ccedilla" unicode="&#xc7;" horiz-adv-x="1228" 
d="M809 -266q0 -70 -53 -116t-130 -46t-169 33v67q63 -18 109 -18t77 26t31 69q0 45 -38 65t-124 22l76 141q-223 27 -352 217q-130 190 -130 500q0 312 150 504t399 193q188 0 322 -121l72 116h36v-401h-47q-84 340 -358 340q-188 0 -288 -165t-101 -468q0 -303 100 -465
t285 -161q156 0 249 104t103 291h74q-4 -213 -119 -345t-305 -141l-49 -94q180 -14 180 -147z" />
    <glyph glyph-name="Egrave" unicode="&#xc8;" horiz-adv-x="1112" 
d="M723 1483h-102l-404 280h248zM66 0v49q112 8 140 31t27 106v994q-1 82 -29 106t-138 31v49h890l37 -307h-47q-39 145 -87 194t-154 50h-297v-562h292q70 0 94 33t27 135h51v-401h-51q-2 100 -29 135q-28 35 -102 35h-282v-494q0 -72 28 -96t109 -25h145q121 -1 180 55
t99 212h47l-47 -330h-903z" />
    <glyph glyph-name="Eacute" unicode="&#xc9;" horiz-adv-x="1112" 
d="M432 1483l258 280h248l-403 -280h-103zM66 0v49q112 8 140 31t27 106v994q-1 82 -29 106t-138 31v49h890l37 -307h-47q-39 145 -87 194t-154 50h-297v-562h292q70 0 94 33t27 135h51v-401h-51q-2 100 -29 135q-28 35 -102 35h-282v-494q0 -72 28 -96t109 -25h145
q121 -1 180 55t99 212h47l-47 -330h-903z" />
    <glyph glyph-name="Ecircumflex" unicode="&#xca;" horiz-adv-x="1112" 
d="M213 1485l291 276h114l291 -276h-102l-246 170l-246 -170h-102zM66 0v49q112 8 140 31t27 106v994q-1 82 -29 106t-138 31v49h890l37 -307h-47q-39 145 -87 194t-154 50h-297v-562h292q70 0 94 33t27 135h51v-401h-51q-2 100 -29 135q-28 35 -102 35h-282v-494
q0 -72 28 -96t109 -25h145q121 -1 180 55t99 212h47l-47 -330h-903z" />
    <glyph glyph-name="Edieresis" unicode="&#xcb;" horiz-adv-x="1112" 
d="M749 1739q47 0 81 -34t34 -82t-34 -82t-82 -34t-81 34q-34 34 -34 82t34 82t82 34zM384 1739q48 0 82 -34t34 -82t-34 -82t-82 -34t-82 34t-34 82t34 82t82 34zM66 0v49q112 8 140 31t27 106v994q-1 82 -29 106t-138 31v49h890l37 -307h-47q-39 145 -87 194t-154 50h-297
v-562h292q70 0 94 33t27 135h51v-401h-51q-2 100 -29 135q-28 35 -102 35h-282v-494q0 -72 28 -96t109 -25h145q121 -1 180 55t99 212h47l-47 -330h-903z" />
    <glyph glyph-name="Igrave" unicode="&#xcc;" horiz-adv-x="643" 
d="M434 1483h-102l-369 280h242zM233 180v1006q1 84 -27 106t-140 31v49q170 -14 254 -14t258 14v-49q-113 -8 -142 -32t-28 -105v-1006q0 -84 28 -106t142 -31v-49q-166 16 -258 16t-254 -16v49q115 11 141 33t26 104z" />
    <glyph glyph-name="Iacute" unicode="&#xcd;" horiz-adv-x="643" 
d="M213 1483l229 280h242l-369 -280h-102zM233 180v1006q1 84 -27 106t-140 31v49q170 -14 254 -14t258 14v-49q-113 -8 -142 -32t-28 -105v-1006q0 -84 28 -106t142 -31v-49q-166 16 -258 16t-254 -16v49q115 11 141 33t26 104z" />
    <glyph glyph-name="Icircumflex" unicode="&#xce;" horiz-adv-x="643" 
d="M0 1485l264 276h115l262 -276h-100l-219 170l-220 -170h-102zM233 180v1006q1 84 -27 106t-140 31v49q170 -14 254 -14t258 14v-49q-113 -8 -142 -32t-28 -105v-1006q0 -84 28 -106t142 -31v-49q-166 16 -258 16t-254 -16v49q115 11 141 33t26 104z" />
    <glyph glyph-name="Idieresis" unicode="&#xcf;" horiz-adv-x="643" 
d="M484 1739q48 0 81 -34t33 -81t-34 -81t-81 -34t-81 34t-33 81q0 47 33 81q34 34 82 34zM159 1739q48 0 81 -34q32 -34 32 -81t-34 -81t-80 -34q-47 0 -81 34t-34 81t34 81t82 34zM233 180v1006q1 84 -27 106t-140 31v49q170 -14 254 -14t258 14v-49q-113 -8 -142 -32
t-28 -105v-1006q0 -84 28 -106t142 -31v-49q-166 16 -258 16t-254 -16v49q115 11 141 33t26 104z" />
    <glyph glyph-name="Eth" unicode="&#xd0;" horiz-adv-x="1300" 
d="M399 1303v-549h314v-76h-314v-512q0 -70 24 -88t112 -19q225 0 337 115q150 162 150 499t-133 501q-102 129 -326 129h-164zM225 678h-168v76h168v426q-1 82 -29 106t-139 31v49h502q150 0 247 -31t189 -115q93 -84 151 -228q58 -146 58 -310t-60 -312t-165 -239
q-156 -131 -422 -131h-500v49q113 8 141 31t27 106v492z" />
    <glyph glyph-name="Ntilde" unicode="&#xd1;" horiz-adv-x="1378" 
d="M542 1739q62 -1 93 -15t97 -59t112 -45q47 0 75 24t48 82l59 -12q-18 -109 -74 -158q-56 -53 -114 -53q-58 1 -90 15t-98 59t-109 45q-82 0 -125 -100l-60 16q55 201 186 201zM1149 -41h-31q-53 82 -213 326l-602 909v-1014q0 -82 28 -104t142 -33v-49q-143 10 -210 10
t-197 -10v49q114 10 142 33t28 104v1082q-45 53 -173 61v49q109 -6 171 -6t151 6l694 -1038v852q1 82 -27 104t-141 33v49q133 -10 208 -10t198 10v-49q-113 -10 -141 -33t-27 -104v-1227z" />
    <glyph glyph-name="Ograve" unicode="&#xd2;" horiz-adv-x="1294" 
d="M788 1483h-102l-403 280h247zM649 1335q-174 0 -270 -170t-96 -477t97 -481t270 -174t268 170q94 170 94 481t-94 481q-95 170 -269 170zM648 1393q252 0 400 -194t148 -516t-150 -515t-399 -193t-399 194t-150 515t150 515t400 194z" />
    <glyph glyph-name="Oacute" unicode="&#xd3;" horiz-adv-x="1294" 
d="M524 1483l258 280h248l-403 -280h-103zM649 1335q-174 0 -270 -170t-96 -477t97 -481t270 -174t268 170q94 170 94 481t-94 481q-95 170 -269 170zM648 1393q252 0 400 -194t148 -516t-150 -515t-399 -193t-399 194t-150 515t150 515t400 194z" />
    <glyph glyph-name="Ocircumflex" unicode="&#xd4;" horiz-adv-x="1294" 
d="M299 1485l291 276h115l290 -276h-102l-246 170l-246 -170h-102zM649 1335q-174 0 -270 -170t-96 -477t97 -481t270 -174t268 170q94 170 94 481t-94 481q-95 170 -269 170zM648 1393q252 0 400 -194t148 -516t-150 -515t-399 -193t-399 194t-150 515t150 515t400 194z
" />
    <glyph glyph-name="Otilde" unicode="&#xd5;" horiz-adv-x="1294" 
d="M510 1739q62 -1 94 -15q30 -14 96 -59t113 -45t75 24t48 82l59 -12q-18 -109 -73 -160q-56 -51 -114 -51q-58 1 -91 15t-99 59t-108 45q-82 0 -125 -100l-59 16q54 201 184 201zM649 1335q-174 0 -270 -170t-96 -477t97 -481t270 -174t268 170q94 170 94 481t-94 481
q-95 170 -269 170zM648 1393q252 0 400 -194t148 -516t-150 -515t-399 -193t-399 194t-150 515t150 515t400 194z" />
    <glyph glyph-name="Odieresis" unicode="&#xd6;" horiz-adv-x="1294" 
d="M828 1739q48 0 82 -34t34 -82t-34 -82t-82 -34t-82 34t-34 82t34 82t82 34zM464 1739q48 0 82 -34t34 -82t-34 -82t-82 -34t-82 34t-34 82t34 82t82 34zM649 1335q-174 0 -270 -170t-96 -477t97 -481t270 -174t268 170q94 170 94 481t-94 481q-95 170 -269 170zM648 1393
q252 0 400 -194t148 -516t-150 -515t-399 -193t-399 194t-150 515t150 515t400 194z" />
    <glyph glyph-name="multiply" unicode="&#xd7;" 
d="M152 987l88 88l299 -299l295 295l84 -82l-295 -297l297 -297l-89 -90l-299 299l-294 -295l-82 84l295 295z" />
    <glyph glyph-name="Oslash" unicode="&#xd8;" horiz-adv-x="1294" 
d="M643 33q178 0 278 181q99 181 99 507q0 176 -41 319l-633 -794q94 -213 297 -213zM664 1335q-188 0 -288 -181q-101 -181 -102 -501q0 -175 43 -327l635 794q-100 215 -288 215zM1196 700q0 -328 -150 -526t-393 -199q-244 0 -395 170l-119 -145h-94l170 207
q-117 195 -117 463q0 326 152 524t394 199q242 0 394 -174l123 147h92l-170 -209q113 -186 113 -457z" />
    <glyph glyph-name="Ugrave" unicode="&#xd9;" horiz-adv-x="1361" 
d="M872 1483h-102l-403 280h247zM1137 1186v-750q0 -186 -70 -286q-123 -172 -373 -172t-377 139q-96 104 -96 303v766q1 84 -27 106t-141 31v49q170 -14 255 -14t257 14v-49q-113 -8 -141 -32t-29 -105v-783q1 -96 15 -147t51 -92q86 -96 258 -96q215 0 301 135
q47 76 47 223v760q0 84 -28 106t-140 31v49q133 -10 208 -10t198 10v-49q-113 -9 -141 -31t-27 -106z" />
    <glyph glyph-name="Uacute" unicode="&#xda;" horiz-adv-x="1361" 
d="M602 1483l258 280h248l-403 -280h-103zM1137 1186v-750q0 -186 -70 -286q-123 -172 -373 -172t-377 139q-96 104 -96 303v766q1 84 -27 106t-141 31v49q170 -14 255 -14t257 14v-49q-113 -8 -141 -32t-29 -105v-783q1 -96 15 -147t51 -92q86 -96 258 -96q215 0 301 135
q47 76 47 223v760q0 84 -28 106t-140 31v49q133 -10 208 -10t198 10v-49q-113 -9 -141 -31t-27 -106z" />
    <glyph glyph-name="Ucircumflex" unicode="&#xdb;" horiz-adv-x="1361" 
d="M383 1485l291 276h114l291 -276h-102l-246 170l-246 -170h-102zM1137 1186v-750q0 -186 -70 -286q-123 -172 -373 -172t-377 139q-96 104 -96 303v766q1 84 -27 106t-141 31v49q170 -14 255 -14t257 14v-49q-113 -8 -141 -32t-29 -105v-783q1 -96 15 -147t51 -92
q86 -96 258 -96q215 0 301 135q47 76 47 223v760q0 84 -28 106t-140 31v49q133 -10 208 -10t198 10v-49q-113 -9 -141 -31t-27 -106z" />
    <glyph glyph-name="Udieresis" unicode="&#xdc;" horiz-adv-x="1361" 
d="M912 1739q48 0 82 -34t34 -82t-34 -82t-82 -34t-82 34t-34 82t34 82t82 34zM548 1739q48 0 82 -34t34 -82t-34 -82t-82 -34t-82 34t-34 82t34 82t82 34zM1137 1186v-750q0 -186 -70 -286q-123 -172 -373 -172t-377 139q-96 104 -96 303v766q1 84 -27 106t-141 31v49
q170 -14 255 -14t257 14v-49q-113 -8 -141 -32t-29 -105v-783q1 -96 15 -147t51 -92q86 -96 258 -96q215 0 301 135q47 76 47 223v760q0 84 -28 106t-140 31v49q133 -10 208 -10t198 10v-49q-113 -9 -141 -31t-27 -106z" />
    <glyph glyph-name="Yacute" unicode="&#xdd;" horiz-adv-x="1212" 
d="M530 1483l258 280h248l-403 -280h-103zM279 1358q102 0 251 14v-49q-84 -6 -114 -18q-30 -11 -29 -35q0 -24 21 -66l262 -520l260 522q20 39 20 64t-28 36q-29 11 -111 17v49q106 -10 188 -10t191 10v-49q-86 -8 -120 -30t-66 -81l-308 -616v-416q0 -84 27 -106t141 -31
v-49q-164 16 -255 16t-257 -16v49q115 10 143 33t27 104v416l-303 604q-35 70 -71 92t-121 31v49q150 -14 252 -14z" />
    <glyph glyph-name="Thorn" unicode="&#xde;" horiz-adv-x="1116" 
d="M408 463h163q143 0 213 61q100 82 100 244t-71 240q-72 78 -229 77h-176v-622zM408 399v-219q0 -84 28 -106t142 -31v-49q-166 16 -257 16t-255 -16v49q116 10 142 33t25 104v1006q1 84 -27 106t-140 31v49q170 -14 254 -14t258 14v-49q-113 -8 -142 -32t-28 -105v-37
h196q201 0 305 -74q70 -49 110 -131t40 -174q0 -188 -152 -295q-104 -76 -282 -76h-217z" />
    <glyph glyph-name="germandbls" unicode="&#xdf;" horiz-adv-x="1054" 
d="M543 1319q-187 0 -187 -260v-1063q-96 6 -149 6t-162 -8v41q94 4 121 24t27 86v834q0 166 67 260q100 139 289 139q143 0 237 -89t94 -209t-52 -191q-52 -70 -173 -125q319 -84 320 -395q0 -162 -93 -273t-229 -110q-90 0 -178 63v57q68 -35 119 -34q96 0 155 79
q58 79 58 229t-94 243q-95 92 -275 100v63q145 4 213 72t68 209q0 252 -176 252z" />
    <glyph glyph-name="agrave" unicode="&#xe0;" horiz-adv-x="954" 
d="M588 1128h-92l-336 302h227zM616 549q-370 -66 -370 -278q0 -103 45 -152t138 -49t140 72t47 231v176zM784 -14q-124 0 -143 174q-55 -98 -117 -138t-172 -40q-112 0 -192 74t-80 190q0 184 233 280q135 55 303 76v123q0 106 -38 155q-38 50 -124 50q-84 0 -130 -34
t-48 -87v-16q2 -14 3 -33q0 -88 -84 -88q-68 0 -68 69q0 98 100 171t236 73q86 0 160 -33q73 -32 115 -94t42 -211v-418q0 -104 18 -143t62 -39q14 0 51 6v-53q-66 -14 -127 -14z" />
    <glyph glyph-name="aacute" unicode="&#xe1;" horiz-adv-x="954" 
d="M360 1128l201 302h227l-335 -302h-93zM616 549q-370 -66 -370 -278q0 -103 45 -152t138 -49t140 72t47 231v176zM784 -14q-124 0 -143 174q-55 -98 -117 -138t-172 -40q-112 0 -192 74t-80 190q0 184 233 280q135 55 303 76v123q0 106 -38 155q-38 50 -124 50
q-84 0 -130 -34t-48 -87v-16q2 -14 3 -33q0 -88 -84 -88q-68 0 -68 69q0 98 100 171t236 73q86 0 160 -33q73 -32 115 -94t42 -211v-418q0 -104 18 -143t62 -39q14 0 51 6v-53q-66 -14 -127 -14z" />
    <glyph glyph-name="acircumflex" unicode="&#xe2;" horiz-adv-x="954" 
d="M152 1130l268 300h100l268 -300h-98l-221 177l-219 -177h-98zM616 549q-370 -66 -370 -278q0 -103 45 -152t138 -49t140 72t47 231v176zM784 -14q-124 0 -143 174q-55 -98 -117 -138t-172 -40q-112 0 -192 74t-80 190q0 184 233 280q135 55 303 76v123q0 106 -38 155
q-38 50 -124 50q-84 0 -130 -34t-48 -87v-16q2 -14 3 -33q0 -88 -84 -88q-68 0 -68 69q0 98 100 171t236 73q86 0 160 -33q73 -32 115 -94t42 -211v-418q0 -104 18 -143t62 -39q14 0 51 6v-53q-66 -14 -127 -14z" />
    <glyph glyph-name="atilde" unicode="&#xe3;" horiz-adv-x="954" 
d="M348 1399q57 -1 88 -15q32 -14 94 -59t106 -45t69 24t47 82l57 -12q-20 -111 -72 -157q-53 -53 -109 -53t-86 14q-32 14 -92 59t-104 45q-76 0 -117 -100l-57 16q33 113 76 157t100 44zM616 549q-370 -66 -370 -278q0 -103 45 -152t138 -49t140 72t47 231v176zM784 -14
q-124 0 -143 174q-55 -98 -117 -138t-172 -40q-112 0 -192 74t-80 190q0 184 233 280q135 55 303 76v123q0 106 -38 155q-38 50 -124 50q-84 0 -130 -34t-48 -87v-16q2 -14 3 -33q0 -88 -84 -88q-68 0 -68 69q0 98 100 171t236 73q86 0 160 -33q73 -32 115 -94t42 -211v-418
q0 -104 18 -143t62 -39q14 0 51 6v-53q-66 -14 -127 -14z" />
    <glyph glyph-name="adieresis" unicode="&#xe4;" horiz-adv-x="954" 
d="M651 1378q45 0 77 -32t32 -76q0 -45 -32 -78t-77 -33t-78 32t-33 78t33 78q33 31 78 31zM279 1378q45 0 77 -32t31 -76q0 -45 -32 -78q-33 -33 -77 -33t-77 32t-33 78q0 45 33 77t78 32zM616 549q-370 -66 -370 -278q0 -103 45 -152t138 -49t140 72t47 231v176zM784 -14
q-124 0 -143 174q-55 -98 -117 -138t-172 -40q-112 0 -192 74t-80 190q0 184 233 280q135 55 303 76v123q0 106 -38 155q-38 50 -124 50q-84 0 -130 -34t-48 -87v-16q2 -14 3 -33q0 -88 -84 -88q-68 0 -68 69q0 98 100 171t236 73q86 0 160 -33q73 -32 115 -94t42 -211v-418
q0 -104 18 -143t62 -39q14 0 51 6v-53q-66 -14 -127 -14z" />
    <glyph glyph-name="aring" unicode="&#xe5;" horiz-adv-x="954" 
d="M471 1393q-41 0 -71 -29t-30 -70q0 -40 30 -70t71 -30t70 30t29 70t-29 70q-29 29 -70 29zM471 1464q72 0 121 -50t49 -120t-50 -120t-120 -52q-70 0 -121 50t-51 121t50 121t122 50zM616 549q-370 -66 -370 -278q0 -103 45 -152t138 -49t140 72t47 231v176zM784 -14
q-124 0 -143 174q-55 -98 -117 -138t-172 -40q-112 0 -192 74t-80 190q0 184 233 280q135 55 303 76v123q0 106 -38 155q-38 50 -124 50q-84 0 -130 -34t-48 -87v-16q2 -14 3 -33q0 -88 -84 -88q-68 0 -68 69q0 98 100 171t236 73q86 0 160 -33q73 -32 115 -94t42 -211v-418
q0 -104 18 -143t62 -39q14 0 51 6v-53q-66 -14 -127 -14z" />
    <glyph glyph-name="ae" unicode="&#xe6;" horiz-adv-x="1472" 
d="M1012 932q-203 0 -232 -352h445q-10 352 -213 352zM246 268q0 -196 185 -196t185 301v139q-202 -29 -286 -87q-84 -59 -84 -157zM1020 -18q-248 0 -361 229q-78 -229 -292 -229q-125 0 -206 72t-81 188q0 141 131 223t405 110v150q0 106 -39 156q-41 49 -121 49t-130 -33
t-52 -78q0 -12 2 -20l3 -39q0 -88 -84 -88q-68 0 -68 69q0 98 99 171t233 73q188 0 272 -123q117 123 285 123q90 0 171 -42t122 -112q74 -121 82 -329h-613q0 -197 39 -293q63 -160 232 -160q106 1 174 69t88 197h82q-19 -157 -117 -245t-256 -88z" />
    <glyph glyph-name="ccedilla" unicode="&#xe7;" horiz-adv-x="892" 
d="M500 45q190 0 227 270h82q-14 -145 -87 -232t-192 -101l-53 -103q174 -14 174 -137q0 -70 -52 -112t-131 -42t-159 33v62q68 -19 111 -19t72 24t28 64q0 86 -155 88l75 140q-170 26 -263 156t-93 350t113 362t292 143q117 0 209 -86l54 105h36v-338h-45q-54 264 -237 264
q-117 0 -180 -120t-64 -339q0 -432 238 -432z" />
    <glyph glyph-name="egrave" unicode="&#xe8;" horiz-adv-x="937" 
d="M602 1128h-92l-336 302h227zM480 934q-198 0 -228 -354h440q-14 354 -212 354zM494 -20q-188 0 -300 136t-112 365t111 367t287 139q176 0 274 -126t102 -355h-608q6 -203 39 -293q66 -166 231 -166q110 1 176 69t84 199h80q-18 -159 -114 -247t-250 -88z" />
    <glyph glyph-name="eacute" unicode="&#xe9;" horiz-adv-x="937" 
d="M381 1128l201 302h227l-336 -302h-92zM480 934q-198 0 -228 -354h440q-14 354 -212 354zM494 -20q-188 0 -300 136t-112 365t111 367t287 139q176 0 274 -126t102 -355h-608q6 -203 39 -293q66 -166 231 -166q110 1 176 69t84 199h80q-18 -159 -114 -247t-250 -88z" />
    <glyph glyph-name="ecircumflex" unicode="&#xea;" horiz-adv-x="937" 
d="M166 1130l268 300h101l268 -300h-98l-222 177l-219 -177h-98zM480 934q-198 0 -228 -354h440q-14 354 -212 354zM494 -20q-188 0 -300 136t-112 365t111 367t287 139q176 0 274 -126t102 -355h-608q6 -203 39 -293q66 -166 231 -166q110 1 176 69t84 199h80
q-18 -159 -114 -247t-250 -88z" />
    <glyph glyph-name="edieresis" unicode="&#xeb;" horiz-adv-x="937" 
d="M672 1378q45 0 77 -32q31 -32 31 -76q0 -45 -32 -78t-76 -33q-45 0 -78 32t-33 78q0 45 33 77t78 32zM299 1378q45 0 77 -32t32 -76q0 -45 -32 -78t-77 -33t-78 32t-33 78q0 45 33 77t78 32zM480 934q-198 0 -228 -354h440q-14 354 -212 354zM494 -20q-188 0 -300 136
t-112 365t111 367t287 139q176 0 274 -126t102 -355h-608q6 -203 39 -293q66 -166 231 -166q110 1 176 69t84 199h80q-18 -159 -114 -247t-250 -88z" />
    <glyph glyph-name="igrave" unicode="&#xec;" horiz-adv-x="571" 
d="M375 1128h-90l-324 302h227zM371 145q1 -66 27 -86t120 -24v-41q-131 12 -229 12t-230 -12v41q94 4 121 24t27 86v648q0 80 -24 99t-122 21v35q148 12 310 53v-856z" />
    <glyph glyph-name="iacute" unicode="&#xed;" horiz-adv-x="571" 
d="M176 1128l189 302h225l-322 -302h-92zM373 145q1 -66 27 -86t120 -24v-41q-131 12 -229 12t-230 -12v41q94 4 121 24t27 86v648q0 80 -24 99t-122 21v35q148 12 310 53v-856z" />
    <glyph glyph-name="icircumflex" unicode="&#xee;" horiz-adv-x="571" 
d="M-6 1130l229 302h96l230 -302h-90l-189 177l-186 -177h-90zM371 145q1 -66 27 -86t120 -24v-41q-131 12 -229 12t-230 -12v41q94 4 121 24t27 86v648q0 80 -24 99t-122 21v35q148 12 310 53v-856z" />
    <glyph glyph-name="idieresis" unicode="&#xef;" horiz-adv-x="571" 
d="M421 1403q44 0 75 -32q30 -32 30 -76q0 -45 -30 -75t-76 -30q-45 0 -76 31t-31 75t32 76q32 31 76 31zM122 1403q44 0 75 -32t31 -76q0 -45 -32 -75q-30 -30 -75 -30t-76 31t-31 75t32 76q32 31 76 31zM371 145q1 -66 27 -86t120 -24v-41q-131 12 -229 12t-230 -12v41
q94 4 121 24t27 86v648q0 80 -24 99t-122 21v35q148 12 310 53v-856z" />
    <glyph glyph-name="eth" unicode="&#xf0;" horiz-adv-x="960" 
d="M477 932q-223 0 -223 -420q0 -477 231 -477q221 0 222 416q-1 481 -230 481zM879 475q0 -219 -111 -356t-286 -137q-176 0 -288 142t-112 362t113 360t288 139q18 0 62 -6l-107 164l-153 -94l-37 57l151 96l-94 148l49 32l111 -137l160 101l37 -60l-150 -96l168 -213
q113 -139 156 -249t43 -253z" />
    <glyph glyph-name="ntilde" unicode="&#xf1;" horiz-adv-x="1122" 
d="M434 1399q58 -1 88 -15t94 -59q62 -45 106 -45t69 24t47 82l57 -12q-20 -111 -72 -157q-53 -53 -109 -53t-86 14q-32 14 -92 59t-104 45q-76 0 -117 -100l-57 16q33 113 76 157q42 44 100 44zM63 905v37q180 27 271 62q16 -53 22 -179q109 160 279 160t252 -133
q45 -72 45 -215v-492q0 -66 26 -86t121 -24v-41q-123 12 -224 12t-222 -12v41q83 4 109 24t26 82v502q0 127 -33 178q-47 72 -155 72t-168 -88q-39 -53 -39 -170v-494q0 -61 26 -82q27 -20 107 -24v-41q-121 12 -221 12t-224 -12v41q94 4 121 24t27 86v633q1 88 -17 106
t-102 21h-27z" />
    <glyph glyph-name="ograve" unicode="&#xf2;" horiz-adv-x="960" 
d="M633 1128h-92l-336 302h227zM485 938q-231 0 -231 -454t225 -453q229 -1 229 453t-223 454zM82 482q0 224 114 366t291 143q178 0 286 -141q108 -140 108 -364t-113 -366t-288 -142q-174 0 -286 140t-112 364z" />
    <glyph glyph-name="oacute" unicode="&#xf3;" horiz-adv-x="960" 
d="M391 1128l201 302h227l-336 -302h-92zM485 938q-231 0 -231 -454t225 -453q229 -1 229 453t-223 454zM82 482q0 224 114 366t291 143q178 0 286 -141q108 -140 108 -364t-113 -366t-288 -142q-174 0 -286 140t-112 364z" />
    <glyph glyph-name="ocircumflex" unicode="&#xf4;" horiz-adv-x="960" 
d="M162 1130l268 300h100l269 -300h-99l-221 177l-219 -177h-98zM485 938q-231 0 -231 -454t225 -453q229 -1 229 453t-223 454zM82 482q0 224 114 366t291 143q178 0 286 -141q108 -140 108 -364t-113 -366t-288 -142q-174 0 -286 140t-112 364z" />
    <glyph glyph-name="otilde" unicode="&#xf5;" horiz-adv-x="960" 
d="M352 1399q58 -1 88 -15t94 -59q62 -45 106 -45t69 24t47 82l57 -12q-20 -111 -72 -157q-53 -53 -109 -53t-86 14q-32 14 -92 59t-104 45q-76 0 -117 -100l-57 16q33 113 76 157q42 44 100 44zM485 938q-231 0 -231 -454t225 -453q229 -1 229 453t-223 454zM82 482
q0 224 114 366t291 143q178 0 286 -141q108 -140 108 -364t-113 -366t-288 -142q-174 0 -286 140t-112 364z" />
    <glyph glyph-name="odieresis" unicode="&#xf6;" horiz-adv-x="960" 
d="M559 1269q0 45 32 77t78 32q45 0 77 -32t32 -76q0 -45 -32 -78t-76 -33t-78 32q-33 32 -33 78zM186 1269q0 45 32 77t78 32t78 -32t32 -76q0 -45 -32 -78t-77 -33t-78 32t-33 78zM485 938q-231 0 -231 -454t225 -453q229 -1 229 453t-223 454zM82 482q0 224 114 366
t291 143q178 0 286 -141q108 -140 108 -364t-113 -366t-288 -142q-174 0 -286 140t-112 364z" />
    <glyph glyph-name="divide" unicode="&#xf7;" 
d="M430 973q0 45 32 75t76 31q44 -1 74 -31t31 -75q0 -45 -31 -76q-32 -31 -76 -31t-75 31t-31 76zM430 410q0 46 32 76t76 30t74 -31t31 -75q0 -44 -31 -76q-32 -31 -76 -31t-75 31t-31 76zM111 631v119h852v-119h-852z" />
    <glyph glyph-name="oslash" unicode="&#xf8;" horiz-adv-x="960" 
d="M494 926q-124 0 -187 -123t-63 -346q-1 -101 22 -191l404 525q-52 135 -176 135zM481 41q109 0 171 118t62 291t-24 259l-403 -523q27 -66 79 -106t115 -39zM82 490q0 204 115 350t281 145q166 0 270 -106l75 94h84l-116 -148q86 -141 86 -347t-114 -350
q-114 -146 -280 -146t-274 114l-84 -102h-84l125 158q-84 134 -84 338z" />
    <glyph glyph-name="ugrave" unicode="&#xf9;" horiz-adv-x="1101" 
d="M674 1128h-92l-336 302h227zM342 319q0 -131 43 -187t141 -56q211 0 211 272v445q0 80 -23 99q-24 19 -122 21v35q162 12 309 53v-831q0 -70 23 -84t129 -16v-37q-160 -14 -283 -53q-10 90 -12 186q-51 -96 -117 -139t-162 -43q-170 0 -252 120q-49 70 -49 218v471
q0 80 -23 99q-24 19 -122 21v35q159 12 309 53v-682z" />
    <glyph glyph-name="uacute" unicode="&#xfa;" horiz-adv-x="1101" 
d="M426 1128l201 302h227l-336 -302h-92zM342 319q0 -131 43 -187t141 -56q211 0 211 272v445q0 80 -23 99q-24 19 -122 21v35q162 12 309 53v-831q0 -70 23 -84t129 -16v-37q-160 -14 -283 -53q-10 90 -12 186q-51 -96 -117 -139t-162 -43q-170 0 -252 120q-49 70 -49 218
v471q0 80 -23 99q-24 19 -122 21v35q159 12 309 53v-682z" />
    <glyph glyph-name="ucircumflex" unicode="&#xfb;" horiz-adv-x="1101" 
d="M223 1130l269 300h100l268 -300h-98l-221 177l-219 -177h-99zM342 319q0 -131 43 -187t141 -56q211 0 211 272v445q0 80 -23 99q-24 19 -122 21v35q162 12 309 53v-831q0 -70 23 -84t129 -16v-37q-160 -14 -283 -53q-10 90 -12 186q-51 -96 -117 -139t-162 -43
q-170 0 -252 120q-49 70 -49 218v471q0 80 -23 99q-24 19 -122 21v35q159 12 309 53v-682z" />
    <glyph glyph-name="udieresis" unicode="&#xfc;" horiz-adv-x="1101" 
d="M729 1378q45 0 77 -32t32 -76q0 -45 -32 -78t-77 -33t-78 32t-33 78q0 45 33 77t78 32zM356 1378q45 0 77 -32t32 -76q0 -45 -32 -78t-77 -33q-46 0 -78 32t-32 78q0 45 32 77t78 32zM342 319q0 -131 43 -187t141 -56q211 0 211 272v445q0 80 -23 99q-24 19 -122 21v35
q162 12 309 53v-831q0 -70 23 -84t129 -16v-37q-160 -14 -283 -53q-10 90 -12 186q-51 -96 -117 -139t-162 -43q-170 0 -252 120q-49 70 -49 218v471q0 80 -23 99q-24 19 -122 21v35q159 12 309 53v-682z" />
    <glyph glyph-name="yacute" unicode="&#xfd;" horiz-adv-x="1021" 
d="M434 1128l201 302h227l-336 -302h-92zM229 963q94 0 209 10v-41q-106 -6 -106 -38q0 -16 14 -60l215 -592l225 585q16 43 17 58q0 45 -117 47v41q82 -8 152 -8t176 8v-41q-70 -8 -104 -30t-52 -71l-387 -1001q-88 -231 -297 -231q-14 0 -29 2v102h21q92 0 150 42t98 136
l63 152l-301 803q-20 55 -50 73t-106 23v41q115 -10 209 -10z" />
    <glyph glyph-name="thorn" unicode="&#xfe;" horiz-adv-x="1067" 
d="M582 928q-227 0 -228 -428q0 -461 236 -461q225 1 225 445t-233 444zM608 985q162 0 271 -141q109 -142 109 -362t-106 -360q-105 -140 -274 -140q-84 0 -139 34t-113 125v-399q0 -68 26 -87t120 -24v-41q-236 21 -457 0v41q94 3 121 23t27 88v1438q0 78 -25 98t-121 20
v37q153 11 309 54v-547q90 143 252 143z" />
    <glyph glyph-name="ydieresis" unicode="&#xff;" horiz-adv-x="1021" 
d="M729 1378q45 0 77 -32t32 -76q0 -45 -32 -78t-77 -33t-78 32t-33 78q0 45 33 77t78 32zM356 1378q45 0 77 -32t32 -76q0 -45 -32 -78t-77 -33q-46 0 -78 32t-32 78q0 45 32 77t78 32zM229 963q94 0 209 10v-41q-106 -6 -106 -38q0 -16 14 -60l215 -592l225 585
q16 43 17 58q0 45 -117 47v41q82 -8 152 -8t176 8v-41q-70 -8 -104 -30t-52 -71l-387 -1001q-88 -231 -297 -231q-14 0 -29 2v102h21q92 0 150 42t98 136l63 152l-301 803q-20 55 -50 73t-106 23v41q115 -10 209 -10z" />
    <glyph glyph-name="dotlessi" unicode="&#x131;" horiz-adv-x="571" 
d="M373 145q1 -66 27 -86t120 -24v-41q-133 12 -229 12t-230 -12v41q94 4 121 24t27 86v648q0 80 -24 99t-122 21v35q163 12 310 53v-856z" />
    <glyph glyph-name="Lslash" unicode="&#x141;" horiz-adv-x="1034" 
d="M233 1186q1 84 -27 106t-140 31v49q170 -14 254 -14t258 14v-49q-113 -8 -142 -32t-28 -105v-414l288 168v-86l-288 -168v-496q0 -72 28 -96t109 -24h145q121 0 179 54t100 206h47l-47 -330h-903v49q112 8 140 31t27 106v420l-167 -102v86l167 102v494z" />
    <glyph glyph-name="lslash" unicode="&#x142;" horiz-adv-x="559" 
d="M369 145q1 -66 27 -86t120 -24v-41q-131 12 -231 12t-228 -12v41q94 4 121 24t27 86v500l-148 -86v86l148 86v449q0 78 -25 98t-121 20v37q173 17 310 54v-580l145 88v-86l-145 -88v-578z" />
    <glyph glyph-name="OE" unicode="&#x152;" horiz-adv-x="1882" 
d="M649 1331q-176 0 -272 -168t-96 -478t97 -480t271 -170t270 169q95 169 95 479t-94 479q-95 169 -271 169zM1014 1366h721l37 -307h-48q-37 145 -86 194t-155 50h-314v-562h312q67 0 91 33t27 135h52v-401h-52q-4 102 -30 136q-27 34 -101 34h-299v-494q0 -72 30 -96
t120 -25h149q122 -1 180 55t99 212h47l-47 -330h-733v207q-129 -229 -374 -229t-393 195q-149 196 -149 512t148 510q148 193 392 193q245 0 376 -229v207z" />
    <glyph glyph-name="oe" unicode="&#x153;" horiz-adv-x="1564" 
d="M1102 938q-156 0 -207 -209q-15 -47 -27 -168h451q-14 377 -217 377zM485 932q-231 0 -231 -448t227 -449q227 1 227 449t-223 448zM1120 -18q-203 0 -334 170q-125 -170 -304 -170q-180 0 -290 139t-110 361t114 362t292 141q178 0 300 -168q121 168 318 168
q123 1 212 -65t126 -172t39 -265h-615q2 -176 39 -270q66 -164 232 -164q223 0 264 266h82q-21 -157 -117 -245t-248 -88z" />
    <glyph glyph-name="Scaron" unicode="&#x160;" horiz-adv-x="1062" 
d="M885 1757l-291 -276h-115l-291 276h103l246 -170l245 170h103zM848 1016q-68 307 -296 307q-114 0 -188 -72q-74 -71 -75 -183q0 -112 117 -183q58 -35 214 -114t218 -128q125 -94 125 -269t-114 -284q-114 -108 -297 -108t-323 118l-73 -131h-37v445h47
q61 -369 362 -369q125 0 204 76q79 77 79 197t-92 190q-43 32 -237 132t-255 159q-86 87 -86 237t109 249q108 99 274 99t275 -106l61 115h37v-377h-49z" />
    <glyph glyph-name="scaron" unicode="&#x161;" horiz-adv-x="872" 
d="M754 1421l-269 -297h-100l-268 297h98l219 -176l221 176h99zM154 317q48 -274 275 -274q81 0 141 53q60 54 60 116t-25 96q-26 34 -89 67l-197 92q-113 51 -155 103t-41 158q0 106 85 182t208 75q123 0 223 -65l35 84h35v-318h-45q-27 242 -215 242q-81 0 -137 -48
t-56 -108t26 -93t62 -51t184 -84q146 -66 193 -121q47 -56 47 -147q0 -130 -92 -212t-230 -82t-253 84l-50 -91h-34v342h45z" />
    <glyph glyph-name="Ydieresis" unicode="&#x178;" horiz-adv-x="1212" 
d="M835 1739q47 0 81 -34t34 -82t-34 -82t-82 -34t-81 34q-34 34 -34 82t34 82t82 34zM470 1739q48 0 82 -34t34 -82t-34 -82t-82 -34t-82 34t-34 82t34 82t82 34zM279 1358q102 0 251 14v-49q-84 -6 -114 -18q-30 -11 -29 -35q0 -24 21 -66l262 -520l260 522q20 39 20 64
t-28 36q-29 11 -111 17v49q106 -10 188 -10t191 10v-49q-86 -8 -120 -30t-66 -81l-308 -616v-416q0 -84 27 -106t141 -31v-49q-164 16 -255 16t-257 -16v49q115 10 143 33t27 104v416l-303 604q-35 70 -71 92t-121 31v49q150 -14 252 -14z" />
    <glyph glyph-name="Zcaron" unicode="&#x17d;" horiz-adv-x="1101" 
d="M965 1759l-291 -276h-115l-291 276h103l245 -170l246 170h103zM461 1303q-115 1 -171 -51t-93 -189h-52l54 303h833l-739 -1303h387q96 1 140 19q91 38 167 250h49l-59 -332h-914l740 1303h-342z" />
    <glyph glyph-name="zcaron" unicode="&#x17e;" horiz-adv-x="915" 
d="M397 913q-100 1 -142 -37t-95 -176h-43l47 267h680l-557 -914h239q80 -1 118 19t77 80q37 66 63 143h43l-53 -295h-704l555 913h-228zM819 1425l-270 -311h-96l-271 311h99l221 -176l219 176h98z" />
    <glyph glyph-name="florin" unicode="&#x192;" 
d="M387 956q81 0 103 20t50 147q28 128 68 188q82 139 264 139q84 0 136 -41t53 -109q0 -94 -78 -94q-33 0 -55 16t-21 40q0 22 8 46t9 35q0 43 -56 43q-121 0 -157 -200l-39 -219h211l-2 -76h-222l-116 -658q-51 -279 -117 -370q-90 -123 -238 -123q-90 0 -148 45t-58 115
q0 40 24 66t57 26q34 0 53 -16t19 -44l-16 -79q-1 -48 65 -49q66 -2 104 62t64 218l144 807h-144l4 65h31z" />
    <glyph glyph-name="circumflex" unicode="&#x2c6;" horiz-adv-x="1024" 
d="M195 1130l268 300h100l268 -300h-98l-221 177l-219 -177h-98z" />
    <glyph glyph-name="caron" unicode="&#x2c7;" horiz-adv-x="1024" 
d="M831 1425l-268 -297h-100l-268 297h98l219 -176l221 176h98z" />
    <glyph glyph-name="breve" unicode="&#x2d8;" horiz-adv-x="1024" 
d="M511 1259q147 0 208 168h69q-14 -137 -88 -216t-188 -79t-188 80q-74 78 -91 215h70q61 -168 208 -168z" />
    <glyph glyph-name="dotaccent" unicode="&#x2d9;" horiz-adv-x="1024" 
d="M395 1270q0 48 35 82t83 34t83 -34t35 -83q0 -48 -35 -83t-83 -35t-83 35t-35 84z" />
    <glyph glyph-name="ring" unicode="&#x2da;" horiz-adv-x="1024" 
d="M512 1393q-41 0 -71 -29q-29 -29 -29 -70q0 -40 30 -70t70 -30q41 0 70 30q28 30 28 70t-28 70q-29 29 -70 29zM512 1464q72 0 121 -50t49 -120t-50 -120t-120 -52q-70 0 -121 50t-51 121t50 121t122 50z" />
    <glyph glyph-name="ogonek" unicode="&#x2db;" horiz-adv-x="1024" 
d="M512 -156q0 -42 31 -66t70 -24t77 10v-63q-68 -25 -136 -25t-122 43q-53 43 -53 109q0 127 248 195l61 -15q-176 -70 -176 -164z" />
    <glyph glyph-name="tilde" unicode="&#x2dc;" horiz-adv-x="1024" 
d="M370 1399q58 -1 89 -15t93 -59t106 -45t69 24t47 82l57 -12q-20 -111 -71 -157q-52 -53 -108 -53t-88 14t-92 59t-103 45q-76 0 -117 -100l-57 16q33 113 75 157t100 44z" />
    <glyph glyph-name="hungarumlaut" unicode="&#x2dd;" horiz-adv-x="1024" 
d="M621 1128l176 302h176l-271 -302h-81zM338 1128l174 302h176l-268 -302h-82z" />
    <glyph glyph-name="Delta" unicode="&#x394;" horiz-adv-x="1366" 
d="M182 164q0 -36 22 -52q22 -15 72 -16h863l-496 1127l-430 -957q-31 -66 -31 -102zM715 1399l631 -1399h-1326l629 1399h66z" />
    <glyph glyph-name="Omega" unicode="&#x3a9;" horiz-adv-x="1366" 
d="M766 0v82q111 53 169 97t114 112q147 188 147 440t-147 436q-137 166 -367 166q-274 0 -414 -239q-98 -168 -98 -339q0 -336 219 -540q72 -68 211 -133v-82h-561l-78 236h37q31 -88 84 -118t176 -32l219 -4v10q-103 41 -161 77t-117 95q-199 199 -199 467q0 141 70 283
t186 235q174 139 428 140q340 0 535 -246q147 -188 147 -408q0 -158 -76 -303t-207 -239q-72 -51 -194 -101v-10l229 4q115 2 166 32t82 118h39l-78 -236h-561z" />
    <glyph glyph-name="pi" unicode="&#x3c0;" horiz-adv-x="1024" 
d="M1135 952v-98h-318q-74 -178 -74 -264v-330q-1 -118 15 -152t69 -34q20 0 74 16l27 8v-35l-205 -81q-13 -8 -25 -8t-31 20t-39 58t-20 118v324q0 66 14 110t54 121l24 49q27 53 43 80h-356l-2 -254q-4 -168 -35 -446q-14 -104 -32 -146t-48 -43q-29 0 -49 25
q-20 24 -20 56t20 93q82 217 98 715q-115 2 -185 -36t-146 -144l-25 26l146 183q55 70 184 69h842z" />
    <glyph glyph-name="endash" unicode="&#x2013;" 
d="M172 504v88h727v-88h-727z" />
    <glyph glyph-name="emdash" unicode="&#x2014;" horiz-adv-x="1202" 
d="M0 504v88h1202v-88h-1202z" />
    <glyph glyph-name="quoteleft" unicode="&#x2018;" horiz-adv-x="487" 
d="M244 1114q46 0 72 -27t26 -71t-32 -75q-32 -30 -83 -30t-82 35t-30 92q-1 162 161 336h97q-55 -49 -103 -131t-51 -133h8q8 4 17 4z" />
    <glyph glyph-name="quoteright" unicode="&#x2019;" horiz-adv-x="487" 
d="M244 1186q-45 0 -72 26t-27 72q0 45 32 75t83 30t82 -35t31 -94q0 -143 -160 -336h-98q59 57 104 135t49 129h-8q-8 -2 -16 -2z" />
    <glyph glyph-name="quotesinglbase" unicode="&#x201a;" horiz-adv-x="487" 
d="M246 -12q-45 0 -73 26t-28 72q0 45 32 75q32 29 83 29t82 -34t31 -95q0 -142 -160 -335h-98q59 57 104 135t49 131h-8q-6 -4 -14 -4z" />
    <glyph glyph-name="quotedblleft" unicode="&#x201c;" horiz-adv-x="798" 
d="M244 1114q46 0 72 -27t26 -71t-32 -75q-32 -30 -83 -30t-82 35t-30 92q-1 162 161 336h97q-55 -49 -103 -131t-51 -133h8q8 4 17 4zM553 1114q45 0 73 -27t28 -71t-32 -75q-32 -30 -83 -30t-82 35t-31 92q0 156 160 336h98q-55 -47 -102 -130t-52 -134h9q8 4 14 4z" />
    <glyph glyph-name="quotedblright" unicode="&#x201d;" horiz-adv-x="798" 
d="M555 1186q-45 0 -72 26t-27 72q0 45 32 75t83 30t82 -35t31 -92q0 -145 -160 -338h-98q59 59 105 136t49 128h-9q-8 -2 -16 -2zM244 1186q-45 0 -72 26t-27 72q0 45 32 75t83 30t82 -35t31 -94q0 -143 -160 -336h-98q59 57 104 135t49 129h-8q-8 -2 -16 -2z" />
    <glyph glyph-name="quotedblbase" unicode="&#x201e;" horiz-adv-x="798" 
d="M557 -12q-45 0 -73 26t-28 72q0 45 32 75q32 29 83 29t82 -34t31 -93q0 -144 -160 -337h-98q59 57 104 135t50 131h-9q-8 -4 -14 -4zM246 -12q-45 0 -73 26t-28 72q0 45 32 75q32 29 83 29t82 -34t31 -95q0 -142 -160 -335h-98q59 57 104 135t49 131h-8q-6 -4 -14 -4z
" />
    <glyph glyph-name="dagger" unicode="&#x2020;" 
d="M463 -244l12 1098l-332 -20v141l332 -21l-12 377h147l-12 -377l332 21v-141l-332 20l12 -1098h-147z" />
    <glyph glyph-name="daggerdbl" unicode="&#x2021;" 
d="M475 879l-328 -21v139l328 -20l-14 354h147l-14 -354l328 20v-139l-328 21v-654l328 21v-140l-328 21l14 -371h-147l14 371l-328 -21v140l328 -21v654z" />
    <glyph glyph-name="bullet" unicode="&#x2022;" horiz-adv-x="1366" 
d="M686 977q117 0 200 -84t83 -201q0 -118 -83 -200t-200 -82t-201 83t-84 201t84 200q84 83 201 83z" />
    <glyph glyph-name="ellipsis" unicode="&#x2026;" horiz-adv-x="1411" 
d="M1176 215q48 0 82 -35t34 -83t-34 -82q-34 -33 -82 -33t-82 34q-35 34 -35 83q0 48 34 82t83 34zM707 215q49 0 83 -35t34 -83t-34 -82q-34 -33 -82 -33t-83 34t-35 83q0 48 34 82t83 34zM236 215q48 0 82 -35t34 -83t-34 -82q-34 -33 -82 -33t-82 34q-35 34 -35 83
q0 48 34 82t83 34z" />
    <glyph glyph-name="perthousand" unicode="&#x2030;" horiz-adv-x="1875" 
d="M1544 594q-150 0 -150 -279t146 -278q147 1 147 279t-143 278zM1541 -12q-121 0 -195 91t-74 236t76 237t196 91q119 0 193 -91q73 -92 73 -236t-74 -236t-195 -92zM911 594q-149 0 -149 -279t145 -278q147 1 147 279t-143 278zM908 -12q-120 0 -194 91t-75 236
q1 145 77 237t195 91q119 0 193 -91q74 -92 74 -236t-75 -236t-195 -92zM178 0l801 1366h86l-801 -1366h-86zM336 1329q-72 0 -110 -72t-38 -204q0 -281 146 -281t145 278q0 278 -143 279zM337 1378q117 0 191 -91t74 -235t-75 -236t-195 -93q-120 0 -193 91q-73 90 -73 236
t76 237q77 91 195 91z" />
    <glyph glyph-name="guilsinglleft" unicode="&#x2039;" horiz-adv-x="538" 
d="M358 967h68l-170 -478l170 -489h-68l-247 489z" />
    <glyph glyph-name="guilsinglright" unicode="&#x203a;" horiz-adv-x="544" 
d="M186 967l248 -478l-248 -489h-67l170 489l-170 478h67z" />
    <glyph glyph-name="fraction" unicode="&#x2044;" horiz-adv-x="106" 
d="M-383 0l784 1335h86l-784 -1335h-86z" />
    <glyph glyph-name="trademark" unicode="&#x2122;" horiz-adv-x="1781" 
d="M920 637q0 -27 22 -37t82 -14v-43q-98 6 -131 6t-135 -6v43q70 4 85 15t19 58l27 594v9q1 35 -19 48t-88 17v43q54 -4 106 -4t132 6l231 -600l234 600q88 -6 135 -6t98 4v-43q-70 -4 -87 -15t-17 -52v-7l12 -594q0 -45 18 -57t89 -16v-45q-102 10 -167 10t-165 -10v45
q70 2 88 15t16 58l-10 590l-209 -538q-6 -13 -23 -61t-30 -81h-29q-16 53 -53 146l-207 534l-24 -590v-22zM412 1315v-656q0 -47 16 -58t88 -15v-43q-100 8 -164 8t-166 -8v43q72 4 88 15t17 58v656h-62q-67 0 -95 -28t-56 -120h-45l37 199h567l37 -199h-43q-27 92 -54 120
q-28 28 -92 28h-73z" />
    <glyph glyph-name="partialdiff" unicode="&#x2202;" horiz-adv-x="1024" 
d="M518 868q-186 0 -271 -220q-40 -103 -40 -209t40 -208q39 -102 107 -158t152 -57q131 0 220 126t89 308t-84 300t-213 118zM956 448q0 -198 -128 -337t-317 -139t-316 136t-127 334t127 335q127 136 313 136q137 0 225 -75q29 -25 76 -86q-71 226 -189 368t-317 248
l19 37q192 -80 326 -211t221 -340q87 -208 87 -406z" />
    <glyph glyph-name="product" unicode="&#x220f;" horiz-adv-x="1366" 
d="M45 1366h1274v-37h-47q-90 1 -113 -27t-22 -137v-1441q1 -109 23 -137t108 -27h49v-37h-510v37h43q90 0 114 28t23 136v1441q0 109 -22 137q-23 28 -115 27h-334q-90 1 -113 -27t-22 -137v-1441q1 -109 23 -137t108 -27h49v-37h-510v37h43q90 0 114 28t23 136v1441
q0 109 -22 137q-23 28 -115 27h-49v37z" />
    <glyph glyph-name="summation" unicode="&#x2211;" horiz-adv-x="1366" 
d="M1163 1366v-324h-37q-20 160 -92 216t-256 57h-471l424 -805l-483 -899h543q127 -1 197 23q165 55 222 284h37l-67 -395h-1059l493 919l-493 924h1042z" />
    <glyph glyph-name="minus" unicode="&#x2212;" 
d="M111 631v121h852v-121h-852z" />
    <glyph glyph-name="radical" unicode="&#x221a;" horiz-adv-x="1366" 
d="M1331 1686v-54h-246l-378 -1632h-152l-178 739h-342v54h467l162 -691l370 1584h297z" />
    <glyph glyph-name="infinity" unicode="&#x221e;" horiz-adv-x="1366" 
d="M281 905q-85 0 -143 -63q-58 -62 -58 -160t71 -158t175 -61q104 0 167 39q62 39 125 139q-70 104 -116 158q-94 106 -221 106zM1066 459q98 0 159 65q59 66 59 167t-74 163t-184 64q-110 0 -176 -42t-129 -141q84 -133 149 -190q98 -86 196 -86zM29 680q0 140 94 244
q94 102 229 102q186 0 342 -254q6 8 29 39q59 94 79 120t58 48q74 49 160 49q131 0 223 -98t92 -240t-98 -246t-238 -104q-96 0 -187 68t-163 190q-55 -88 -100 -141q-88 -105 -215 -105t-216 94t-89 234z" />
    <glyph glyph-name="integral" unicode="&#x222b;" horiz-adv-x="1026" 
d="M588 950v-911q0 -178 -14 -265t-54 -159q-90 -156 -250 -156q-100 1 -170 61t-69 146q0 47 29 79q30 32 72 32t71 -28q47 -46 20 -107q-10 -28 -10 -50t17 -38t44 -17q72 -1 118 103t46 264v938q0 180 14 268q13 88 54 160q90 156 250 155q100 0 170 -60t69 -148
q1 -45 -29 -77t-72 -32t-71 28q-47 46 -20 107q10 27 10 49t-17 39q-17 16 -44 17q-74 0 -119 -109t-45 -289z" />
    <glyph glyph-name="approxequal" unicode="&#x2248;" horiz-adv-x="1024" 
d="M354 625q62 0 188 -42t183 -42q119 -1 213 114l29 -16q-57 -88 -137 -140q-80 -53 -140 -53q-59 0 -196 44q-138 44 -200 44t-100 -21t-66 -53t-34 -38t-8 -10l-31 18q137 195 299 195zM691 762q-60 0 -195 43q-136 43 -200 43t-102 -20t-92 -80l-16 -21l-31 16
q137 195 299 195q62 0 188 -41t181 -41q119 0 215 115l29 -17q-55 -88 -135 -140t-141 -52z" />
    <glyph glyph-name="notequal" unicode="&#x2260;" horiz-adv-x="1024" 
d="M973 897v-78h-359l-98 -209h459v-78h-494l-125 -270l-71 35l110 235h-344v78h379l98 209h-479v78h514l117 250l72 -33l-101 -217h322z" />
    <glyph glyph-name="lessequal" unicode="&#x2264;" horiz-adv-x="1024" 
d="M90 66h846v-66h-846v66zM936 1253v-71l-655 -428l655 -437v-186l-846 563v13z" />
    <glyph glyph-name="greaterequal" unicode="&#x2265;" horiz-adv-x="1024" 
d="M90 131v70l655 428l-655 438v186l846 -567v-12zM90 66h846v-66h-846v66z" />
    <glyph glyph-name="lozenge" unicode="&#x25ca;" horiz-adv-x="1366" 
d="M684 1237l-403 -553l403 -555l403 555zM684 1419l530 -735l-530 -737l-532 737z" />
    <glyph glyph-name="apple" unicode="&#xf8ff;" horiz-adv-x="1366" 
d="M1112 642q0 -93 54 -175t151 -121q-78 -193 -169 -297t-179 -104q-29 0 -49 7t-117 48q-17 6 -73 6t-79 -6t-106 -41q-45 -16 -80 -16q-86 0 -180 106t-156 268q-61 161 -61 303t56 254q102 204 327 203q71 0 149 -31q78 -30 110 -30t119 32t152 33q188 0 297 -145
q-90 -70 -128 -136t-38 -158zM985 1395q0 -166 -133 -271q-82 -63 -172 -63q-2 139 83 239t222 115v-20z" />
    <glyph glyph-name="fi" unicode="&#xfb01;" horiz-adv-x="1157" 
d="M888 1366q46 0 79 -32t33 -79t-34 -79q-32 -32 -78 -33q-46 0 -79 33q-33 34 -33 80t33 78t79 32zM956 145q0 -66 27 -86t121 -24v-41q-132 12 -230 12t-229 -12v41q94 4 121 24t27 86v648q0 80 -24 99t-122 21v35q159 12 309 53v-856zM369 967h233v-76h-233v-746
q1 -66 27 -86t120 -24v-41q-131 12 -229 12t-230 -12v41q94 4 121 24t27 86v746h-142v63q100 4 126 26t31 138t54 180q80 96 224 97q88 0 144 -43t56 -111q0 -76 -75 -76q-33 -1 -53 17t-21 32q0 14 4 39l2 29q0 29 -17 45t-44 16q-78 0 -109 -86q-16 -39 -16 -153v-137z
" />
    <glyph glyph-name="fl" unicode="&#xfb02;" horiz-adv-x="1144" 
d="M486 1341q-70 0 -101 -84q-16 -41 -16 -153v-137h233v-76h-233v-746q1 -66 27 -86t120 -24v-41q-131 12 -229 12t-230 -12v41q94 4 121 24t27 86v746h-142v63q100 4 126 26t31 138t54 180q80 96 224 97q102 0 161 -60q145 14 295 54v-1244q0 -66 27 -86t121 -24v-41
q-132 12 -230 12t-229 -12v41q94 4 121 24t27 86v1024q3 82 -15 104t-90 25q12 -31 12 -57q0 -76 -75 -76q-33 -1 -53 17t-21 45l6 55q1 59 -69 59z" />
    <glyph glyph-name="middot" horiz-adv-x="471" 
d="M119 503q0 47 34 81t83 34q48 0 82 -34t34 -83q0 -48 -34 -82t-82 -34t-82 35q-35 35 -35 83z" />
    </font>
</defs>
</svg>
