<?xml version="1.0" encoding="UTF-8"?><svg version="1.1" width="42px" height="42px" viewBox="0 0 42.0 42.0" xmlns="http://www.w3.org/2000/svg" xmlns:xlink="http://www.w3.org/1999/xlink"><defs><clipPath id="i0"><path d="M1440,0 L1440,3225 L0,3225 L0,0 L1440,0 Z"></path></clipPath><clipPath id="i1"><path d="M2.072,38.47375 L3.55075,39.99975 L1.8025,41.70075 C1.596,41.90025 1.32825,42 1.06225,42 C0.47425,42 0,41.5205 0,40.93775 C0,40.6595 0.1085,40.38125 0.32375,40.17475 L2.072,38.47375 Z M15.09375,20.51525 L21.90475,27.5485 L15.92325,33.34975 C12.7085,36.46825 9.64075,38.0135 5.38125,39.396 L2.7405,36.66775 C4.256,32.452 5.89575,29.4315 9.1105,26.31475 L15.09375,20.51525 Z M32.54125,2.64425 C36.09725,-0.805 42,1.77975 42,6.65175 C42,8.1095 41.433,9.5655 40.30425,10.661 L24.89375,25.6025 L17.13075,17.58925 Z M29.73775,0 C30.39575,0 31.05025,0.2555 31.549,0.77 L17.43525,14.45675 C16.44475,13.433 16.49725,11.8265 17.5175,10.83425 L27.9265,0.74025 C28.43575,0.2485 29.0885,0 29.73775,0 Z"></path></clipPath></defs><g transform="translate(-1204.0 -594.0)"><g clip-path="url(#i0)"><g transform="translate(1204.0 594.0)"><g clip-path="url(#i1)"><polygon points="0,0 42,0 42,42 0,42 0,0" stroke="none" fill="#212121"></polygon></g></g></g></g></svg>