<?xml version="1.0" standalone="no"?>
<!DOCTYPE svg PUBLIC "-//W3C//DTD SVG 1.1//EN" "http://www.w3.org/Graphics/SVG/1.1/DTD/svg11.dtd" >
<svg xmlns="http://www.w3.org/2000/svg">
<metadata>
Created by FontPrep 20130207 at Tue Aug 25 16:10:23 2015
 By Michael Karrer
URW Software, Copyright 1993 by URW
</metadata>
<defs>
<font id="ad464e53ed72502c8ee6217bba4eadcd" horiz-adv-x='1024' >
  <font-face 
    font-family="CorporateA-RegularItalic"
    font-weight="500"
    font-style="italic"
    font-stretch="normal"
    units-per-em="2048"
    panose-1="0 0 0 0 0 0 0 0 0 0"
    ascent="1638"
    descent="-410"
    x-height="975"
    cap-height="1372"
    bbox="-473 -541 1901 1839"
    underline-thickness="77"
    underline-position="-181"
    slope="-14"
    unicode-range="U+0020-FB02"
  />
<missing-glyph horiz-adv-x="512" 
 />
    <glyph glyph-name=".notdef" horiz-adv-x="512" 
 />
    <glyph glyph-name=".null" horiz-adv-x="0" 
 />
    <glyph glyph-name="nonmarkingreturn" horiz-adv-x="681" 
 />
    <glyph glyph-name="space" unicode=" " horiz-adv-x="512" 
 />
    <glyph glyph-name="exclam" unicode="!" horiz-adv-x="528" 
d="M194 223q50 -1 78 -29t29 -79q0 -51 -41 -92t-91 -41t-80 28t-30 78q0 49 42 92q43 43 93 43zM182 410l185 929h190l-268 -929h-107z" />
    <glyph glyph-name="quotedbl" unicode="&#x22;" horiz-adv-x="772" 
d="M672 817h-109l113 549h155zM387 817h-111l115 549h156z" />
    <glyph glyph-name="numbersign" unicode="#" horiz-adv-x="1243" 
d="M887 846h-297l-121 -301h297zM1124 545l-45 -111h-231l-176 -434h-129l176 434h-295l-176 -434h-127l176 434h-231l45 111h231l121 301h-232l45 110h232l166 410h129l-166 -410h295l168 410h129l-166 -410h229l-47 -110h-229l-121 -301h229z" />
    <glyph glyph-name="dollar" unicode="$" horiz-adv-x="1052" 
d="M776 378q0 68 -36 116q-36 46 -150 122l-141 -573q207 10 293 194q34 73 34 141zM410 1067q0 -63 35 -106t137 -113l120 477q-128 -2 -210 -75t-82 -183zM166 346q0 -248 217 -297l152 604q-123 82 -168 119q-121 98 -121 227q0 164 130 280t312 116q16 0 31 -2l39 157
h65l-41 -164q59 -10 123 -36q65 -26 85 -27q20 0 65 23l-76 -357h-53q8 49 8 90q0 199 -168 240l-127 -510q131 -88 166 -117q135 -106 135 -248q0 -190 -142 -329t-341 -142h-27l-39 -157h-65l41 161q-92 15 -163 55t-143 122l62 297h51q-8 -63 -8 -105z" />
    <glyph glyph-name="percent" unicode="%" horiz-adv-x="1273" 
d="M985 592q-105 0 -171 -150t-66 -280q0 -59 24 -92t70 -33q106 1 170 157t65 277q0 57 -24 89q-25 32 -68 32zM999 641q91 0 141 -55t50 -152q0 -178 -108 -311t-251 -133q-92 0 -144 56t-52 148t36 183q36 90 93 153q98 111 235 111zM127 0l1024 1335h86l-1024 -1335h-86
zM543 1327q-102 0 -176 -162q-61 -143 -62 -268q0 -59 25 -92t69 -33q107 0 171 156t65 278q-1 57 -25 89t-67 32zM557 1376q90 0 140 -55t51 -154q0 -176 -108 -309t-251 -133q-92 0 -144 57q-52 58 -52 150t35 181q36 89 94 153q98 110 235 110z" />
    <glyph glyph-name="ampersand" unicode="&#x26;" horiz-adv-x="1169" 
d="M190 272q0 -108 56 -164t153 -57q139 0 289 113l-223 483q-145 -98 -199 -170q-76 -97 -76 -205zM692 1286q-84 0 -147 -71t-63 -151t73 -226q245 166 247 310q0 68 -30 103q-31 35 -80 35zM946 516q0 34 -18 42q-18 9 -72 13l14 60q78 -10 144 -10t147 10l-14 -60
q-71 -4 -93 -19t-48 -79q-59 -154 -156 -264l35 -70q29 -57 59 -76q31 -18 103 -18l-11 -51q-96 8 -147 8t-125 -8l-49 104q-160 -121 -330 -121t-264 81t-94 216q0 182 161 320q51 47 228 158l-13 28q-47 106 -58 146t-11 88q0 137 104 233t254 96q110 0 174 -55t64 -149
q0 -129 -117 -246q-66 -64 -213 -156l217 -461q51 58 90 132t39 108z" />
    <glyph glyph-name="quotesingle" unicode="'" horiz-adv-x="487" 
d="M387 817h-111l115 549h156z" />
    <glyph glyph-name="parenleft" unicode="(" horiz-adv-x="628" 
d="M244 162q0 -334 139 -594h-64q-223 248 -223 645q0 335 165 661t435 525h70q-246 -236 -384 -570q-138 -333 -138 -667z" />
    <glyph glyph-name="parenright" unicode=")" horiz-adv-x="628" 
d="M391 808q0 334 -137 591h65q219 -248 220 -645q0 -334 -164 -658t-436 -528h-72q248 240 386 574q138 332 138 666z" />
    <glyph glyph-name="asterisk" unicode="*" 
d="M623 1096l51 239l102 -24l-67 -236l243 25l9 -107l-246 -8l100 -223l-98 -41l-84 231l-182 -164l-70 82l194 150l-213 123l58 90z" />
    <glyph glyph-name="plus" unicode="+" horiz-adv-x="1056" 
d="M158 631v121h362v356h125v-356h365v-121h-365v-359h-125v359h-362z" />
    <glyph glyph-name="comma" unicode="," horiz-adv-x="516" 
d="M125 -25q-37 0 -63 28t-26 75t40 86q39 39 92 39t85 -35q32 -34 32 -108t-75 -222t-177 -256h-84q172 215 194 393h-18z" />
    <glyph glyph-name="hyphen" unicode="-" horiz-adv-x="401" 
d="M4 483l27 109h401l-26 -109h-402z" />
    <glyph glyph-name="period" unicode="." horiz-adv-x="516" 
d="M183 223q50 1 79 -29t29 -80t-41 -91t-91 -41t-80 28t-30 78q0 49 42 92t92 43z" />
    <glyph glyph-name="slash" unicode="/" horiz-adv-x="913" 
d="M-82 -397l973 1763h113l-973 -1763h-113z" />
    <glyph glyph-name="zero" unicode="0" horiz-adv-x="1056" 
d="M870 1057q0 239 -157 239q-78 0 -146 -78t-141 -262q-141 -360 -141 -673q0 -242 149 -242q88 0 157 81t140 265q139 369 139 670zM737 1356q297 0 297 -379q0 -180 -54 -374t-146 -343q-168 -279 -416 -278q-145 0 -221 96t-76 284t63 402q63 215 164 360
q160 232 389 232z" />
    <glyph glyph-name="one" unicode="1" horiz-adv-x="1056" 
d="M559 141q0 -41 36 -63t124 -31l-14 -53q-173 14 -269 14t-289 -14l15 53q127 10 171 44t70 140l222 893l-211 -4l12 49q121 9 223 71t156 159h57l-287 -1151q-16 -66 -16 -107z" />
    <glyph glyph-name="two" unicode="2" horiz-adv-x="1056" 
d="M862 1075q0 76 -47 120t-125 44q-209 0 -334 -285h-73q115 399 458 400q137 0 219 -70t82 -180t-68 -216t-290 -320q-223 -216 -463 -425h594l-55 -143h-742l29 111q645 601 764 802q51 86 51 162z" />
    <glyph glyph-name="three" unicode="3" horiz-adv-x="1056" 
d="M66 379h81q12 -295 261 -295q160 0 249 139q63 98 63 216t-68 175q-69 57 -216 64l17 72q117 0 191 36t128 113q53 78 53 163t-52 136t-139 51t-154 -55t-120 -176h-73q98 336 397 336q139 0 224 -75t85 -205t-87 -222t-251 -131q240 -70 240 -291q0 -190 -135 -319
q-136 -129 -320 -129t-279 97t-95 271v29z" />
    <glyph glyph-name="four" unicode="4" horiz-adv-x="1056" 
d="M625 504l196 778l-628 -778h432zM496 -10l96 387h-567l10 39l770 940h192l-209 -852h197l-33 -127h-194l-94 -387h-168z" />
    <glyph glyph-name="five" unicode="5" horiz-adv-x="1056" 
d="M920 563q0 -252 -140 -417t-354 -164q-160 0 -251 89t-95 251h78q45 -236 245 -236q139 0 238 139q98 139 98 338q0 115 -54 183t-146 69q-147 0 -273 -156l-67 5l280 671h572l-54 -141h-508l-163 -397q72 65 134 91t146 25q150 0 232 -91t82 -259z" />
    <glyph glyph-name="six" unicode="6" horiz-adv-x="1056" 
d="M604 856q-145 0 -246 -190q-42 -80 -72 -196t-30 -211t46 -157t122 -61q152 0 256 213q88 182 88 377q0 105 -44 165t-120 60zM645 924q135 0 216 -91t81 -245q0 -240 -150 -423t-370 -183q-156 0 -244 93t-88 257q0 336 324 674q243 254 499 387h127
q-319 -209 -534 -498q78 29 139 29z" />
    <glyph glyph-name="seven" unicode="7" horiz-adv-x="1056" 
d="M123 0l874 1186l-667 -10l41 159h815l-903 -1335h-160z" />
    <glyph glyph-name="eight" unicode="8" horiz-adv-x="1056" 
d="M735 1294q-113 0 -193 -136t-81 -279q0 -70 36 -111t95 -41q119 0 203 150q70 133 69 260q0 77 -34 117t-95 40zM582 668q-121 0 -217 -136t-97 -305q0 -84 43 -135t115 -51q145 0 240 174q74 131 73 268q-1 81 -43 133t-114 52zM907 444q0 -190 -142 -326t-343 -136
q-150 0 -236 76t-86 192q0 235 179 368q68 53 176 84q-84 31 -121 81t-37 132q0 179 132 309t312 130q135 0 211 -68t76 -200t-83 -241q-83 -110 -222 -151q184 -59 184 -250z" />
    <glyph glyph-name="nine" unicode="9" horiz-adv-x="1056" 
d="M709 1296q-152 0 -254 -213q-90 -186 -90 -376q0 -105 44 -165t121 -61q145 0 246 191q43 82 73 198t30 209t-46 155t-124 62zM190 748q0 242 152 425t369 183q157 0 245 -93t88 -257q0 -336 -321 -672q-238 -250 -502 -391h-127q328 215 535 497q-74 -27 -140 -26
q-137 0 -218 91t-81 243z" />
    <glyph glyph-name="colon" unicode=":" horiz-adv-x="516" 
d="M343 893q50 0 79 -29q29 -30 29 -80t-41 -92q-42 -42 -92 -41q-50 0 -80 29t-29 78q0 49 42 92t92 43zM183 223q50 1 79 -29t29 -80t-41 -91t-91 -41t-80 28t-30 78q0 49 42 92t92 43z" />
    <glyph glyph-name="semicolon" unicode=";" horiz-adv-x="516" 
d="M341 893q50 0 79 -29q29 -30 29 -80t-41 -92q-42 -42 -92 -41q-50 0 -80 29t-29 78q0 49 42 92t92 43zM125 -25q-37 0 -63 28t-26 74t41 86q40 40 92 40t84 -35q32 -34 32 -108t-75 -220t-177 -258h-84q176 219 194 393h-18z" />
    <glyph glyph-name="less" unicode="&#x3c;" 
d="M956 1249v-69l-655 -428l655 -439v-186l-845 565v13z" />
    <glyph glyph-name="equal" unicode="=" horiz-adv-x="1056" 
d="M244 496v120h852v-120h-852zM244 764v121h852v-121h-852z" />
    <glyph glyph-name="greater" unicode="&#x3e;" 
d="M111 127v72l655 428l-655 436v186l845 -563v-12z" />
    <glyph glyph-name="question" unicode="?" horiz-adv-x="901" 
d="M337 223q50 -1 79 -29q28 -28 28 -79t-41 -92t-91 -41t-80 28t-30 78q0 49 43 92q42 43 92 43zM760 1082q0 66 -43 111q-43 44 -111 44q-174 0 -266 -233h-70q34 168 136 260t239 92t214 -73t77 -177t-50 -173t-179 -153q-168 -104 -230 -181t-80 -208h-86q14 156 67 240
q52 84 180 182q128 99 165 151t37 118z" />
    <glyph glyph-name="at" unicode="@" horiz-adv-x="1447" 
d="M580 340q123 0 208 205q63 154 64 276q0 150 -117 156q-102 4 -199 -143t-98 -308q0 -82 39 -134t103 -52zM758 -20q-307 0 -514 198t-207 497q0 298 206 505q205 206 491 206t467 -164t181 -396t-145 -388t-297 -155q-72 1 -106 35t-48 118q-61 -80 -111 -110t-118 -31
q-113 0 -187 80t-73 200q0 175 128 311t292 136q135 0 170 -154l37 136h141l-145 -537q-38 -135 62 -135q40 0 103 46t111 116q102 150 102 321q0 203 -159 344q-160 141 -389 141q-266 0 -444 -178t-179 -444q0 -266 182 -440t461 -175q172 0 320 101q59 40 98 80t88 112
h94q-49 -88 -91 -137t-110 -100q-188 -139 -411 -139z" />
    <glyph glyph-name="A" unicode="A" horiz-adv-x="1247" 
d="M377 459h432l-43 665zM180 94q0 -45 117 -51l-12 -49q-103 10 -189 10t-192 -10l12 49q84 4 131 39t109 137l723 1208h14l113 -1232q8 -88 36 -116t125 -36l-12 -49q-137 14 -239 14t-252 -14l12 49q96 11 125 27t28 65l-2 51l-14 209h-473l-125 -211q-35 -63 -35 -90z
" />
    <glyph glyph-name="B" unicode="B" horiz-adv-x="1134" 
d="M322 111q0 -45 100 -45h61q185 0 283 136t98 292q0 100 -58 144t-192 44h-157l-121 -485q-14 -63 -14 -86zM604 745q104 0 169 31t112 105q76 117 76 241t-76 158q-43 23 -164 23h-109l-139 -558h131zM780 1366q205 0 278 -73q72 -73 72 -191t-89 -224
q-89 -105 -232 -149q231 -49 231 -248q0 -109 -52 -212t-140 -167q-141 -102 -393 -102h-504l12 51q109 8 145 33t54 102l248 994q10 40 10 70t-29 44t-112 21l12 51h489z" />
    <glyph glyph-name="C" unicode="C" horiz-adv-x="1136" 
d="M541 -31q-201 0 -311 120q-110 119 -110 321t61 390q60 188 163 328q201 268 502 269q72 -1 118 -13t116 -44t96 -33q25 0 65 20l-78 -356h-51q4 70 4 78q0 135 -68 209t-192 75q-254 0 -418 -329q-63 -129 -102 -292t-39 -316q0 -154 76 -244q77 -90 217 -90t252 106
q112 108 162 301h75q-61 -242 -199 -371t-339 -129z" />
    <glyph glyph-name="D" unicode="D" horiz-adv-x="1341" 
d="M1147 950q0 214 -107 293q-82 59 -256 60h-172l-276 -1108q-16 -61 -16 -84q-1 -46 112 -48q272 0 406 115t221 337q88 221 88 435zM784 1366q156 0 245 -23q294 -76 294 -442q0 -205 -78 -391t-203 -302t-257 -162t-316 -46h-518l12 51q109 6 145 31t54 104l248 994
q10 40 10 70t-28 44t-113 21l12 51h493z" />
    <glyph glyph-name="E" unicode="E" horiz-adv-x="1071" 
d="M420 1254q0 28 -30 41t-111 20l12 51h866l-43 -307h-45q0 92 -9 133t-44 76t-168 35h-236l-139 -555h447l-17 -72h-446l-117 -465q-14 -53 -14 -84q0 -63 129 -64h141q122 -1 192 55t148 212h45l-127 -330h-903l12 51q106 6 143 32t56 103l248 994q10 46 10 74z" />
    <glyph glyph-name="F" unicode="F" horiz-adv-x="983" 
d="M322 108q0 -30 28 -43t111 -22l-15 -49q-160 14 -244 14t-253 -14l12 49q109 8 145 33t54 104l248 1000q12 50 12 76t-30 39t-111 20l12 51h866l-41 -307h-45q-2 164 -45 204t-176 40h-238l-139 -555h449l-19 -72h-448l-123 -496q-10 -42 -10 -72z" />
    <glyph glyph-name="G" unicode="G" horiz-adv-x="1241" 
d="M870 1331q-129 0 -231 -84t-195 -266q-156 -305 -155 -602q1 -168 73 -256t194 -88t271 59l91 367q6 20 6 45t-28 38t-103 17l12 49q123 -10 220 -10t230 10l-12 -49q-94 -6 -123 -24t-43 -80l-94 -383q-229 -96 -435 -96t-320 109q-114 110 -114 311q0 200 66 394
q64 194 176 334q207 262 506 263q76 -1 131 -17t120 -51t87 -35t68 21l-86 -349h-54q6 37 7 84q0 141 -68 215t-197 74z" />
    <glyph glyph-name="H" unicode="H" horiz-adv-x="1355" 
d="M1147 1262q0 26 -30 40t-109 21l12 49q160 -14 244 -14t249 14l-12 -49q-106 -8 -141 -33t-53 -104l-252 -1006q-11 -46 -11 -74t29 -41t111 -22l-13 -49q-157 14 -241 14t-254 -14l12 49q106 8 141 33t54 104l125 500h-551l-125 -500q-12 -48 -12 -76t27 -40
q28 -12 110 -21l-13 -49q-160 14 -244 14t-251 -14l12 49q109 8 145 33t54 104l250 1006q12 46 12 74t-30 42t-111 21l12 49q158 -14 241 -14t254 14l-12 -49q-104 -8 -140 -33t-54 -104l-109 -443h551l111 443q12 50 12 76z" />
    <glyph glyph-name="I" unicode="I" horiz-adv-x="632" 
d="M202 8q-78 0 -253 -14l12 49q109 8 145 33t54 104l250 1006q12 46 12 74t-30 42t-111 21l12 49q164 -14 245 -14t250 14l-12 -49q-104 -8 -139 -33t-55 -104l-250 -1006q-12 -46 -12 -74t28 -42q29 -14 111 -21l-15 -49q-164 14 -242 14z" />
    <glyph glyph-name="J" unicode="J" horiz-adv-x="614" 
d="M-117 -80q113 0 172 69t105 253l241 944q12 55 13 74q0 53 -144 63l15 49q165 -14 241 -14t254 14l-12 -49q-110 -8 -144 -33t-53 -104l-235 -940q-49 -205 -156 -297t-282 -92q-37 0 -68 2l14 61h39z" />
    <glyph glyph-name="K" unicode="K" horiz-adv-x="1236" 
d="M1087 1284q0 33 -110 39l12 49q111 -10 198 -10t199 10l-12 -49q-94 -8 -143 -35t-174 -139l-385 -342l186 -483q64 -166 106 -218t97 -53q55 0 117 27l-17 -62q-86 -36 -180 -36t-154 57q-59 57 -125 221l-170 436l-94 -84l-106 -432q-12 -46 -12 -74t28 -42
q29 -14 105 -21l-13 -49q-143 14 -225 14t-266 -14l12 49q109 8 145 33t54 104l250 1006q10 40 10 70t-30 46t-109 21l12 49q172 -14 255 -14t240 14l-12 -49q-104 -8 -140 -33t-54 -104l-121 -484l577 515q49 47 49 67z" />
    <glyph glyph-name="L" unicode="L" horiz-adv-x="1003" 
d="M424 1264q0 49 -143 59l12 49q164 -14 245 -14t250 14l-12 -49q-104 -8 -140 -33t-52 -104l-244 -977q-14 -59 -14 -76q0 -66 108 -65h139q119 0 190 54t146 208h56l-127 -330h-887l12 49q109 8 143 32t56 105l248 1000q14 54 14 78z" />
    <glyph glyph-name="M" unicode="M" horiz-adv-x="1630" 
d="M215 110q0 -32 28 -46t107 -21l-12 -49q-115 10 -191 10t-200 -10l12 49q119 12 160 87t190 577l142 479q12 42 12 72t-32 44t-112 19l13 51q96 -8 170 -8t184 10l105 -1061l624 1061q117 -10 189 -10t170 8l-13 -49q-104 -8 -142 -34t-54 -103l-226 -987
q-14 -53 -14 -86t31 -48t108 -22l-12 -49q-158 14 -247 14t-255 -14l13 49q106 6 143 32t53 103l264 1100l-731 -1239h-30l-123 1239l-312 -1100q-12 -36 -12 -68z" />
    <glyph glyph-name="N" unicode="N" horiz-adv-x="1335" 
d="M219 125q0 -41 28 -57t103 -25l-14 -49q-131 10 -199 10t-194 -10l12 49q121 10 166 82q31 55 115 385l186 752q-29 53 -152 61l13 49q98 -6 159 -6t154 6l412 -1079l209 870q12 49 12 85t-29 52t-106 23l12 49q125 -10 200 -10t193 10l-12 -49q-98 -10 -140 -49
t-71 -152l-291 -1163h-27l-477 1282l-207 -848q-55 -227 -55 -268z" />
    <glyph glyph-name="O" unicode="O" horiz-adv-x="1263" 
d="M1065 948q-1 178 -71 282t-182 105q-112 0 -195 -71q-83 -72 -155 -218t-112 -317q-41 -171 -41 -331t71 -264t191 -103q215 0 365 344q129 291 129 573zM809 1393q199 0 317 -129q115 -121 115 -369q0 -176 -50 -348t-140 -303q-186 -270 -482 -271q-209 0 -323 129
q-114 128 -113 350q0 222 69 420t183 328q170 193 424 193z" />
    <glyph glyph-name="P" unicode="P" horiz-adv-x="1097" 
d="M594 680q114 0 186 31t127 104q98 129 99 295q0 104 -62 148t-207 45h-125l-155 -623h137zM202 8q-84 0 -253 -14l12 49q109 8 145 33t54 104l248 1000q12 46 12 74t-30 41t-111 20l12 51h497q209 0 293 -68q94 -72 95 -215q0 -102 -48 -200t-127 -162
q-131 -104 -374 -105h-187l-108 -436q-12 -46 -12 -74t28 -41q29 -13 113 -22l-15 -49q-160 14 -244 14z" />
    <glyph glyph-name="Q" unicode="Q" horiz-adv-x="1253" 
d="M813 1335q-203 0 -352 -293q-68 -139 -110 -309q-42 -169 -42 -329t74 -266t191 -107q118 0 204 83t160 261q127 297 127 579q-1 180 -67 280t-185 101zM780 -217q-68 -1 -166 59t-152 60q-56 0 -104 -31t-108 -109l26 121q72 80 154 111q-297 92 -297 475q0 203 67 399
t179 326q174 199 432 199q201 0 315 -124q114 -123 115 -347q0 -224 -61 -412t-170 -322q-137 -172 -369 -208q20 -6 90 -46t119 -40q84 -1 178 67l-18 -72q-113 -106 -230 -106z" />
    <glyph glyph-name="R" unicode="R" horiz-adv-x="1224" 
d="M618 721q201 0 300 131q88 115 88 253t-103 177q-49 20 -182 21h-109l-145 -582h151zM322 106q0 -28 26 -41t109 -22l-13 -49q-158 14 -242 14t-253 -14l12 49q109 8 145 33t54 104l248 1000q12 44 12 72t-29 42t-112 21l12 51h479q186 0 268 -37q138 -63 138 -233
t-120 -287t-325 -147q67 -18 95 -54t48 -125l56 -237q25 -90 43 -127q39 -66 114 -66q45 0 107 27l-16 -62q-84 -37 -170 -36q-121 0 -174 69q-41 49 -82 211l-54 213q-29 121 -64 152q-36 31 -145 30h-38l-119 -477q-10 -46 -10 -74z" />
    <glyph glyph-name="S" unicode="S" horiz-adv-x="987" 
d="M897 1079q0 248 -233 248q-123 0 -207 -76t-84 -184q0 -63 37 -109t176 -139q139 -92 196 -137q121 -96 121 -240q0 -194 -145 -332t-350 -139q-119 0 -206 41t-177 142l61 297h51q-8 -63 -8 -105q0 -141 74 -222t211 -81t229 98q43 45 70 112t26 126q0 96 -86 164
q-35 29 -189 132t-205 167q-50 64 -50 157q0 164 131 280t317 116q113 0 228 -52q47 -20 67 -20t66 23l-76 -357h-53q8 49 8 90z" />
    <glyph glyph-name="T" unicode="T" horiz-adv-x="1032" 
d="M520 102q0 -48 139 -59l-12 -49q-158 14 -244 14t-251 -14l12 49q110 10 144 34t52 103l279 1123h-104q-103 -1 -165 -51t-141 -199h-51l133 313h858l-22 -313h-47q-2 149 -41 199t-154 51h-92l-281 -1123q-12 -54 -12 -78z" />
    <glyph glyph-name="U" unicode="U" horiz-adv-x="1318" 
d="M1302 1362q74 0 195 10l-14 -49q-106 -12 -148 -59q-27 -35 -42 -83t-79 -286l-110 -446q-51 -203 -137 -306q-137 -166 -396 -166q-178 0 -279 79t-102 218q0 80 25 179l182 733q13 46 13 74t-30 42t-112 21l13 49q163 -14 243 -14t252 14l-12 -49q-104 -8 -139 -33
t-54 -104l-186 -744q-25 -100 -25 -163q0 -93 72 -151t189 -58t209 56t136 148q46 92 103 320l98 395q57 231 57 265t-26 48t-108 21l12 49q126 -10 200 -10z" />
    <glyph glyph-name="V" unicode="V" horiz-adv-x="1089" 
d="M424 1358q109 0 231 14l-12 -49q-90 -7 -123 -27t-28 -61l63 -1006l428 750q80 141 102 189q23 48 23 78q0 59 -61 61q-8 0 -52 -7l-10 48q131 16 258 69q10 -31 10 -65q1 -34 -25 -89q-26 -54 -153 -266l-616 -1052h-31l-115 1247q-9 78 -35 102t-118 29l12 49
q143 -14 252 -14z" />
    <glyph glyph-name="W" unicode="W" horiz-adv-x="1566" 
d="M416 1358q102 0 237 14l-12 -49q-102 -8 -132 -31t-28 -92l-8 -893l574 1102h63l12 -1102l389 754q74 147 74 196t-57 50q-12 0 -58 -7l-8 48q150 12 264 71q13 -56 -5 -98q-19 -41 -109 -217l-600 -1147h-37l-8 1163l-607 -1163h-38l-19 1239q-2 70 -31 96t-100 31
l12 49q130 -14 232 -14z" />
    <glyph glyph-name="X" unicode="X" horiz-adv-x="1173" 
d="M528 1358q111 0 238 14l-14 -49q-152 -10 -152 -74q0 -10 8 -47l103 -381l311 350q55 66 55 101t-49 35q-12 0 -53 -7l-6 48q150 16 260 69l2 -31q0 -53 -26 -94t-138 -164l-336 -380l154 -562q23 -84 53 -110t104 -31l23 -2l-12 -49q-156 14 -239 14t-257 -14l12 49
q86 7 120 25t34 57q0 16 -29 123l-98 362l-342 -389q-84 -96 -84 -125t24 -39t87 -14l-13 -49q-114 8 -190 8t-197 -8l13 49q90 8 134 41t183 190l364 412l-137 514q-18 70 -51 92t-123 31l12 49q141 -14 252 -14z" />
    <glyph glyph-name="Y" unicode="Y" horiz-adv-x="1011" 
d="M426 1358q98 0 248 14l-12 -49q-90 -8 -120 -21q-30 -12 -30 -42t14 -121l88 -480l353 494q61 86 61 120t-45 34q-12 0 -57 -7l-8 48q158 20 266 69l2 -12v-21q0 -36 -20 -68t-132 -186l-391 -534l-102 -416q-15 -51 -15 -77t31 -40t109 -20l-13 -49q-165 14 -243 14
t-252 -14l12 49q112 10 146 34t51 103l104 416l-115 516q-25 135 -53 168q-29 33 -129 43l10 49q144 -14 242 -14z" />
    <glyph glyph-name="Z" unicode="Z" horiz-adv-x="1003" 
d="M602 1303q-108 -1 -178 -53t-137 -185h-64l131 301h826l-1014 -1298h381q127 0 197 51t171 215h50l-134 -334h-907l1010 1303h-332z" />
    <glyph glyph-name="bracketleft" unicode="[" horiz-adv-x="628" 
d="M780 1305h-209l-409 -1641h209l-15 -61h-352l440 1763h351z" />
    <glyph glyph-name="backslash" unicode="\" horiz-adv-x="913" 
d="M295 1366h113l315 -1763h-113z" />
    <glyph glyph-name="bracketright" unicode="]" horiz-adv-x="628" 
d="M-143 -336h209l409 1641h-209l17 61h350l-438 -1763h-353z" />
    <glyph glyph-name="asciicircum" unicode="^" 
d="M1094 588h-70l-430 655l-436 -655h-187l564 846h12z" />
    <glyph glyph-name="underscore" unicode="_" 
d="M72 -180h923v-78h-923v78z" />
    <glyph glyph-name="grave" unicode="`" 
d="M741 1087h-92l-239 302h213z" />
    <glyph glyph-name="a" unicode="a" horiz-adv-x="1042" 
d="M594 928q-154 0 -279 -291q-102 -236 -102 -417t133 -181q228 0 348 481q35 139 35 225q0 87 -36 135t-99 48zM760 130q0 -54 48 -54t118 100l39 -26q-51 -90 -103 -130t-121 -38q-143 0 -143 168q-111 -168 -270 -168q-129 0 -202 78t-73 212q0 132 51 276t132 247
q150 190 348 190q172 0 192 -178l45 162q96 2 168 20l-180 -635q-49 -170 -49 -224z" />
    <glyph glyph-name="b" unicode="b" horiz-adv-x="991" 
d="M645 928q-145 0 -254 -230q-49 -108 -82 -240t-33 -227q0 -190 138 -190q162 0 264 249t102 455q0 83 -37 133t-98 50zM674 985q122 0 194 -83t72 -220t-46 -272t-124 -236q-152 -193 -356 -192q-133 0 -214 85t-81 224q0 70 53 291l150 596q10 54 10 76q0 44 -123 44
l8 37q160 13 320 54l-140 -564q72 88 134 124t143 36z" />
    <glyph glyph-name="c" unicode="c" horiz-adv-x="829" 
d="M756 731q0 97 -40 149t-116 52q-154 0 -266 -226t-111 -432q0 -106 49 -168t136 -61q195 0 280 281h82q-47 -170 -149 -260q-101 -90 -247 -90t-230 88q-84 90 -83 228q0 138 43 268t115 228q150 203 371 203q72 0 137 -22q65 -23 85 -23t54 25l-69 -322h-45q4 39 4 82z
" />
    <glyph glyph-name="d" unicode="d" horiz-adv-x="1040" 
d="M580 928q-139 0 -246 -219q-47 -99 -81 -237t-34 -234t38 -148q38 -51 103 -51q158 0 258 237q43 98 73 234t30 226q0 88 -39 140t-102 52zM770 146q0 -70 49 -70t117 100l39 -26q-59 -96 -105 -132t-112 -36q-143 0 -152 157q-98 -158 -262 -157q-131 0 -208 85t-77 230
q0 266 157 477t355 211q156 0 197 -160l88 353q12 50 12 74t-25 35q-26 11 -95 11l8 37q165 13 315 54l-258 -1035q-43 -172 -43 -208z" />
    <glyph glyph-name="e" unicode="e" horiz-adv-x="870" 
d="M717 811q0 49 -34 83t-83 34q-102 0 -192 -112t-146 -310q174 0 297 76q158 96 158 229zM378 -18q-146 0 -232 89q-85 89 -85 242q0 109 41 233t111 218q162 221 391 221q119 0 189 -55t69 -148q0 -145 -172 -238t-442 -95q-27 -85 -27 -181t53 -157q54 -61 148 -61
t176 74t115 191h88q-57 -161 -167 -247t-256 -86z" />
    <glyph glyph-name="f" unicode="f" horiz-adv-x="604" 
d="M668 1395q92 0 147 -37q55 -38 55 -92t-26 -84t-59 -29q-34 0 -54 19t-20 42q0 24 12 48t12 38t-20 28t-47 15q-56 0 -94 -61t-72 -213l-25 -104h221l-16 -74h-221l-176 -752q-63 -272 -181 -390t-335 -126l12 53q151 28 223 134t131 385l162 696h-137l14 63h23
q78 6 97 26t32 44q37 106 53 156q72 215 289 215z" />
    <glyph glyph-name="g" unicode="g" horiz-adv-x="929" 
d="M338 39q-324 0 -324 -182q0 -87 94 -141t240 -54q147 0 232 56q84 56 84 153q-2 168 -326 168zM563 932q-111 0 -178 -112t-67 -210q-1 -188 153 -188q119 0 186 133q51 101 51 195t-39 138q-40 44 -106 44zM860 713q0 -170 -121 -264q-90 -72 -280 -84
q-223 -59 -223 -129q0 -27 26 -37q26 -11 180 -25t230 -47q131 -55 131 -203t-126 -240q-127 -92 -325 -92t-311 70t-113 188q0 195 262 246q-84 42 -84 100t54 100t184 87q-180 72 -180 252q0 150 112 252q113 102 279 102q127 0 207 -61l285 8l-21 -86l-209 4
q43 -57 43 -141z" />
    <glyph glyph-name="h" unicode="h" horiz-adv-x="1081" 
d="M723 985q103 0 163 -57t60 -152q0 -53 -20 -139l-80 -322q-37 -143 -37 -175q0 -66 49 -66q28 0 50 19t65 87l41 -24q-80 -174 -215 -174q-66 0 -109 40t-43 98t43 224l74 299q18 74 18 130t-36 88t-95 32q-104 0 -186 -88q-55 -63 -82 -176l-156 -629h-164l293 1178
q14 58 14 78q1 43 -124 42l8 37q160 12 319 54l-135 -541q129 137 285 137z" />
    <glyph glyph-name="i" unicode="i" horiz-adv-x="542" 
d="M461 1364q45 0 71 -25t25 -71q0 -46 -37 -83q-37 -38 -82 -38q-46 -1 -72 25t-26 70t38 83t83 39zM262 133q0 -59 49 -59q27 0 51 22t66 84l39 -24q-45 -94 -95 -134t-119 -40t-111 38t-42 94t45 230l119 449q14 55 14 77t-25 31q-26 10 -97 12l8 35q143 10 319 53
l-182 -686q-39 -147 -39 -182z" />
    <glyph glyph-name="j" unicode="j" horiz-adv-x="524" 
d="M451 1364q45 0 71 -25t25 -71q0 -46 -36 -84q-36 -37 -82 -37q-46 -1 -73 25q-26 26 -26 71t38 83t83 38zM481 1001l-209 -862q-61 -266 -184 -388t-338 -128l12 53q150 27 225 135t136 386l145 596q12 51 12 75t-25 33q-26 10 -97 12l10 35q151 12 313 53z" />
    <glyph glyph-name="k" unicode="k" horiz-adv-x="1026" 
d="M890 963q87 0 202 10l-11 -41q-69 -8 -119 -35t-169 -121l-181 -145l160 -402q43 -109 69 -143q25 -34 57 -33q32 0 106 25l-15 -51q-84 -45 -160 -45q-75 0 -121 42t-92 150l-141 346l-149 -119l-99 -401h-164l293 1178q14 56 14 78q1 42 -124 42l8 37q156 14 317 54
l-223 -897l369 309q72 63 71 88q0 37 -94 43l11 41q98 -10 185 -10z" />
    <glyph glyph-name="l" unicode="l" horiz-adv-x="542" 
d="M268 137q0 -63 50 -63t116 106l39 -22q-49 -100 -95 -138t-117 -38t-113 38t-42 100q0 60 41 224l209 836q12 48 12 72t-25 35q-26 11 -97 11l8 37q155 13 317 54l-266 -1074q-37 -147 -37 -178z" />
    <glyph glyph-name="m" unicode="m" horiz-adv-x="1536" 
d="M705 985q170 0 202 -160q121 160 289 160q96 0 154 -49t57 -131q0 -47 -23 -150l-86 -340q-37 -147 -36 -180q0 -61 51 -61q27 0 49 20t65 86l39 -24q-84 -174 -215 -174q-67 0 -109 40t-42 95t43 227l80 318q20 88 20 130t-32 71q-32 30 -83 30q-84 0 -147 -65t-90 -179
l-164 -649h-162l166 666q19 76 19 122t-31 76q-31 29 -86 29q-88 0 -153 -69t-97 -197l-156 -627h-164l195 778q16 72 16 92t-20 27q-20 6 -104 8l8 37q178 25 282 62q-4 -72 -24 -175q119 156 289 156z" />
    <glyph glyph-name="n" unicode="n" horiz-adv-x="1083" 
d="M725 985q99 0 161 -56t62 -149q0 -49 -22 -151l-97 -381q-20 -80 -20 -113q0 -61 49 -61q30 0 52 22t65 84l39 -24q-47 -94 -96 -134t-117 -40t-111 40t-43 94t43 228l74 291q20 82 20 137t-35 88q-36 33 -96 33q-106 0 -188 -88q-53 -59 -82 -176l-156 -629h-164
l195 778q14 74 14 94t-21 25q-21 6 -101 8l8 37q174 23 280 62q4 -53 -22 -179q139 160 309 160z" />
    <glyph glyph-name="o" unicode="o" horiz-adv-x="962" 
d="M580 928q-76 0 -132 -47t-108 -154q-111 -227 -111 -457t168 -231q156 0 262 246q88 205 89 409q0 234 -168 234zM592 985q150 0 232 -90q82 -89 83 -233q0 -287 -149 -490q-143 -190 -369 -190q-155 0 -237 90t-82 238t46 284q46 135 124 227q139 164 352 164z" />
    <glyph glyph-name="p" unicode="p" horiz-adv-x="1032" 
d="M674 928q-143 0 -248 -205q-41 -84 -79 -240q-38 -157 -38 -245t43 -144t119 -55q76 0 135 56t111 177q102 246 102 447q1 97 -37 153t-108 56zM432 954q0 -24 -16 -137q127 168 289 168q125 0 199 -87t75 -224q0 -136 -45 -272t-121 -232q-145 -188 -340 -188
q-82 0 -130 36t-81 123l-135 -544h-164l291 1167q16 63 16 93t-23 42t-97 16l8 37q156 10 272 37q2 -11 2 -35z" />
    <glyph glyph-name="q" unicode="q" 
d="M594 928q-137 0 -256 -228t-119 -464q0 -94 38 -146t105 -51q230 0 343 474q33 138 33 225q0 86 -40 138q-38 52 -104 52zM59 295q0 270 161 480t368 210q176 0 207 -176q29 119 73 180q78 -20 144 -26q-55 -92 -107 -301l-268 -1065h-162l135 544q-76 -90 -134 -125
t-138 -34q-127 0 -203 85t-76 228z" />
    <glyph glyph-name="r" unicode="r" horiz-adv-x="710" 
d="M706 743q-77 0 -77 71q0 34 37 54q-14 31 -50 31q-72 0 -146 -115t-120 -290l-125 -494h-162l191 760q16 74 16 100t-19 36q-19 9 -75 9h-26l8 37q170 14 256 53q8 -33 8 -71t-35 -179q131 244 279 244q70 0 105 -34q34 -34 34 -88t-30 -89t-69 -35z" />
    <glyph glyph-name="s" unicode="s" horiz-adv-x="800" 
d="M668 743q0 87 -45 137t-125 50t-138 -48t-57 -108q0 -60 33 -93q33 -34 158 -110t168 -131t43 -133q0 -139 -110 -235q-109 -96 -279 -96t-302 137l41 206l49 3v-41q0 -113 58 -179t154 -66q97 0 165 64q68 63 68 154q0 59 -34 94t-161 115t-164 127t-36 115
q0 119 95 203t230 83q61 0 125 -20q64 -21 90 -21t74 29l-55 -279h-49q4 20 4 43z" />
    <glyph glyph-name="t" unicode="t" horiz-adv-x="569" 
d="M300 -18q-93 0 -140 47t-47 117t65 362l84 383h-127l15 61q182 0 296 308h62l-70 -295h234l-19 -74h-229l-121 -569q-25 -115 -25 -159t26 -72q24 -28 70 -28t130 41l-15 -59q-96 -63 -189 -63z" />
    <glyph glyph-name="u" unicode="u" horiz-adv-x="1085" 
d="M289 197q0 -53 37 -89t98 -36q115 0 197 110q47 63 84 213l143 574q84 2 168 20l-158 -633q-43 -174 -43 -209q0 -71 51 -71t115 102l39 -26q-58 -96 -104 -134t-113 -36q-143 0 -150 159q-125 -160 -286 -159q-109 0 -176 58t-66 153q0 57 20 139l115 461q12 45 12 71
t-23 36q-23 11 -99 13l10 35q158 12 315 53l-168 -671q-18 -80 -18 -133z" />
    <glyph glyph-name="v" unicode="v" horiz-adv-x="890" 
d="M809 891q0 43 -72 43h-22l-6 39q133 12 217 67q16 -34 16 -68t-19 -71t-126 -209l-459 -731h-47l-98 856q-8 74 -30 92t-102 23l11 41q143 -12 215 -12t209 12l-11 -41q-77 -2 -99 -16t-24 -58v-20l54 -654l327 553q66 111 66 154z" />
    <glyph glyph-name="w" unicode="w" horiz-adv-x="1335" 
d="M294 963q85 0 208 10l-10 -41l-25 -2q-70 -6 -84 -30t-12 -124l-4 -571l434 803h67l37 -805l297 559q43 82 43 117q0 47 -53 53q-14 2 -51 2l-4 41q123 8 211 65q22 -46 22 -76t-15 -66t-85 -161l-430 -776h-62l-39 803l-442 -803h-57l-37 811q-5 106 -25 131t-98 29
l10 41q119 -10 204 -10z" />
    <glyph glyph-name="x" unicode="x" horiz-adv-x="954" 
d="M367 963q92 0 200 10l-10 -41q-96 -12 -96 -58q0 -25 20 -79l62 -195l209 227q45 47 45 72q0 37 -86 37l-4 37q117 14 188 67q29 -38 29 -68t-22 -62t-97 -111l-242 -258l99 -295q36 -104 58 -135t58 -31t57 18q22 18 50 72l37 -16q-70 -172 -211 -172q-80 0 -124 45
t-85 172l-70 211l-233 -252q-86 -90 -36 -112q17 -7 64 -11l-10 -41q-103 10 -153 10t-177 -10l11 41q61 4 106 31t113 94l293 309l-125 377q-31 84 -142 86l11 41q121 -10 213 -10z" />
    <glyph glyph-name="y" unicode="y" horiz-adv-x="851" 
d="M276 963q94 0 209 10l-10 -41q-71 -4 -95 -16t-24 -43q0 -30 2 -39l58 -617l327 553q49 84 49 125t-67 41q-14 0 -27 -2l-4 39q117 8 215 65q14 -43 15 -80t-94 -178q-17 -27 -25 -41l-496 -807q-127 -207 -209 -269t-223 -66h-20v135q59 -20 106 -21q131 0 295 256
l39 64l-109 805q-8 57 -31 74q-24 17 -96 22l11 41q110 -10 204 -10z" />
    <glyph glyph-name="z" unicode="z" horiz-adv-x="821" 
d="M330 166q47 0 153 -21q33 -4 47 -4q59 0 100 35q40 35 89 129h43q-51 -168 -127 -242t-195 -73q-62 0 -176 32t-161 33q-47 0 -115 -55h-72l825 856q-123 -51 -215 -51q-41 0 -108 16q-67 17 -100 17q-70 1 -142 -144h-43q41 131 84 185q74 96 182 96q57 0 171 -34
t165 -34t123 51h74l-819 -843q115 51 217 51z" />
    <glyph glyph-name="braceleft" unicode="{" horiz-adv-x="628" 
d="M262 -432q-102 0 -150 31t-48 83t18 130l129 514q10 47 10 77q0 70 -94 103q78 24 116 60t54 106l125 504q33 137 90 180t207 43h33q-80 -23 -120 -66t-61 -135l-120 -487q-23 -88 -62 -133t-115 -72q86 -49 86 -115q0 -43 -12 -88l-131 -528q-12 -53 -12 -88
q-1 -84 114 -119h-57z" />
    <glyph glyph-name="bar" unicode="|" 
d="M483 1366h97v-1708h-97v1708z" />
    <glyph glyph-name="braceright" unicode="}" horiz-adv-x="628" 
d="M375 1399q198 0 198 -116q0 -54 -18 -128l-127 -514q-12 -47 -12 -78q0 -68 94 -102q-76 -19 -114 -57t-56 -109l-125 -502q-20 -90 -43 -129t-66 -61q-59 -35 -188 -35h-33q82 22 120 66t61 135l120 487q23 88 63 134t113 71q-86 49 -86 117q0 37 13 86l131 528
q12 53 12 88q0 84 -115 119h58z" />
    <glyph glyph-name="asciitilde" unicode="~" horiz-adv-x="1366" 
d="M488 1380q-58 0 -94 -24t-99 -96l-27 16q121 195 285 194q57 0 178 -41t172 -40q113 -1 207 114l27 -18q-47 -82 -127 -136q-80 -55 -136 -55t-193 43q-135 43 -193 43z" />
    <glyph glyph-name="exclamdown" unicode="&#xa1;" horiz-adv-x="528" 
d="M367 985q51 0 81 -29q30 -30 29 -78q0 -48 -42 -92t-92 -43q-50 0 -79 29q-28 29 -28 80t39 92q41 41 92 41zM354 557l-186 -930h-188l266 930h108z" />
    <glyph glyph-name="cent" unicode="&#xa2;" horiz-adv-x="1056" 
d="M481 252l217 874q-106 -39 -178 -143q-70 -105 -114 -249t-46 -263q0 -170 121 -219zM948 1141q20 0 56 24l-68 -321h-47q4 36 4 104t-31 116t-96 60l-221 -882q92 -2 166 72t114 208h82q-41 -160 -141 -253t-238 -97l-36 -147h-68l39 149q-127 18 -196 104t-69 227
t55 285q54 144 144 244q127 143 318 152l37 153h67l-39 -155q48 -6 98 -24t70 -19z" />
    <glyph glyph-name="sterling" unicode="&#xa3;" horiz-adv-x="1056" 
d="M510 0h-510q51 49 90 119t103 227l118 322h-145l16 65h154l65 174q178 481 494 482q217 0 217 -218q0 -23 -2 -38h-92q2 23 2 43q0 66 -32 104t-89 37q-121 0 -213 -141q-47 -74 -102 -224l-82 -219h243l-16 -65h-252l-90 -238q-86 -221 -242 -364q133 66 224 65
q45 0 117 -19t120 -20q137 0 225 205h78q-49 -152 -145 -234q-45 -37 -97 -50t-157 -13z" />
    <glyph glyph-name="currency" unicode="&#xa4;" horiz-adv-x="1366" 
d="M746 1071q-148 0 -252 -103q-104 -102 -104 -252t104 -254t250 -106q146 0 250 104t106 252q0 148 -104 254q-102 106 -250 105zM750 242q-152 0 -299 106l-191 -190l-72 71l187 193q-105 135 -105 291t107 293l-195 190l74 74l190 -191q141 107 297 107t295 -107
l193 189l72 -72l-191 -190q106 -137 106 -292t-104 -292l193 -193l-74 -71l-193 190q-138 -106 -290 -106z" />
    <glyph glyph-name="yen" unicode="&#xa5;" horiz-adv-x="1056" 
d="M489 1358q98 0 250 14l-12 -49q-92 -9 -122 -23t-30 -43t17 -118l86 -482l352 496q113 154 19 154q-12 0 -58 -7l-8 48q158 23 266 69q2 -25 2 -45t-19 -52t-134 -190l-168 -231h184l-18 -76h-222l-112 -153h295l-19 -76h-331l-103 -414q-12 -47 -12 -76q0 -51 137 -61
l-12 -49q-160 14 -242 14t-254 -14l12 49q109 10 145 34t54 103l103 414h-353l19 76h317l-33 153h-245l18 76h211l-47 213q-27 135 -55 168q-29 33 -129 43l10 49q143 -14 241 -14z" />
    <glyph glyph-name="brokenbar" unicode="&#xa6;" 
d="M483 313h97v-655h-97v655zM483 1366h97v-680h-97v680z" />
    <glyph glyph-name="section" unicode="&#xa7;" 
d="M279 567q0 -72 86 -139l204 -154q205 66 205 207q0 78 -88 146l-176 131q-231 -61 -231 -191zM100 -37q0 -103 60 -159t170 -56t182 64t72 161q0 98 -101 174l-217 164q-110 84 -110 207t118 207q51 33 179 76q-76 66 -106 117t-30 110q0 135 114 230q115 96 265 96
t229 -69t79 -187q0 -23 -7 -72h-79q4 23 4 49q0 193 -205 193q-102 0 -172 -60t-70 -147q0 -47 27 -84t94 -88l178 -135q129 -96 129 -219q0 -201 -280 -299q123 -109 123 -241t-116 -229q-114 -98 -277 -98t-251 73t-88 202q0 32 4 63h84q-2 -16 -2 -43z" />
    <glyph glyph-name="dieresis" unicode="&#xa8;" 
d="M893 1366q45 0 73 -28t28 -74t-39 -83q-38 -38 -84 -38q-45 1 -73 27t-28 71t39 85t84 40zM548 1366q46 0 73 -28t27 -74t-39 -83q-38 -38 -84 -38q-45 1 -73 27t-28 71t39 85t85 40z" />
    <glyph glyph-name="copyright" unicode="&#xa9;" horiz-adv-x="1628" 
d="M864 258q-143 0 -238 117q-96 117 -96 309t96 308t255 116q119 0 196 -70l43 68h33v-250h-41q-27 104 -79 152t-138 49q-238 0 -238 -369q1 -176 61 -270t164 -94q207 0 224 233h57q-6 -143 -81 -221t-218 -78zM869 1319q-263 0 -449 -186q-186 -187 -186 -449t184 -450
q186 -188 450 -187q264 0 451 184q186 183 186 449t-186 453q-187 186 -450 186zM870 1389q293 0 499 -207t206 -501t-208 -499t-501 -205q-294 0 -498 208t-204 500t206 498t500 206z" />
    <glyph glyph-name="ordfeminine" unicode="&#xaa;" horiz-adv-x="704" 
d="M143 674h543l-16 -70h-543zM547 1341q-80 1 -152 -139q-71 -140 -71 -257t79 -118q90 0 156 136q27 59 47 142t21 132t-21 77t-59 27zM688 848q24 0 72 63l33 -20q-66 -111 -151 -111t-91 88q-41 -49 -76 -68q-35 -20 -103 -20t-114 49q-47 49 -47 136q0 165 101 293
t231 128q94 0 121 -83l22 75q68 1 115 15l-109 -385q-28 -102 -28 -131t24 -29z" />
    <glyph glyph-name="guillemotleft" unicode="&#xab;" horiz-adv-x="798" 
d="M735 965h70l-285 -478l43 -487h-55l-121 487zM471 965h64l-281 -478l39 -487h-51l-125 487z" />
    <glyph glyph-name="logicalnot" unicode="&#xac;" 
d="M795 0v471h-701v76h875v-547h-174z" />
    <glyph glyph-name="registered" unicode="&#xae;" horiz-adv-x="1628" 
d="M752 707h98q180 0 180 172q0 164 -174 163h-104v-335zM793 657h-43v-270q0 -47 17 -59t87 -17v-41q-173 13 -328 0v41q72 5 88 17t17 59v590q1 45 -17 57t-88 17v41h346q111 0 181 -39q98 -63 98 -179q0 -53 -29 -101t-73 -73q-20 -12 -86 -32q35 -16 52 -38t44 -79
l80 -172q19 -43 37 -54t67 -14v-41l-90 4l-88 -4l-135 295q-27 55 -53 74q-27 18 -84 18zM867 1319q-263 0 -449 -186q-186 -187 -186 -449t184 -450q186 -188 450 -187q264 0 451 184q186 183 186 449t-186 453q-187 186 -450 186zM864 -23q-294 0 -498 208t-204 500
t206 498t499 206q292 0 499 -207t207 -501t-208 -499t-501 -205z" />
    <glyph glyph-name="macron" unicode="&#xaf;" 
d="M391 1194l27 104h624l-26 -104h-625z" />
    <glyph glyph-name="degree" unicode="&#xb0;" 
d="M672 1303q-80 -1 -137 -57t-57 -136t56 -136t137 -56t138 56t57 136t-57 136t-137 57zM672 1393q119 0 204 -83t85 -200t-85 -200t-205 -83t-204 83t-84 201t85 200t204 82z" />
    <glyph glyph-name="plusminus" unicode="&#xb1;" horiz-adv-x="1056" 
d="M86 55v121h852v-121h-852zM86 631v121h360v356h132v-356h360v-121h-360v-348h-132v348h-360z" />
    <glyph glyph-name="twosuperior" unicode="&#xb2;" horiz-adv-x="690" 
d="M629 1169q0 43 -29 68t-76 25q-125 0 -198 -168h-58q70 250 291 249q88 0 141 -43q54 -43 54 -109q0 -65 -42 -129t-203 -215t-247 -218h361l-39 -99h-473l18 74q207 184 323 305t146 169q31 48 31 91z" />
    <glyph glyph-name="threesuperior" unicode="&#xb3;" horiz-adv-x="690" 
d="M137 768h66q6 -172 157 -172q78 0 130 56t52 134t-42 108q-43 32 -138 36l15 55h18q90 0 150 51q59 51 59 127q0 45 -32 75t-80 30q-104 0 -166 -138h-58q61 213 254 213q90 0 146 -46q56 -47 55 -123q0 -76 -50 -134t-138 -79q71 -29 101 -68t30 -105q0 -112 -85 -190
t-202 -78t-179 60t-63 163v25z" />
    <glyph glyph-name="acute" unicode="&#xb4;" 
d="M569 1087l269 302h227l-387 -302h-109z" />
    <glyph glyph-name="mu" unicode="&#xb5;" horiz-adv-x="901" 
d="M348 -31q-168 0 -223 183v-62q0 -92 15 -223q16 -131 16 -165t-20 -62t-49 -27q-30 0 -50 27q-21 28 -21 64t15 122q55 336 55 754v356h129v-586q0 -102 11 -151t52 -93t122 -44t143 38q61 39 123 129v707h129v-700q0 -92 16 -124t54 -32t73 24v-30l-156 -94l-8 -3
q-33 0 -57 29q-31 31 -39 111l-6 37q-115 -111 -178 -148t-146 -37z" />
    <glyph glyph-name="paragraph" unicode="&#xb6;" horiz-adv-x="1071" 
d="M213 942q0 104 50 198q89 166 286 209q82 17 221 17h461l-14 -49q-109 -6 -147 -32t-56 -103l-367 -1475h-110l364 1458q16 70 17 90q0 47 -68 47t-95 -25q-26 -26 -46 -112l-365 -1458h-108l239 963q-262 31 -262 272z" />
    <glyph glyph-name="periodcentered" unicode="&#xb7;" horiz-adv-x="516" 
d="M282 616q50 0 78 -30t29 -79q0 -50 -41 -91t-91 -41q-50 1 -80 29t-30 77t42 92q43 43 93 43z" />
    <glyph glyph-name="cedilla" unicode="&#xb8;" 
d="M449 -238q0 72 -134 78l127 160h86l-92 -121q143 -14 144 -119q0 -74 -65 -122t-151 -50q-86 0 -157 33l14 60q66 -19 112 -19t81 28t35 72z" />
    <glyph glyph-name="onesuperior" unicode="&#xb9;" horiz-adv-x="690" 
d="M459 620q0 -40 102 -49l-10 -45q-180 18 -361 0l13 45q79 7 105 25t40 78l129 518l-129 -2l10 43q162 10 236 135h47l-172 -684q-10 -44 -10 -64z" />
    <glyph glyph-name="ordmasculine" unicode="&#xba;" horiz-adv-x="675" 
d="M119 674h543l-17 -70h-543zM547 1348q-84 0 -144 -121q-66 -127 -65 -256q0 -66 28 -103t78 -37q88 -1 142 131t55 259q0 127 -94 127zM555 1393q96 1 147 -53t52 -154q0 -174 -89 -288t-227 -114q-100 0 -156 58t-57 157q-1 168 97 281t233 113z" />
    <glyph glyph-name="guillemotright" unicode="&#xbb;" horiz-adv-x="798" 
d="M72 0h-68l285 477l-43 488h55l121 -488zM338 0h-64l281 477l-41 488h53l125 -488z" />
    <glyph glyph-name="onequarter" unicode="&#xbc;" horiz-adv-x="1511" 
d="M1178 309l108 428l-358 -428h250zM1098 -6l57 227h-352l8 31l475 561h131l-125 -504h123l-22 -88h-121l-58 -227h-116zM217 0l1090 1335h90l-1090 -1335h-90zM459 620q0 -40 102 -49l-10 -45q-180 18 -361 0l13 45q79 7 105 25t40 78l129 518l-129 -2l10 43
q162 10 236 135h47l-172 -684q-10 -44 -10 -64z" />
    <glyph glyph-name="onehalf" unicode="&#xbd;" horiz-adv-x="1511" 
d="M1319 639q0 43 -29 68t-76 24q-123 0 -198 -168h-58q70 250 291 250q87 0 141 -43q54 -42 54 -110t-43 -132t-211 -220q-168 -157 -238 -210h361l-39 -98h-473l18 74q394 353 469 474q31 48 31 91zM217 0l1090 1335h90l-1090 -1335h-90zM459 620q0 -40 102 -49l-10 -45
q-180 18 -361 0l13 45q79 7 105 25t40 78l129 518l-129 -2l10 43q162 10 236 135h47l-172 -684q-10 -44 -10 -64z" />
    <glyph glyph-name="threequarters" unicode="&#xbe;" horiz-adv-x="1511" 
d="M1176 309l108 428l-356 -428h248zM1096 -6l57 227h-352l8 31l475 561h131l-123 -504h121l-22 -88h-121l-56 -227h-118zM215 0l1092 1335h88l-1090 -1335h-90zM137 768h66q6 -172 157 -172q78 0 130 56t52 134t-42 108q-43 32 -138 36l15 55h18q90 0 150 51q59 51 59 127
q0 45 -32 75t-80 30q-104 0 -166 -138h-58q61 213 254 213q90 0 146 -46q56 -47 55 -123q0 -76 -50 -134t-138 -79q71 -29 101 -68t30 -105q0 -112 -85 -190t-202 -78t-179 60t-63 163v25z" />
    <glyph glyph-name="questiondown" unicode="&#xbf;" horiz-adv-x="901" 
d="M607 977q50 0 80 -29q30 -30 30 -78t-43 -92t-92 -43q-49 0 -78 29t-29 80t41 92t91 41zM160 -124q0 -66 43 -110t110 -45q176 0 267 234h69q-35 -168 -137 -260t-238 -92q-136 1 -214 73q-76 72 -76 176t51 175t199 163t208 169t80 208h86q-14 -155 -66 -239t-179 -182
t-165 -150q-38 -53 -38 -120z" />
    <glyph glyph-name="Agrave" unicode="&#xc0;" horiz-adv-x="1247" 
d="M963 1503h-95l-258 305h224zM377 459h432l-43 665zM180 94q0 -45 117 -51l-12 -49q-103 10 -189 10t-192 -10l12 49q84 4 131 39t109 137l723 1208h14l113 -1232q8 -88 36 -116t125 -36l-12 -49q-137 14 -239 14t-252 -14l12 49q96 11 125 27t28 65l-2 51l-14 209h-473
l-125 -211q-35 -63 -35 -90z" />
    <glyph glyph-name="Aacute" unicode="&#xc1;" horiz-adv-x="1245" 
d="M788 1503l281 305h238l-406 -305h-113zM377 459h432l-43 665zM180 94q0 -45 117 -51l-12 -49q-103 10 -189 10t-192 -10l12 49q84 4 131 39t109 137l723 1208h14l113 -1232q8 -88 36 -116t125 -36l-12 -49q-137 14 -239 14t-252 -14l12 49q96 11 125 27t28 65l-2 51
l-14 209h-473l-125 -211q-35 -63 -35 -90z" />
    <glyph glyph-name="Acircumflex" unicode="&#xc2;" horiz-adv-x="1247" 
d="M537 1503l360 301h94l203 -301h-94l-185 178l-270 -178h-108zM377 459h432l-43 665zM180 94q0 -45 117 -51l-12 -49q-103 10 -189 10t-192 -10l12 49q84 4 131 39t109 137l723 1208h14l113 -1232q8 -88 36 -116t125 -36l-12 -49q-137 14 -239 14t-252 -14l12 49
q96 11 125 27t28 65l-2 51l-14 209h-473l-125 -211q-35 -63 -35 -90z" />
    <glyph glyph-name="Atilde" unicode="&#xc3;" horiz-adv-x="1245" 
d="M793 1774q61 0 143 -62t119 -61q82 0 143 129l70 -33q-92 -217 -248 -217q-41 0 -72 14t-89 62t-99 47q-81 0 -142 -119l-69 31q104 209 244 209zM377 459h432l-43 665zM180 94q0 -45 117 -51l-12 -49q-103 10 -189 10t-192 -10l12 49q84 4 131 39t109 137l723 1208h14
l113 -1232q8 -88 36 -116t125 -36l-12 -49q-137 14 -239 14t-252 -14l12 49q96 11 125 27t28 65l-2 51l-14 209h-473l-125 -211q-35 -63 -35 -90z" />
    <glyph glyph-name="middot" unicode="&#xc4;" horiz-adv-x="516" 
d="M282 616q50 0 78 -30t29 -79q0 -50 -41 -91t-91 -41q-50 1 -80 29t-30 77t42 92q43 43 93 43z" />
    <glyph glyph-name="Aring" unicode="&#xc5;" horiz-adv-x="1247" 
d="M1010 1668q0 40 -30 70t-70 29t-70 -29t-29 -70q0 -42 29 -71q30 -29 70 -29t70 30t30 70zM911 1497q-71 0 -121 50t-50 121t49 121q50 50 121 50t121 -50t50 -121t-49 -121t-121 -50zM377 459h432l-43 665zM180 94q0 -45 117 -51l-12 -49q-103 10 -189 10t-192 -10
l12 49q84 4 131 39t109 137l723 1208h14l113 -1232q8 -88 36 -116t125 -36l-12 -49q-137 14 -239 14t-252 -14l12 49q96 11 125 27t28 65l-2 51l-14 209h-473l-125 -211q-35 -63 -35 -90z" />
    <glyph glyph-name="AE" unicode="&#xc6;" horiz-adv-x="1769" 
d="M514 539h426l195 768h-11zM1761 1059q0 151 -37 197t-155 47h-266l-138 -553h449l-19 -72h-448l-123 -494q-10 -41 -10 -63q0 -57 110 -58h166q119 -1 190 55t148 212h45l-129 -330h-901l12 51q106 6 143 31q36 25 54 104l72 289h-461l-230 -289q-49 -61 -49 -90t24 -39
t91 -12l-12 -51q-152 10 -197 10t-201 -10l13 51q141 16 254 154l940 1167h753l-43 -307h-45z" />
    <glyph glyph-name="Ccedilla" unicode="&#xc7;" horiz-adv-x="1136" 
d="M431 -434q-89 0 -167 35l17 65q71 -20 117 -20t83 30t37 74q0 76 -139 82l113 141q-178 15 -274 135t-97 311q0 191 57 373t156 320q203 285 514 285q76 -1 121 -13t113 -44t94 -33q25 0 65 20l-78 -356h-51q4 70 4 73q0 139 -68 214q-69 75 -194 75q-250 0 -416 -327
q-63 -129 -102 -295t-39 -317q0 -152 76 -242q77 -90 217 -90t252 107q112 108 162 300h75q-53 -219 -191 -359t-304 -137l-76 -100q150 -16 149 -127q-1 -78 -69 -129t-157 -51z" />
    <glyph glyph-name="Egrave" unicode="&#xc8;" horiz-adv-x="1071" 
d="M903 1503h-94l-258 305h223zM420 1254q0 28 -30 41t-111 20l12 51h866l-43 -307h-45q0 92 -9 133t-44 76t-168 35h-236l-139 -555h447l-17 -72h-446l-117 -465q-14 -53 -14 -84q0 -63 129 -64h141q122 -1 192 55t148 212h45l-127 -330h-903l12 51q106 6 143 32t56 103
l248 994q10 46 10 74z" />
    <glyph glyph-name="Eacute" unicode="&#xc9;" horiz-adv-x="1071" 
d="M659 1503l281 305h238l-406 -305h-113zM420 1254q0 28 -30 41t-111 20l12 51h866l-43 -307h-45q0 92 -9 133t-44 76t-168 35h-236l-139 -555h447l-17 -72h-446l-117 -465q-14 -53 -14 -84q0 -63 129 -64h141q122 -1 192 55t148 212h45l-127 -330h-903l12 51q106 6 143 32
t56 103l248 994q10 46 10 74z" />
    <glyph glyph-name="Ecircumflex" unicode="&#xca;" horiz-adv-x="1071" 
d="M436 1503l361 301h94l203 -301h-95l-184 178l-270 -178h-109zM420 1254q0 28 -30 41t-111 20l12 51h866l-43 -307h-45q0 92 -9 133t-44 76t-168 35h-236l-139 -555h447l-17 -72h-446l-117 -465q-14 -53 -14 -84q0 -63 129 -64h141q122 -1 192 55t148 212h45l-127 -330
h-903l12 51q106 6 143 32t56 103l248 994q10 46 10 74z" />
    <glyph glyph-name="Edieresis" unicode="&#xcb;" horiz-adv-x="1071" 
d="M999 1772q51 0 79 -30t28 -80t-41 -91t-91 -41t-80 29t-30 77t42 93q43 43 93 43zM624 1772q50 0 78 -29t29 -80q0 -51 -40 -92t-91 -41t-81 29t-30 77t42 93q43 43 93 43zM420 1254q0 28 -30 41t-111 20l12 51h866l-43 -307h-45q0 92 -9 133t-44 76t-168 35h-236
l-139 -555h447l-17 -72h-446l-117 -465q-14 -53 -14 -84q0 -63 129 -64h141q122 -1 192 55t148 212h45l-127 -330h-903l12 51q106 6 143 32t56 103l248 994q10 46 10 74z" />
    <glyph glyph-name="Igrave" unicode="&#xcc;" horiz-adv-x="632" 
d="M643 1503h-94l-258 305h223zM202 8q-78 0 -253 -14l12 49q109 8 145 33t54 104l250 1006q12 46 12 74t-30 42t-111 21l12 49q164 -14 245 -14t250 14l-12 -49q-104 -8 -139 -33t-55 -104l-250 -1006q-12 -46 -12 -74t28 -42q29 -14 111 -21l-15 -49q-164 14 -242 14z" />
    <glyph glyph-name="Iacute" unicode="&#xcd;" horiz-adv-x="632" 
d="M481 1503l269 305h229l-385 -305h-113zM202 8q-78 0 -253 -14l12 49q109 8 145 33t54 104l250 1006q12 46 12 74t-30 42t-111 21l12 49q164 -14 245 -14t250 14l-12 -49q-104 -8 -139 -33t-55 -104l-250 -1006q-12 -46 -12 -74t28 -42q29 -14 111 -21l-15 -49
q-164 14 -242 14z" />
    <glyph glyph-name="Icircumflex" unicode="&#xce;" horiz-adv-x="632" 
d="M252 1503l332 301h94l176 -301h-94l-158 178l-242 -178h-108zM202 8q-78 0 -253 -14l12 49q109 8 145 33t54 104l250 1006q12 46 12 74t-30 42t-111 21l12 49q164 -14 245 -14t250 14l-12 -49q-104 -8 -139 -33t-55 -104l-250 -1006q-12 -46 -12 -74t28 -42
q29 -14 111 -21l-15 -49q-164 14 -242 14z" />
    <glyph glyph-name="Idieresis" unicode="&#xcf;" horiz-adv-x="632" 
d="M761 1765q48 -1 76 -29q27 -28 27 -76t-39 -88t-88 -40t-78 28t-29 74t42 89q41 42 89 42zM443 1765q47 -1 75 -29t29 -76q0 -48 -39 -88t-88 -40t-78 28t-29 74t41 89q42 42 89 42zM202 8q-78 0 -253 -14l12 49q109 8 145 33t54 104l250 1006q12 46 12 74t-30 42
t-111 21l12 49q164 -14 245 -14t250 14l-12 -49q-104 -8 -139 -33t-55 -104l-250 -1006q-12 -46 -12 -74t28 -42q29 -14 111 -21l-15 -49q-164 14 -242 14z" />
    <glyph glyph-name="Eth" unicode="&#xd0;" horiz-adv-x="1341" 
d="M1147 949q0 214 -107 294q-82 59 -256 60h-172l-137 -547h320l-21 -78h-317l-121 -485q-16 -61 -16 -83q-1 -45 128 -46q253 -2 388 114q135 115 223 336t88 435zM420 1254q0 26 -29 40t-112 21l12 51h493q156 0 246 -23q293 -75 293 -442q0 -207 -78 -393t-215 -313
q-115 -103 -246 -149t-315 -46h-518l12 51q109 6 145 31t54 104l123 492h-166l20 78h164l107 424q10 48 10 74z" />
    <glyph glyph-name="Ntilde" unicode="&#xd1;" horiz-adv-x="1335" 
d="M838 1774q61 0 143 -62t119 -61q82 0 143 129l70 -33q-92 -217 -248 -217q-41 0 -72 14t-89 62t-99 47q-80 0 -141 -119l-70 31q104 209 244 209zM219 125q0 -41 28 -57t103 -25l-14 -49q-131 10 -199 10t-194 -10l12 49q121 10 166 82q31 55 115 385l186 752
q-29 53 -152 61l13 49q98 -6 159 -6t154 6l412 -1079l209 870q12 49 12 85t-29 52t-106 23l12 49q125 -10 200 -10t193 10l-12 -49q-98 -10 -140 -49t-71 -152l-291 -1163h-27l-477 1282l-207 -848q-55 -227 -55 -268z" />
    <glyph glyph-name="Ograve" unicode="&#xd2;" horiz-adv-x="1263" 
d="M973 1503h-94l-258 305h223zM1065 948q-1 178 -71 282t-182 105q-112 0 -195 -71q-83 -72 -155 -218t-112 -317q-41 -171 -41 -331t71 -264t191 -103q215 0 365 344q129 291 129 573zM809 1393q199 0 317 -129q115 -121 115 -369q0 -176 -50 -348t-140 -303
q-186 -270 -482 -271q-209 0 -323 129q-114 128 -113 350q0 222 69 420t183 328q170 193 424 193z" />
    <glyph glyph-name="Oacute" unicode="&#xd3;" horiz-adv-x="1263" 
d="M764 1503l280 305h238l-405 -305h-113zM1065 948q-1 178 -71 282t-182 105q-112 0 -195 -71q-83 -72 -155 -218t-112 -317q-41 -171 -41 -331t71 -264t191 -103q215 0 365 344q129 291 129 573zM809 1393q199 0 317 -129q115 -121 115 -369q0 -176 -50 -348t-140 -303
q-186 -270 -482 -271q-209 0 -323 129q-114 128 -113 350q0 222 69 420t183 328q170 193 424 193z" />
    <glyph glyph-name="Ocircumflex" unicode="&#xd4;" horiz-adv-x="1263" 
d="M526 1503l361 301h94l203 -301h-94l-185 178l-270 -178h-109zM1065 948q-1 178 -71 282t-182 105q-112 0 -195 -71q-83 -72 -155 -218t-112 -317q-41 -171 -41 -331t71 -264t191 -103q215 0 365 344q129 291 129 573zM809 1393q199 0 317 -129q115 -121 115 -369
q0 -176 -50 -348t-140 -303q-186 -270 -482 -271q-209 0 -323 129q-114 128 -113 350q0 222 69 420t183 328q170 193 424 193z" />
    <glyph glyph-name="Otilde" unicode="&#xd5;" horiz-adv-x="1263" 
d="M788 1774q62 0 144 -62t119 -61q82 0 143 129l70 -33q-92 -217 -248 -217q-41 0 -72 14t-89 62t-99 47q-81 0 -142 -119l-69 31q104 209 243 209zM1065 948q-1 178 -71 282t-182 105q-112 0 -195 -71q-83 -72 -155 -218t-112 -317q-41 -171 -41 -331t71 -264t191 -103
q215 0 365 344q129 291 129 573zM809 1393q199 0 317 -129q115 -121 115 -369q0 -176 -50 -348t-140 -303q-186 -270 -482 -271q-209 0 -323 129q-114 128 -113 350q0 222 69 420t183 328q170 193 424 193z" />
    <glyph glyph-name="Odieresis" unicode="&#xd6;" horiz-adv-x="1263" 
d="M1091 1772q51 0 79 -30t28 -80t-41 -91t-91 -41t-80 29t-30 77t42 93q43 43 93 43zM716 1772q50 0 79 -29t29 -80t-41 -92q-40 -41 -91 -41t-81 29q-29 29 -29 77t42 92t92 44zM1065 948q-1 178 -71 282t-182 105q-112 0 -195 -71q-83 -72 -155 -218t-112 -317
q-41 -171 -41 -331t71 -264t191 -103q215 0 365 344q129 291 129 573zM809 1393q199 0 317 -129q115 -121 115 -369q0 -176 -50 -348t-140 -303q-186 -270 -482 -271q-209 0 -323 129q-114 128 -113 350q0 222 69 420t183 328q170 193 424 193z" />
    <glyph glyph-name="multiply" unicode="&#xd7;" horiz-adv-x="1056" 
d="M201 987l88 88l299 -299l295 295l84 -82l-295 -297l297 -297l-88 -90l-297 299l-297 -295l-82 84l295 295z" />
    <glyph glyph-name="Oslash" unicode="&#xd8;" horiz-adv-x="1263" 
d="M803 1335q-219 0 -367 -346q-125 -293 -125 -563q0 -23 2 -39l734 723q-63 225 -244 225zM571 31q238 0 390 405q102 264 102 518v64l-739 -731q49 -256 247 -256zM133 477q0 201 69 397t183 324q170 195 414 195t364 -174l152 147h110l-225 -219q41 -109 41 -269
t-51 -333q-51 -174 -139 -301q-186 -270 -482 -271q-253 0 -370 199l-176 -172h-113l254 248q-31 111 -31 229z" />
    <glyph glyph-name="Ugrave" unicode="&#xd9;" horiz-adv-x="1318" 
d="M1026 1503h-94l-258 305h223zM1302 1362q74 0 195 10l-14 -49q-106 -12 -148 -59q-27 -35 -42 -83t-79 -286l-110 -446q-51 -203 -137 -306q-137 -166 -396 -166q-178 0 -279 79t-102 218q0 80 25 179l182 733q13 46 13 74t-30 42t-112 21l13 49q163 -14 243 -14t252 14
l-12 -49q-104 -8 -139 -33t-54 -104l-186 -744q-25 -100 -25 -163q0 -93 72 -151t189 -58t209 56t136 148q46 92 103 320l98 395q57 231 57 265t-26 48t-108 21l12 49q126 -10 200 -10z" />
    <glyph glyph-name="Uacute" unicode="&#xda;" horiz-adv-x="1318" 
d="M825 1503l281 305h237l-405 -305h-113zM1302 1362q74 0 195 10l-14 -49q-106 -12 -148 -59q-27 -35 -42 -83t-79 -286l-110 -446q-51 -203 -137 -306q-137 -166 -396 -166q-178 0 -279 79t-102 218q0 80 25 179l182 733q13 46 13 74t-30 42t-112 21l13 49
q163 -14 243 -14t252 14l-12 -49q-104 -8 -139 -33t-54 -104l-186 -744q-25 -100 -25 -163q0 -93 72 -151t189 -58t209 56t136 148q46 92 103 320l98 395q57 231 57 265t-26 48t-108 21l12 49q126 -10 200 -10z" />
    <glyph glyph-name="Ucircumflex" unicode="&#xdb;" horiz-adv-x="1318" 
d="M594 1503l360 301h95l202 -301h-94l-184 178l-271 -178h-108zM1302 1362q74 0 195 10l-14 -49q-106 -12 -148 -59q-27 -35 -42 -83t-79 -286l-110 -446q-51 -203 -137 -306q-137 -166 -396 -166q-178 0 -279 79t-102 218q0 80 25 179l182 733q13 46 13 74t-30 42t-112 21
l13 49q163 -14 243 -14t252 14l-12 -49q-104 -8 -139 -33t-54 -104l-186 -744q-25 -100 -25 -163q0 -93 72 -151t189 -58t209 56t136 148q46 92 103 320l98 395q57 231 57 265t-26 48t-108 21l12 49q126 -10 200 -10z" />
    <glyph glyph-name="Udieresis" unicode="&#xdc;" horiz-adv-x="1318" 
d="M1028 1636q0 48 42 92t92 44t79 -30t29 -80t-41 -91t-91 -41t-80 29t-30 77zM788 1772q50 0 78 -29t29 -80q0 -51 -40 -92t-91 -41t-81 29t-30 77t42 93q43 43 93 43zM1302 1362q74 0 195 10l-14 -49q-106 -12 -148 -59q-27 -35 -42 -83t-79 -286l-110 -446
q-51 -203 -137 -306q-137 -166 -396 -166q-178 0 -279 79t-102 218q0 80 25 179l182 733q13 46 13 74t-30 42t-112 21l13 49q163 -14 243 -14t252 14l-12 -49q-104 -8 -139 -33t-54 -104l-186 -744q-25 -100 -25 -163q0 -93 72 -151t189 -58t209 56t136 148q46 92 103 320
l98 395q57 231 57 265t-26 48t-108 21l12 49q126 -10 200 -10z" />
    <glyph glyph-name="Yacute" unicode="&#xdd;" horiz-adv-x="1011" 
d="M657 1503l281 305h238l-406 -305h-113zM426 1358q98 0 248 14l-12 -49q-90 -8 -120 -21q-30 -12 -30 -42t14 -121l88 -480l353 494q61 86 61 120t-45 34q-12 0 -57 -7l-8 48q158 20 266 69l2 -12v-21q0 -36 -20 -68t-132 -186l-391 -534l-102 -416q-15 -51 -15 -77
t31 -40t109 -20l-13 -49q-165 14 -243 14t-252 -14l12 49q112 10 146 34t51 103l104 416l-115 516q-25 135 -53 168q-29 33 -129 43l10 49q144 -14 242 -14z" />
    <glyph glyph-name="Thorn" unicode="&#xde;" horiz-adv-x="1087" 
d="M545 489q115 0 187 31t128 103q98 133 98 295q0 106 -60 149t-208 43h-127l-153 -621h135zM202 8q-80 0 -253 -14l12 49q109 8 145 33t54 104l248 998q14 52 14 78t-31 40t-112 19l12 51q154 -16 246 -16t249 16l-12 -51q-106 -6 -140 -32t-54 -109h135q203 0 280 -44
q133 -68 133 -237q0 -103 -47 -201t-127 -162q-131 -104 -374 -104h-187l-61 -246q-12 -46 -12 -74t28 -42q29 -14 113 -21l-15 -49q-164 14 -244 14z" />
    <glyph glyph-name="germandbls" unicode="&#xdf;" horiz-adv-x="1050" 
d="M879 1159q0 158 -155 158t-222 -266l-195 -785q-67 -246 -91 -316t-73 -145q-131 -186 -395 -182l14 58q184 18 261 169q29 62 45 120t79 306l175 703q57 231 143 305q103 92 259 92q304 0 304 -248q0 -162 -121 -270q-82 -72 -205 -96q134 -35 194 -106t60 -195
q0 -193 -118 -334t-283 -141q-94 0 -178 59l14 61q61 -35 121 -34q135 0 217 143q66 121 66 257t-95 204q-57 39 -178 49l17 59q139 6 219 80q53 49 87 134t34 161z" />
    <glyph glyph-name="agrave" unicode="&#xe0;" horiz-adv-x="1042" 
d="M782 1087h-92l-239 302h213zM594 928q-154 0 -279 -291q-102 -236 -102 -417t133 -181q228 0 348 481q35 139 35 225q0 87 -36 135t-99 48zM760 130q0 -54 48 -54t118 100l39 -26q-51 -90 -103 -130t-121 -38q-143 0 -143 168q-111 -168 -270 -168q-129 0 -202 78
t-73 212q0 132 51 276t132 247q150 190 348 190q172 0 192 -178l45 162q96 2 168 20l-180 -635q-49 -170 -49 -224z" />
    <glyph glyph-name="aacute" unicode="&#xe1;" horiz-adv-x="1042" 
d="M565 1087l269 302h227l-387 -302h-109zM594 928q-154 0 -279 -291q-102 -236 -102 -417t133 -181q228 0 348 481q35 139 35 225q0 87 -36 135t-99 48zM760 130q0 -54 48 -54t118 100l39 -26q-51 -90 -103 -130t-121 -38q-143 0 -143 168q-111 -168 -270 -168
q-129 0 -202 78t-73 212q0 132 51 276t132 247q150 190 348 190q172 0 192 -178l45 162q96 2 168 20l-180 -635q-49 -170 -49 -224z" />
    <glyph glyph-name="acircumflex" unicode="&#xe2;" horiz-adv-x="1042" 
d="M360 1090l342 299h91l186 -299h-90l-170 176l-256 -176h-103zM594 928q-154 0 -279 -291q-102 -236 -102 -417t133 -181q228 0 348 481q35 139 35 225q0 87 -36 135t-99 48zM760 130q0 -54 48 -54t118 100l39 -26q-51 -90 -103 -130t-121 -38q-143 0 -143 168
q-111 -168 -270 -168q-129 0 -202 78t-73 212q0 132 51 276t132 247q150 190 348 190q172 0 192 -178l45 162q96 2 168 20l-180 -635q-49 -170 -49 -224z" />
    <glyph glyph-name="atilde" unicode="&#xe3;" horiz-adv-x="1042" 
d="M606 1364q59 0 138 -59t116 -60q78 0 137 123l68 -31q-88 -211 -240 -211q-39 0 -69 14t-88 61q-59 46 -95 46q-74 1 -135 -114l-67 28q102 203 235 203zM594 928q-154 0 -279 -291q-102 -236 -102 -417t133 -181q228 0 348 481q35 139 35 225q0 87 -36 135t-99 48z
M760 130q0 -54 48 -54t118 100l39 -26q-51 -90 -103 -130t-121 -38q-143 0 -143 168q-111 -168 -270 -168q-129 0 -202 78t-73 212q0 132 51 276t132 247q150 190 348 190q172 0 192 -178l45 162q96 2 168 20l-180 -635q-49 -170 -49 -224z" />
    <glyph glyph-name="adieresis" unicode="&#xe4;" horiz-adv-x="1042" 
d="M900 1366q46 0 73 -28t27 -74t-38 -83q-38 -38 -84 -38q-46 1 -74 27t-28 71t39 85t85 40zM553 1366q45 0 73 -28t28 -74t-39 -83q-38 -38 -84 -38q-45 1 -73 27t-28 71t39 85t84 40zM594 928q-154 0 -279 -291q-102 -236 -102 -417t133 -181q228 0 348 481
q35 139 35 225q0 87 -36 135t-99 48zM760 130q0 -54 48 -54t118 100l39 -26q-51 -90 -103 -130t-121 -38q-143 0 -143 168q-111 -168 -270 -168q-129 0 -202 78t-73 212q0 132 51 276t132 247q150 190 348 190q172 0 192 -178l45 162q96 2 168 20l-180 -635
q-49 -170 -49 -224z" />
    <glyph glyph-name="aring" unicode="&#xe5;" horiz-adv-x="1042" 
d="M715 1391q-45 0 -77 -31t-32 -77t31 -77q31 -30 77 -30t77 32t31 75q0 44 -31 76t-76 32zM715 1466q76 0 129 -54t53 -129t-53 -129t-129 -54t-130 53q-55 53 -55 130t54 130t131 53zM594 928q-154 0 -279 -291q-102 -236 -102 -417t133 -181q228 0 347 480
q36 144 36 227q0 82 -36 132t-99 50zM760 139q0 -63 48 -63t118 100l39 -26q-53 -90 -105 -130t-117 -38q-145 0 -145 168q-113 -168 -270 -168q-129 0 -202 78t-73 212q0 132 51 276t132 247q150 190 348 190q172 0 192 -178l45 162q96 2 168 20l-180 -635
q-49 -178 -49 -215z" />
    <glyph glyph-name="ae" unicode="&#xe6;" horiz-adv-x="1472" 
d="M1309 813q0 49 -34 82t-85 33q-100 0 -192 -114t-146 -308q186 0 322 90q135 90 135 217zM580 928q-133 0 -234 -197q-53 -105 -90 -249t-37 -242t38 -150t103 -51q226 0 330 472q31 140 31 227q0 86 -39 138t-102 52zM1220 985q98 0 165 -56t67 -147q0 -145 -171 -238
t-443 -95q-25 -98 -25 -187q0 -88 53 -150q52 -62 146 -62t176 75q82 76 117 190h90q-57 -157 -170 -245t-258 -88q-242 0 -301 223q-125 -223 -326 -223q-129 0 -205 85t-76 220t46 272t122 236q150 190 344 190q84 0 131 -43t64 -137l41 164q88 0 164 20l-45 -182
q61 96 128 137q68 41 166 41z" />
    <glyph glyph-name="ccedilla" unicode="&#xe7;" horiz-adv-x="829" 
d="M367 -238q0 72 -134 78l107 137q-133 11 -206 99t-73 220t41 260t111 224q150 211 377 211q72 0 136 -22q64 -23 86 -23q20 0 54 25l-67 -322h-47q4 35 4 78q0 205 -154 205t-266 -226t-113 -432q0 -106 49 -168t136 -61q190 0 280 281h82q-39 -150 -127 -239t-211 -105
l-78 -103q143 -16 144 -119q0 -74 -66 -122t-151 -50q-85 0 -156 33l14 60q66 -19 111 -19t81 28t36 72z" />
    <glyph glyph-name="egrave" unicode="&#xe8;" horiz-adv-x="870" 
d="M713 1087h-92l-240 302h213zM717 811q0 49 -34 83t-83 34q-102 0 -192 -112t-146 -310q174 0 297 76q158 96 158 229zM378 -18q-146 0 -232 89q-85 89 -85 242q0 109 41 233t111 218q162 221 391 221q119 0 189 -55t69 -148q0 -145 -172 -238t-442 -95q-27 -85 -27 -181
t53 -157q54 -61 148 -61t176 74t115 191h88q-57 -161 -167 -247t-256 -86z" />
    <glyph glyph-name="eacute" unicode="&#xe9;" horiz-adv-x="870" 
d="M500 1087l268 302h227l-387 -302h-108zM717 811q0 49 -34 83t-83 34q-102 0 -192 -112t-146 -310q174 0 297 76q158 96 158 229zM378 -18q-146 0 -232 89q-85 89 -85 242q0 109 41 233t111 218q162 221 391 221q119 0 189 -55t69 -148q0 -145 -172 -238t-442 -95
q-27 -85 -27 -181t53 -157q54 -61 148 -61t176 74t115 191h88q-57 -161 -167 -247t-256 -86z" />
    <glyph glyph-name="ecircumflex" unicode="&#xea;" horiz-adv-x="870" 
d="M299 1090l342 299h90l187 -299h-91l-170 176l-256 -176h-102zM717 811q0 49 -34 83t-83 34q-102 0 -192 -112t-146 -310q174 0 297 76q158 96 158 229zM378 -18q-146 0 -232 89q-85 89 -85 242q0 109 41 233t111 218q162 221 391 221q119 0 189 -55t69 -148
q0 -145 -172 -238t-442 -95q-27 -85 -27 -181t53 -157q54 -61 148 -61t176 74t115 191h88q-57 -161 -167 -247t-256 -86z" />
    <glyph glyph-name="edieresis" unicode="&#xeb;" horiz-adv-x="870" 
d="M832 1366q44 0 72 -28t28 -74t-38 -83q-38 -38 -84 -38q-46 1 -74 27t-28 71t40 85q39 40 84 40zM487 1366q47 0 73 -28t26 -74t-38 -83q-38 -38 -84 -38q-46 1 -74 27t-28 71t39 85q40 40 86 40zM717 811q0 49 -34 83t-83 34q-102 0 -192 -112t-146 -310q174 0 297 76
q158 96 158 229zM378 -18q-146 0 -232 89q-85 89 -85 242q0 109 41 233t111 218q162 221 391 221q119 0 189 -55t69 -148q0 -145 -172 -238t-442 -95q-27 -85 -27 -181t53 -157q54 -61 148 -61t176 74t115 191h88q-57 -161 -167 -247t-256 -86z" />
    <glyph glyph-name="igrave" unicode="&#xec;" horiz-adv-x="542" 
d="M487 1087h-90l-233 302h192zM262 124q0 -50 49 -50q27 0 51 22t66 84l39 -24q-45 -94 -95 -134t-119 -40t-111 38t-42 94t43 230l117 449q12 49 12 73t-25 35q-26 10 -97 12l10 35q151 12 317 53l-176 -686q-39 -141 -39 -191z" />
    <glyph glyph-name="iacute" unicode="&#xed;" horiz-adv-x="542" 
d="M301 1087l248 302h219l-358 -302h-109zM262 140q0 -66 49 -66q27 0 51 22t66 84l39 -24q-45 -94 -95 -134t-119 -40t-111 38t-42 96t45 228l115 449q12 49 12 73t-25 35q-26 10 -97 12l10 35q155 12 317 53l-176 -686q-39 -143 -39 -175z" />
    <glyph glyph-name="icircumflex" unicode="&#xee;" horiz-adv-x="542" 
d="M115 1090l301 299h90l143 -299h-82l-135 170l-221 -170h-96zM262 136q0 -62 49 -62q27 0 51 22t66 84l39 -24q-45 -94 -95 -134t-119 -40t-111 38t-42 98q0 58 45 226l115 449q12 49 12 73t-25 35q-26 10 -97 12l10 35q157 12 317 53l-176 -686q-39 -151 -39 -179z" />
    <glyph glyph-name="idieresis" unicode="&#xef;" horiz-adv-x="542" 
d="M591 1368q46 0 72 -27q25 -27 25 -73t-37 -82q-37 -37 -83 -37t-72 26q-26 27 -27 71q0 44 38 83t84 39zM286 1368q46 0 72 -27t25 -73q0 -46 -37 -82q-37 -37 -83 -37t-73 26q-26 27 -26 71t38 83t84 39zM262 140q0 -66 49 -66q27 0 51 22t66 84l39 -24
q-45 -94 -95 -134t-119 -40t-111 38t-42 96t45 228l115 449q12 49 12 73t-25 35q-26 10 -97 12l10 35q155 12 317 53l-176 -686q-39 -143 -39 -175z" />
    <glyph glyph-name="eth" unicode="&#xf0;" horiz-adv-x="962" 
d="M586 928q-76 0 -132 -47t-112 -156q-115 -233 -115 -457q0 -109 46 -169t129 -60t141 54q57 54 108 179q90 223 90 428q1 228 -155 228zM915 662q0 -120 -41 -251q-41 -132 -108 -229q-139 -201 -369 -200q-153 0 -241 93t-88 239t47 276q47 131 127 227q141 168 344 168
q51 0 114 -16l-28 178l-158 -43l-18 67l166 46l-21 145l55 14l52 -137l174 47l18 -67l-168 -48l94 -256q49 -133 49 -253z" />
    <glyph glyph-name="ntilde" unicode="&#xf1;" horiz-adv-x="1083" 
d="M571 1364q59 0 139 -59t115 -60q78 0 138 123l67 -31q-88 -211 -239 -211q-39 0 -69 14t-89 61q-59 46 -94 46q-75 1 -136 -114l-67 28q102 203 235 203zM725 985q99 0 161 -56t62 -149q0 -49 -22 -151l-97 -381q-20 -80 -20 -113q0 -61 49 -61q30 0 52 22t65 84l39 -24
q-47 -94 -96 -134t-117 -40t-111 40t-43 94t43 228l74 291q20 82 20 137t-35 88q-36 33 -96 33q-106 0 -188 -88q-53 -59 -82 -176l-156 -629h-164l195 778q14 74 14 94t-21 25q-21 6 -101 8l8 37q174 23 280 62q4 -53 -22 -179q139 160 309 160z" />
    <glyph glyph-name="ograve" unicode="&#xf2;" horiz-adv-x="962" 
d="M721 1087h-92l-240 302h213zM580 928q-76 0 -132 -47t-108 -154q-111 -227 -111 -457t168 -231q156 0 262 246q88 205 89 409q0 234 -168 234zM592 985q150 0 232 -90q82 -89 83 -233q0 -287 -149 -490q-143 -190 -369 -190q-155 0 -237 90t-82 238t46 284
q46 135 124 227q139 164 352 164z" />
    <glyph glyph-name="oacute" unicode="&#xf3;" horiz-adv-x="962" 
d="M526 1087l269 302h227l-387 -302h-109zM580 928q-76 0 -132 -47t-108 -154q-111 -227 -111 -457t168 -231q156 0 262 246q88 205 89 409q0 234 -168 234zM592 985q150 0 232 -90q82 -89 83 -233q0 -287 -149 -490q-143 -190 -369 -190q-155 0 -237 90t-82 238t46 284
q46 135 124 227q139 164 352 164z" />
    <glyph glyph-name="ocircumflex" unicode="&#xf4;" horiz-adv-x="962" 
d="M301 1090l342 299h90l187 -299h-91l-170 176l-256 -176h-102zM580 928q-76 0 -132 -47t-108 -154q-111 -227 -111 -457t168 -231q156 0 262 246q88 205 89 409q0 234 -168 234zM592 985q150 0 232 -90q82 -89 83 -233q0 -287 -149 -490q-143 -190 -369 -190
q-155 0 -237 90t-82 238t46 284q46 135 124 227q139 164 352 164z" />
    <glyph glyph-name="otilde" unicode="&#xf5;" horiz-adv-x="962" 
d="M555 1364q59 0 138 -59t116 -60q78 0 137 123l68 -31q-88 -211 -240 -211q-38 0 -68 14t-90 61q-60 46 -94 46q-74 1 -135 -114l-68 28q102 203 236 203zM580 928q-76 0 -132 -47t-108 -154q-111 -227 -111 -457t168 -231q156 0 262 246q88 205 89 409q0 234 -168 234z
M592 985q150 0 232 -90q82 -89 83 -233q0 -287 -149 -490q-143 -190 -369 -190q-155 0 -237 90t-82 238t46 284q46 135 124 227q139 164 352 164z" />
    <glyph glyph-name="odieresis" unicode="&#xf6;" horiz-adv-x="962" 
d="M836 1366q44 0 72 -28t28 -74t-38 -83q-38 -38 -84 -38q-46 1 -74 27t-28 71t40 85q39 40 84 40zM491 1366q47 0 73 -28t26 -74t-38 -83q-38 -38 -84 -38q-46 1 -74 27t-28 71t40 85q39 40 85 40zM580 928q-76 0 -132 -47t-108 -154q-111 -227 -111 -457t168 -231
q156 0 262 246q88 205 89 409q0 234 -168 234zM592 985q150 0 232 -90q82 -89 83 -233q0 -287 -149 -490q-143 -190 -369 -190q-155 0 -237 90t-82 238t46 284q46 135 124 227q139 164 352 164z" />
    <glyph glyph-name="divide" unicode="&#xf7;" horiz-adv-x="1056" 
d="M479 973q0 45 32 75t76 31q44 -1 75 -31q30 -30 30 -75t-30 -76t-76 -31q-45 0 -76 31t-31 76zM479 410q0 46 32 76t76 30t75 -32q30 -32 30 -76t-30 -74q-30 -31 -76 -31q-45 0 -76 31t-31 76zM160 631v119h852v-119h-852z" />
    <glyph glyph-name="oslash" unicode="&#xf8;" horiz-adv-x="962" 
d="M575 928q-160 0 -262 -260q-78 -193 -84 -383l504 510q-27 133 -158 133zM743 668v37l-507 -515q25 -152 159 -151q82 0 145 59q62 59 115 187q88 207 88 383zM586 985q160 0 245 -100l89 88h102l-152 -150q35 -79 35 -193t-40 -240t-109 -218q-141 -190 -371 -190
q-164 -1 -254 114l-104 -102h-99l168 168q-67 185 18 433q46 134 124 226q139 164 348 164z" />
    <glyph glyph-name="ugrave" unicode="&#xf9;" horiz-adv-x="1085" 
d="M784 1087h-92l-239 302h213zM289 197q0 -53 37 -89t98 -36q115 0 197 110q47 63 84 213l143 574q84 2 168 20l-158 -633q-43 -174 -43 -209q0 -71 51 -71t115 102l39 -26q-58 -96 -104 -134t-113 -36q-143 0 -150 159q-125 -160 -286 -159q-109 0 -176 58t-66 153
q0 57 20 139l115 461q12 45 12 71t-23 36q-23 11 -99 13l10 35q158 12 315 53l-168 -671q-18 -80 -18 -133z" />
    <glyph glyph-name="uacute" unicode="&#xfa;" horiz-adv-x="1085" 
d="M575 1087l269 302h227l-387 -302h-109zM289 197q0 -53 37 -89t98 -36q115 0 197 110q47 63 84 213l143 574q84 2 168 20l-158 -633q-43 -174 -43 -209q0 -71 51 -71t115 102l39 -26q-58 -96 -104 -134t-113 -36q-143 0 -150 159q-125 -160 -286 -159q-109 0 -176 58
t-66 153q0 57 20 139l115 461q12 45 12 71t-23 36q-23 11 -99 13l10 35q158 12 315 53l-168 -671q-18 -80 -18 -133z" />
    <glyph glyph-name="ucircumflex" unicode="&#xfb;" horiz-adv-x="1085" 
d="M371 1090l342 299h90l186 -299h-90l-170 176l-256 -176h-102zM289 197q0 -53 37 -89t98 -36q115 0 197 110q47 63 84 213l143 574q84 2 168 20l-158 -633q-43 -174 -43 -209q0 -71 51 -71t115 102l39 -26q-58 -96 -104 -134t-113 -36q-143 0 -150 159
q-125 -160 -286 -159q-109 0 -176 58t-66 153q0 57 20 139l115 461q12 45 12 71t-23 36q-23 11 -99 13l10 35q158 12 315 53l-168 -671q-18 -80 -18 -133z" />
    <glyph glyph-name="udieresis" unicode="&#xfc;" horiz-adv-x="1085" 
d="M896 1366q46 0 73 -28t27 -74t-39 -83q-38 -38 -84 -38q-45 1 -73 27t-28 71t39 85t85 40zM549 1366q45 0 73 -28t28 -74t-39 -83q-38 -38 -84 -38q-45 1 -73 27t-28 71t39 85t84 40zM289 197q0 -53 37 -89t98 -36q115 0 197 110q47 63 84 213l143 574q84 2 168 20
l-158 -633q-43 -174 -43 -209q0 -71 51 -71t115 102l39 -26q-58 -96 -104 -134t-113 -36q-143 0 -150 159q-125 -160 -286 -159q-109 0 -176 58t-66 153q0 57 20 139l115 461q12 45 12 71t-23 36q-23 11 -99 13l10 35q158 12 315 53l-168 -671q-18 -80 -18 -133z" />
    <glyph glyph-name="yacute" unicode="&#xfd;" horiz-adv-x="851" 
d="M436 1087l269 302h227l-387 -302h-109zM276 963q94 0 209 10l-10 -41q-71 -4 -95 -16t-24 -43q0 -30 2 -39l58 -617l327 553q49 84 49 125t-67 41q-14 0 -27 -2l-4 39q117 8 215 65q14 -43 15 -80t-94 -178q-17 -27 -25 -41l-496 -807q-127 -207 -209 -269t-223 -66h-20
v135q59 -20 106 -21q131 0 295 256l39 64l-109 805q-8 57 -31 74q-24 17 -96 22l11 41q110 -10 204 -10z" />
    <glyph glyph-name="thorn" unicode="&#xfe;" horiz-adv-x="1032" 
d="M705 928q-143 0 -248 -205q-41 -84 -79 -240q-38 -157 -38 -245t43 -144t117 -55q152 0 248 235q102 242 102 443q0 99 -38 155t-107 56zM399 1250q0 28 -26 38q-27 10 -97 10l9 37q160 14 317 54l-135 -545q78 80 135 110t133 31q125 0 200 -87t75 -224q0 -136 -45 -272
t-121 -232q-145 -188 -340 -188q-82 0 -130 36t-81 123l-135 -544h-164l393 1581q12 44 12 72z" />
    <glyph glyph-name="ydieresis" unicode="&#xff;" horiz-adv-x="851" 
d="M761 1366q46 0 73 -28q26 -28 26 -74t-38 -83q-38 -38 -84 -38q-46 1 -74 27t-27 71q0 45 39 85t85 40zM414 1366q44 0 72 -28t28 -74t-38 -83q-38 -38 -84 -38q-46 1 -74 27t-28 71t40 85q39 40 84 40zM276 963q94 0 209 10l-10 -41q-71 -4 -95 -16t-24 -43q0 -30 2 -39
l58 -617l327 553q49 84 49 125t-67 41q-14 0 -27 -2l-4 39q117 8 215 65q14 -43 15 -80t-94 -178q-17 -27 -25 -41l-496 -807q-127 -207 -209 -269t-223 -66h-20v135q59 -20 106 -21q131 0 295 256l39 64l-109 805q-8 57 -31 74q-24 17 -96 22l11 41q110 -10 204 -10z" />
    <glyph glyph-name="dotlessi" unicode="&#x131;" horiz-adv-x="542" 
d="M262 140q0 -66 49 -66q27 0 51 22t66 84l39 -24q-45 -94 -95 -134t-119 -40t-111 38t-42 96t45 228l115 449q12 49 12 73t-25 35q-26 10 -97 12l10 35q155 12 317 53l-176 -686q-39 -143 -39 -175z" />
    <glyph glyph-name="Lslash" unicode="&#x141;" horiz-adv-x="1003" 
d="M424 1264q0 49 -143 59l12 49q164 -14 245 -14t250 14l-12 -49q-104 -8 -140 -33t-52 -104l-109 -436l320 163l-25 -100l-319 -164l-111 -440q-14 -55 -14 -76q0 -66 108 -65h139q119 0 190 55t146 207h56l-127 -330h-887l12 49q109 8 145 32t54 105l98 394l-188 -99
l24 99l189 100l125 506q14 54 14 78z" />
    <glyph glyph-name="lslash" unicode="&#x142;" horiz-adv-x="569" 
d="M330 74q26 0 50 22t64 84l39 -22q-47 -96 -96 -136t-118 -40t-111 38t-41 96q0 58 43 228l76 293l-154 -80l22 94l156 80l115 449q12 48 12 72t-25 35t-98 11l10 37q162 12 318 54l-152 -592l191 100l-25 -96l-190 -101l-99 -385q-39 -141 -38 -180q0 -61 51 -61z" />
    <glyph glyph-name="OE" unicode="&#x152;" horiz-adv-x="1824" 
d="M846 1335q-215 0 -391 -336q-74 -141 -119 -320t-45 -323q-1 -144 67 -235q68 -90 174 -90q233 0 398 366q145 317 145 615q1 150 -61 236t-168 87zM1059 125q0 -61 110 -62h174q89 0 139 22t97 81q53 61 104 164h46l-127 -330h-740l39 156q-169 -182 -369 -182t-309 120
t-109 310t63 378q62 188 163 324q215 287 510 287q112 -1 184 -45t125 -146l41 164h701l-41 -307h-45q-2 151 -40 197t-163 47h-266l-138 -553h459l-18 -72h-459l-119 -485q-12 -43 -12 -68z" />
    <glyph glyph-name="oe" unicode="&#x153;" horiz-adv-x="1488" 
d="M584 928q-133 0 -240 -211q-53 -109 -88 -245t-35 -231t39 -149t105 -53q152 0 260 244q106 246 106 436q1 101 -37 155t-110 54zM1325 811q0 49 -34 83t-85 34q-100 0 -190 -112t-148 -310q188 0 323 90q134 90 134 215zM983 -18q-209 0 -285 178q-154 -178 -338 -178
q-133 0 -216 89t-83 225t48 268q47 132 127 231q152 190 362 190q98 0 160 -42t98 -136q150 178 358 178q115 0 186 -56t70 -149q0 -143 -173 -236t-443 -95q-25 -97 -25 -187q1 -90 55 -151t146 -61t173 72q81 74 118 193h90q-57 -161 -170 -247t-258 -86z" />
    <glyph glyph-name="Scaron" unicode="&#x160;" horiz-adv-x="987" 
d="M1102 1804l-361 -301h-94l-203 301h97l182 -178l270 178h109zM897 1079q0 248 -233 248q-123 0 -207 -76t-84 -184q0 -63 37 -109t176 -139q139 -92 196 -137q121 -96 121 -240q0 -194 -145 -332t-350 -139q-119 0 -206 41t-177 142l61 297h51q-8 -63 -8 -105
q0 -141 74 -222t211 -81t229 98q43 45 70 112t26 126q0 96 -86 164q-35 29 -189 132t-205 167q-50 64 -50 157q0 164 131 280t317 116q113 0 228 -52q47 -20 67 -20t66 23l-76 -357h-53q8 49 8 90z" />
    <glyph glyph-name="scaron" unicode="&#x161;" horiz-adv-x="800" 
d="M905 1389l-342 -299h-90l-186 299h90l170 -177l254 177h104zM668 743q0 87 -45 137t-125 50t-138 -48t-57 -108q0 -60 33 -93q33 -34 158 -110t168 -131t43 -133q0 -139 -110 -235q-109 -96 -279 -96t-302 137l41 206l49 3v-41q0 -113 58 -179t154 -66q97 0 165 64
q68 63 68 154q0 59 -34 94t-161 115t-164 127t-36 115q0 119 95 203t230 83q61 0 125 -20q64 -21 90 -21t74 29l-55 -279h-49q4 20 4 43z" />
    <glyph glyph-name="Ydieresis" unicode="&#x178;" horiz-adv-x="1011" 
d="M960 1530q-50 0 -80 29t-30 77t42 92t92 44t79 -30t29 -80t-41 -91t-91 -41zM475 1636q0 48 42 92t92 44t79 -29t29 -80t-40 -92t-91 -41t-81 29t-30 77zM426 1358q98 0 248 14l-12 -49q-90 -8 -120 -21q-30 -12 -30 -42t14 -121l88 -480l353 494q61 86 61 120t-45 34
q-12 0 -57 -7l-8 48q158 20 266 69l2 -12v-21q0 -36 -20 -68t-132 -186l-391 -534l-102 -416q-15 -51 -15 -77t31 -40t109 -20l-13 -49q-165 14 -243 14t-252 -14l12 49q112 10 146 34t51 103l104 416l-115 516q-25 135 -53 168q-29 33 -129 43l10 49q144 -14 242 -14z" />
    <glyph glyph-name="Zcaron" unicode="&#x17d;" horiz-adv-x="1003" 
d="M1171 1804l-360 -301h-94l-203 301h96l183 -178l270 178h108zM602 1303q-108 -1 -178 -53t-137 -185h-64l131 301h826l-1014 -1298h381q127 0 197 51t171 215h50l-134 -334h-907l1010 1303h-332z" />
    <glyph glyph-name="zcaron" unicode="&#x17e;" horiz-adv-x="821" 
d="M1006 1389l-342 -299h-91l-186 299h90l170 -177l254 177h105zM330 166q47 0 153 -21q33 -4 47 -4q59 0 100 35q40 35 89 129h43q-51 -168 -127 -242t-195 -73q-62 0 -176 32t-161 33q-47 0 -115 -55h-72l825 856q-123 -51 -215 -51q-41 0 -108 16q-67 17 -100 17
q-70 1 -142 -144h-43q41 131 84 185q74 96 182 96q57 0 171 -34t165 -34t123 51h74l-819 -843q115 51 217 51z" />
    <glyph glyph-name="florin" unicode="&#x192;" horiz-adv-x="1056" 
d="M-94 -132q0 56 26 88q27 32 63 32t55 -20q41 -42 -3 -111q-10 -15 -10 -29t18 -26t47 -13q78 0 136 96q27 43 79 195l281 819h-145l18 66q109 1 135 23t86 173q58 151 133 217q89 72 199 72q214 0 213 -135q0 -47 -26 -78q-27 -31 -61 -31t-53 18q-36 33 -1 101
q8 14 8 29q0 39 -64 39t-99 -44q-36 -44 -81 -175l-67 -197h211l-21 -76h-217l-244 -702q-94 -274 -164 -355q-96 -111 -258 -110q-90 0 -142 39t-52 95z" />
    <glyph glyph-name="circumflex" unicode="&#x2c6;" 
d="M330 1090l342 299h90l186 -299h-90l-170 176l-256 -176h-102z" />
    <glyph glyph-name="caron" unicode="&#x2c7;" 
d="M1032 1389l-342 -299h-90l-186 299h90l170 -177l254 177h104z" />
    <glyph glyph-name="breve" unicode="&#x2d8;" 
d="M922 1386h69q-45 -137 -137 -216q-92 -78 -194 -78t-158 63q-55 63 -56 170q0 18 7 61h67q18 -168 160 -167q142 -1 242 167z" />
    <glyph glyph-name="dotaccent" unicode="&#x2d9;" 
d="M720 1366q46 0 73 -28t27 -74t-39 -83q-38 -38 -84 -38q-45 1 -73 27t-28 71t39 85t85 40z" />
    <glyph glyph-name="ring" unicode="&#x2da;" 
d="M717 1194q41 0 71 30t29 70q1 40 -29 70q-30 29 -70 29t-70 -29t-30 -70q0 -40 29 -70t70 -30zM719 1464q72 0 121 -50t49 -121t-49 -121t-120 -50t-122 50t-51 121t50 121t122 50z" />
    <glyph glyph-name="ogonek" unicode="&#x2db;" 
d="M432 -178q0 -31 26 -49q26 -19 60 -19t105 17l-15 -64q-84 -31 -156 -31t-113 33q-42 33 -42 99t80 128q80 60 217 87l86 -15q-248 -78 -248 -186z" />
    <glyph glyph-name="tilde" unicode="&#x2dc;" 
d="M575 1364q59 0 139 -59t115 -60q78 0 138 123l67 -31q-88 -211 -239 -211q-39 0 -69 14t-89 61q-59 46 -94 46q-74 1 -135 -114l-68 28q102 203 235 203z" />
    <glyph glyph-name="hungarumlaut" unicode="&#x2dd;" 
d="M721 1087l237 302h211l-352 -302h-96zM440 1087l238 302h211l-352 -302h-97z" />
    <glyph glyph-name="Delta" unicode="&#x394;" horiz-adv-x="1366" 
d="M664 1223l-431 -957q-56 -120 -9 -154q22 -15 73 -16h862zM735 1399l631 -1399h-1325l629 1399h65z" />
    <glyph glyph-name="Omega" unicode="&#x3a9;" horiz-adv-x="1366" 
d="M786 0v82q111 53 169 97t114 112q147 188 147 440t-147 436q-137 166 -367 166q-274 0 -413 -239q-99 -168 -99 -339q-1 -335 220 -540q72 -68 211 -133v-82h-562l-77 236h36q31 -88 84 -118t177 -32l219 -4v10q-104 41 -162 77t-117 95q-199 199 -199 467q0 141 70 283
t186 235q174 139 429 140q340 0 534 -246q147 -188 147 -408q0 -158 -76 -303t-206 -239q-72 -51 -195 -101v-10l230 4q115 2 166 32t81 118h39l-77 -236h-562z" />
    <glyph glyph-name="pi" unicode="&#x3c0;" 
d="M1155 952v-98h-317q-74 -182 -74 -264v-330q0 -118 15 -152t69 -34q25 0 76 16l24 8v-35l-205 -81q-14 -8 -25 -8q-10 0 -30 20t-40 58t-19 118v324q0 66 13 110t54 121l25 49q27 53 43 80h-356l-2 -254q-4 -168 -35 -446q-15 -104 -33 -146t-47 -43q-29 0 -49 25
q-20 24 -20 56t20 93q82 217 98 715q-114 2 -184 -36t-148 -144l-24 26l145 183q55 70 184 69h842z" />
    <glyph glyph-name="endash" unicode="&#x2013;" horiz-adv-x="1056" 
d="M180 483l27 109h704l-26 -109h-705z" />
    <glyph glyph-name="emdash" unicode="&#x2014;" horiz-adv-x="1157" 
d="M4 483l27 109h1157l-27 -109h-1157z" />
    <glyph glyph-name="quoteleft" unicode="&#x2018;" horiz-adv-x="473" 
d="M397 1049q35 0 59 -27t24 -72t-38 -83q-37 -38 -88 -38t-81 32q-29 31 -29 99t65 189t176 240h74q-156 -188 -176 -340h14z" />
    <glyph glyph-name="quoteright" unicode="&#x2019;" horiz-adv-x="473" 
d="M399 1169q-35 0 -59 27t-23 73q0 46 38 83t88 37t80 -32t30 -83q0 -177 -242 -445h-73q156 197 174 340h-13z" />
    <glyph glyph-name="quotesinglbase" unicode="&#x201a;" horiz-adv-x="473" 
d="M102 -27q-34 0 -58 27t-24 73t37 83t88 37t81 -32t30 -83q0 -175 -242 -445h-73q154 193 174 340h-13z" />
    <glyph glyph-name="quotedblleft" unicode="&#x201c;" horiz-adv-x="778" 
d="M657 829q-110 -1 -110 131q0 68 65 189t176 240h74q-154 -190 -174 -340h12q35 0 60 -27q24 -27 24 -73t-38 -83t-89 -37zM395 1049q35 0 59 -27t24 -72t-39 -83q-38 -38 -88 -38t-80 32q-29 31 -29 99t65 189t176 240h74q-156 -193 -176 -340h14z" />
    <glyph glyph-name="quotedblright" unicode="&#x201d;" horiz-adv-x="778" 
d="M748 1389q110 1 110 -131q0 -68 -64 -187t-178 -242h-73q156 195 176 340h-12q-37 0 -61 26t-24 73t37 84t89 37zM399 1169q-35 0 -59 27t-23 73q0 46 38 83t88 37t80 -32t30 -83q0 -177 -242 -445h-73q156 197 174 340h-13z" />
    <glyph glyph-name="quotedblbase" unicode="&#x201e;" horiz-adv-x="778" 
d="M408 -27q-35 0 -59 27q-23 27 -23 73t38 83t88 37t80 -32t29 -83q1 -177 -239 -445h-76q156 195 176 340h-14zM102 -27q-34 0 -58 27t-24 73t37 83t88 37t81 -32t30 -83q0 -175 -242 -445h-73q154 193 174 340h-13z" />
    <glyph glyph-name="dagger" unicode="&#x2020;" 
d="M258 -244l289 1098l-324 -20l35 141l313 -21l82 377h152l-109 -377l324 21l-35 -141l-313 20l-258 -1098h-156z" />
    <glyph glyph-name="daggerdbl" unicode="&#x2021;" 
d="M553 879l-332 -21l35 139l322 -20l73 354h152l-103 -354l332 20l-35 -139l-321 21l-162 -654l330 21l-35 -140l-320 21l-77 -371h-154l107 371l-330 -21l35 140l319 -21z" />
    <glyph glyph-name="bullet" unicode="&#x2022;" horiz-adv-x="1366" 
d="M707 977q117 0 199 -84t83 -201q0 -118 -83 -200q-84 -82 -200 -82t-200 83t-84 201t84 200q84 83 201 83z" />
    <glyph glyph-name="ellipsis" unicode="&#x2026;" horiz-adv-x="1550" 
d="M1218 223q50 -1 78 -29t29 -79q0 -51 -41 -92t-91 -41t-80 28t-30 78q0 49 42 92q43 43 93 43zM700 223q50 -1 78 -29t29 -79q0 -51 -41 -92t-91 -41t-80 28t-30 78q0 49 42 92q43 43 93 43zM183 223q50 1 79 -29t29 -80t-41 -91t-91 -41t-80 28t-30 78q0 49 42 92t92 43
z" />
    <glyph glyph-name="perthousand" unicode="&#x2030;" horiz-adv-x="1912" 
d="M1624 592q-104 0 -170 -152t-68 -278q0 -59 25 -92t70 -33q107 1 171 157t64 277q0 57 -24 89q-25 32 -68 32zM1638 641q90 0 140 -55t51 -152q0 -178 -108 -311t-251 -133q-92 0 -144 56t-52 148t36 183q36 90 93 153q98 111 235 111zM985 592q-105 0 -171 -150
t-66 -280q0 -59 24 -92t70 -33q106 1 170 157t65 277q0 57 -24 89q-25 32 -68 32zM999 641q91 0 141 -55t50 -152q0 -178 -108 -311t-251 -133q-92 0 -144 56t-52 148t36 183q36 90 93 153q98 111 235 111zM127 0l1024 1335h86l-1024 -1335h-86zM543 1327q-102 0 -176 -162
q-61 -143 -62 -268q0 -59 25 -92t69 -33q107 0 171 156t65 278q-1 57 -25 89t-67 32zM557 1376q90 0 140 -55t51 -154q0 -176 -108 -309t-251 -133q-92 0 -144 57q-52 58 -52 150t35 181q36 89 94 153q98 110 235 110z" />
    <glyph glyph-name="guilsinglleft" unicode="&#x2039;" horiz-adv-x="536" 
d="M469 965h74l-283 -478l41 -487h-61l-123 487z" />
    <glyph glyph-name="guilsinglright" unicode="&#x203a;" horiz-adv-x="536" 
d="M78 0h-74l283 477l-41 488h61l123 -488z" />
    <glyph glyph-name="fraction" unicode="&#x2044;" horiz-adv-x="133" 
d="M-473 0l1089 1335h91l-1090 -1335h-90z" />
    <glyph glyph-name="trademark" unicode="&#x2122;" horiz-adv-x="1544" 
d="M784 588q-29 0 -127 -6l13 43q68 6 90 45q22 40 32 72t16 54q7 22 22 76t36 117l80 268q6 25 6 35q0 31 -84 35l11 43q67 -6 105 -6t112 8l65 -581l348 581q76 -8 113 -8t109 6l-13 -43q-64 -4 -82 -16t-28 -54l-127 -552q-6 -37 -6 -49q0 -28 81 -31l-10 -43
q-90 10 -151 10t-154 -10l10 43q63 4 83 16q19 12 28 53l139 574l-397 -660h-29l-74 664l-165 -578q-13 -50 7 -58q19 -7 68 -11l-12 -43q-86 6 -115 6zM412 664q0 -18 14 -26q14 -7 66 -11l-11 -43q-90 10 -150 10t-153 -10l10 43q66 4 84 15t29 54l154 621h-54
q-59 0 -92 -27t-78 -112h-45l82 188h510l-12 -188h-41q-2 84 -24 112t-85 27h-47l-149 -602q-8 -33 -8 -51z" />
    <glyph glyph-name="partialdiff" unicode="&#x2202;" 
d="M539 868q-185 0 -272 -220q-40 -103 -40 -209t40 -208t108 -158t151 -57q131 0 220 126q90 126 90 308t-84 300t-213 118zM977 448q0 -198 -128 -337q-127 -139 -317 -139t-317 136t-127 334t127 335q127 136 313 136q137 0 226 -75q29 -25 75 -86q-72 226 -189 368
t-316 248l18 37q193 -80 327 -211t221 -340q87 -208 87 -406z" />
    <glyph glyph-name="product" unicode="&#x220f;" horiz-adv-x="1366" 
d="M66 1366h1273v-37h-47q-90 1 -112 -27t-23 -137v-1441q0 -109 23 -137t108 -27h49v-37h-510v37h43q90 0 114 28t24 136v1441q0 109 -23 137t-115 27h-333q-90 1 -113 -27t-23 -137v-1441q0 -109 23 -137t108 -27h50v-37h-510v37h43q89 0 113 28t24 136v1441
q0 109 -23 137t-114 27h-49v37z" />
    <glyph glyph-name="summation" unicode="&#x2211;" horiz-adv-x="1366" 
d="M1184 1366v-324h-37q-20 160 -92 216t-256 57h-471l424 -805l-484 -899h543q127 -1 198 23q165 55 222 284h37l-68 -395h-1059l494 919l-494 924h1043z" />
    <glyph glyph-name="minus" unicode="&#x2212;" horiz-adv-x="1056" 
d="M158 631v121h852v-121h-852z" />
    <glyph glyph-name="radical" unicode="&#x221a;" horiz-adv-x="1366" 
d="M1352 1686v-54h-246l-379 -1632h-152l-178 739h-342v54h467l162 -691l371 1584h297z" />
    <glyph glyph-name="infinity" unicode="&#x221e;" horiz-adv-x="1366" 
d="M301 905q-86 0 -143 -63q-58 -62 -58 -160t71 -158t175 -61q104 0 167 39t126 139q-70 104 -117 158q-94 106 -221 106zM1088 459q98 -1 157 65t59 167t-73 163q-75 62 -185 64q-110 0 -176 -42t-129 -141q84 -133 150 -190q99 -86 197 -86zM49 680q0 140 94 244
q94 102 230 102q186 0 342 -254q7 8 47 70t60 89q20 26 59 48q74 49 159 49q132 0 224 -98t92 -240t-98 -246t-238 -104q-96 0 -187 68t-163 190q-55 -88 -101 -141q-88 -105 -215 -105t-216 94t-89 234z" />
    <glyph glyph-name="integral" unicode="&#x222b;" horiz-adv-x="1026" 
d="M608 950v-911q0 -178 -14 -265t-53 -159q-90 -156 -250 -156q-100 1 -170 61t-70 146q0 47 30 79t72 32q43 0 71 -28q28 -29 28 -59t-9 -52q-23 -56 8 -84q17 -16 44 -17q72 -1 118 103t46 264v938q0 180 13 268t54 160q90 156 250 155q100 0 170 -60t70 -148
q0 -45 -30 -77t-72 -32t-70 28t-29 58q0 30 9 54q23 56 -8 83q-17 16 -44 17q-74 0 -119 -109t-45 -289z" />
    <glyph glyph-name="approxequal" unicode="&#x2248;" 
d="M375 625q61 0 187 -42t183 -42q119 -1 213 114l29 -16q-57 -88 -137 -140q-80 -53 -140 -53t-196 44q-138 44 -200 44t-100 -21t-66 -53t-33 -38q-6 -6 -9 -10l-30 18q137 195 299 195zM712 762q-60 0 -196 43q-134 43 -202 43t-104 -23t-104 -98l-30 16q137 195 299 195
q61 0 187 -41t181 -41q119 0 215 115l29 -19q-55 -86 -135 -138t-140 -52z" />
    <glyph glyph-name="notequal" unicode="&#x2260;" 
d="M993 897v-78h-358l-98 -209h458v-78h-493l-125 -270l-72 35l111 235h-344v78h379l98 209h-479v78h514l116 250l72 -33l-100 -217h321z" />
    <glyph glyph-name="lessequal" unicode="&#x2264;" 
d="M111 66h845v-66h-845v66zM956 1253v-71l-655 -428l655 -437v-186l-845 563v13z" />
    <glyph glyph-name="greaterequal" unicode="&#x2265;" 
d="M111 131v70l655 428l-655 438v186l845 -567v-12zM111 66h845v-66h-845v66z" />
    <glyph glyph-name="lozenge" unicode="&#x25ca;" horiz-adv-x="1366" 
d="M705 1237l-404 -553l404 -555l403 555zM705 1419l530 -735l-530 -737l-533 737z" />
    <glyph glyph-name="apple" unicode="&#xf8ff;" horiz-adv-x="1366" 
d="M989 -55q-29 0 -51 7t-115 48q-16 6 -72 6t-80 -6t-106 -41q-45 -16 -80 -16q-86 0 -180 106t-155 268q-122 325 -6 556q102 204 327 204q70 0 149 -31q78 -30 110 -30t119 32t152 33q188 0 297 -145q-90 -70 -128 -136t-38 -158q0 -93 55 -175q54 -82 150 -121
q-78 -193 -169 -297t-179 -104zM1006 1395q0 -166 -134 -271q-82 -63 -172 -63q-2 139 84 239t222 115v-20z" />
    <glyph glyph-name="fi" unicode="&#xfb01;" horiz-adv-x="1144" 
d="M1069 1364q45 0 71 -25t26 -71t-37 -84q-36 -37 -82 -37q-47 -1 -73 25t-26 71t38 83t83 38zM866 135q0 -61 52 -61q28 0 52 22t64 84l39 -24q-47 -94 -97 -134t-119 -40t-111 38t-42 94t46 230l114 449q12 55 12 77t-25 31q-26 10 -97 12l10 35q155 12 317 53l-176 -686
q-39 -150 -39 -180zM678 1395q92 0 147 -37q55 -38 55 -92t-25 -84t-59 -29q-34 0 -55 19q-20 19 -20 42q0 24 12 48t12 38t-20 28t-47 15q-55 0 -95 -63t-73 -211l-25 -104h220l-17 -74h-221l-180 -752q-43 -161 -82 -243t-96 -140q-137 -133 -342 -133l12 53
q151 26 223 132t135 387l166 696h-137l16 63h21q79 6 103 30t34 57t26 79t21 60q76 215 291 215z" />
    <glyph glyph-name="fl" unicode="&#xfb02;" horiz-adv-x="1144" 
d="M676 1395q117 0 180 -62q158 10 326 56l-277 -1074q-37 -141 -37 -174q0 -67 50 -67q28 0 52 22t64 84l39 -24q-49 -96 -97 -136t-117 -38q-69 0 -111 38t-41 100q0 60 43 224l213 834q12 52 12 74t-22 33t-81 13q6 -25 6 -54t-25 -60q-26 -31 -60 -31t-53 19t-19 42
q0 24 11 48t11 38t-20 28t-47 15q-55 0 -93 -62t-73 -212l-25 -104h220l-17 -74h-221l-180 -750q-43 -163 -82 -245t-96 -140q-137 -133 -342 -133l12 53q151 28 223 134t135 387l166 694h-137l16 63h21q78 6 102 31q6 6 17 19q23 45 34 88l31 88q76 215 289 215z" />
    <glyph glyph-name="Adieresis" horiz-adv-x="1247" 
d="M1103 1772q50 0 79 -30q28 -30 28 -80t-41 -91t-91 -41t-80 29t-30 77t43 92q42 44 92 44zM704 1530q-52 0 -80 29q-30 29 -30 77t42 92t92 44t79 -29t29 -80t-40 -92t-92 -41zM377 459h432l-43 665zM180 94q0 -45 117 -51l-12 -49q-103 10 -189 10t-192 -10l12 49
q84 4 131 39t109 137l723 1208h14l113 -1232q8 -88 36 -116t125 -36l-12 -49q-137 14 -239 14t-252 -14l12 49q96 11 125 27t28 65l-2 51l-14 209h-473l-125 -211q-35 -63 -35 -90z" />
    </font>
</defs>
</svg>
